<svg width="18" height="18" viewBox="0 0 18 18" fill="none" xmlns="http://www.w3.org/2000/svg">
<path d="M12.6923 1H5.30769C2.90769 1 1 2.90769 1 5.30769V12.6923C1 15.0923 2.90769 17 5.30769 17H12.6923C15.0923 17 17 15.0923 17 12.6923V5.30769C17 2.90769 15.0923 1 12.6923 1Z" stroke="white" stroke-width="2" stroke-miterlimit="10" stroke-linecap="round" stroke-linejoin="round"/>
<path d="M13.3075 4.6922C13.6474 4.6922 13.9229 4.41668 13.9229 4.07681C13.9229 3.73694 13.6474 3.46143 13.3075 3.46143C12.9677 3.46143 12.6921 3.73694 12.6921 4.07681C12.6921 4.41668 12.9677 4.6922 13.3075 4.6922Z" fill="white"/>
<path d="M8.99993 12.6927C11.0391 12.6927 12.6922 11.0396 12.6922 9.00041C12.6922 6.96121 11.0391 5.30811 8.99993 5.30811C6.96072 5.30811 5.30762 6.96121 5.30762 9.00041C5.30762 11.0396 6.96072 12.6927 8.99993 12.6927Z" stroke="white" stroke-width="2" stroke-miterlimit="10" stroke-linecap="round" stroke-linejoin="round"/>
</svg>
