<svg width="16" height="16" viewBox="0 0 16 16" fill="none" xmlns="http://www.w3.org/2000/svg">
<path d="M0 4.66667H3.33333V16H0V4.66667ZM1.65667 3.33333H1.638C0.643333 3.33333 0 2.592 0 1.666C0 0.72 0.663333 0 1.676 0C2.69 0 3.31467 0.72 3.33333 1.666C3.33333 2.59133 2.69 3.33333 1.65667 3.33333ZM16 16H12.6667V9.934C12.6667 8.46867 11.85 7.46867 10.5387 7.46867C9.538 7.46867 8.99667 8.14333 8.734 8.79533C8.638 9.02867 8.66667 9.674 8.66667 10V16H5.33333V4.66667H8.66667V6.41067C9.14733 5.66667 9.9 4.66667 11.8253 4.66667C14.2107 4.66667 15.9993 6.16667 15.9993 9.516L16 16Z" fill="white"/>
</svg>
