<svg width="21" height="16" viewBox="0 0 21 16" fill="none" xmlns="http://www.w3.org/2000/svg">
<path d="M21 1.89186C20.2283 2.21517 19.3983 2.4309 18.5228 2.53297C19.4129 2.0331 20.0977 1.23586 20.419 0.294069C19.5861 0.755862 18.6634 1.09517 17.6817 1.27393C16.8978 0.487724 15.7796 0 14.5407 0C12.1609 0 10.232 1.80855 10.232 4.03862C10.232 4.35421 10.2711 4.66152 10.3446 4.96C6.76435 4.79007 3.58895 3.18014 1.46463 0.737104C1.09133 1.33407 0.881343 2.0331 0.881343 2.77076C0.881343 4.17269 1.6402 5.4069 2.79743 6.13407C2.09108 6.11366 1.42613 5.92772 0.844013 5.62979C0.844013 5.64193 0.844013 5.66014 0.844013 5.67724C0.844013 7.63641 2.32964 9.26786 4.29881 9.63917C3.93892 9.73241 3.55862 9.78428 3.16665 9.78428C2.88843 9.78428 2.6172 9.75448 2.35472 9.70979C2.90301 11.3109 4.49363 12.4811 6.37822 12.5159C4.90367 13.5972 3.0465 14.245 1.02716 14.245C0.67836 14.245 0.337139 14.2262 0 14.1876C1.90792 15.3302 4.1734 16 6.60512 16C14.529 16 18.864 9.84496 18.864 4.50538C18.864 4.33048 18.8582 4.15614 18.8494 3.984C19.6952 3.41903 20.4243 2.70621 21 1.89186Z" fill="white"/>
</svg>
