<svg width="26" height="15" viewBox="0 0 26 15" fill="none" xmlns="http://www.w3.org/2000/svg">
<path d="M24.0335 12.4649V10.267H26V4.19355H24.0335V1.9956C24.0335 0.896552 23.137 0 22.0379 0H1.9956C0.896552 0 0 0.8965 0 1.9956V12.465C0 13.5641 0.8965 14.4606 1.9956 14.4606H22.009C23.1369 14.4606 24.0334 13.5641 24.0334 12.465L24.0335 12.4649ZM1.93781 13.4482C1.41734 13.4482 0.983418 13.0144 0.983418 12.4938V1.93761C0.983418 1.41713 1.41715 0.983212 1.93781 0.983212L22.0668 0.983414C22.5873 0.983414 23.0212 1.41715 23.0212 1.93781V12.494C23.0212 13.0145 22.5875 13.4484 22.0668 13.4484H1.93781V13.4482Z" fill="white"/>
<path d="M2.63192 1.53278C1.96679 1.53278 1.41724 2.08233 1.41724 2.74746V11.7419C1.41724 12.407 1.96679 12.9566 2.63192 12.9566H10.4695V1.53278H2.63192Z" fill="white"/>
<rect x="3" y="1" width="1" height="12" fill="#070707"/>
<rect x="5" y="1" width="1" height="12" fill="#070707"/>
<rect x="7" y="1" width="1" height="12" fill="#070707"/>
<rect x="9" y="1" width="2" height="12" fill="#070707"/>
</svg>
