<svg width="79" height="62" viewBox="0 0 79 62" fill="none" xmlns="http://www.w3.org/2000/svg">
<path d="M70.5357 0H8.46429C3.79764 0 0 3.79327 0 8.45455V53.5455C0 58.2067 3.79764 62 8.46429 62H70.5357C75.2024 62 79 58.2067 79 53.5455V8.45455C79 3.79327 75.2024 0 70.5357 0ZM41.1961 30.4364C40.1972 31.1831 38.8035 31.1862 37.9911 30.5855L9.89289 5.63568H69.1123L41.1979 30.4357L41.1961 30.4364ZM23.1986 24.9831L5.64608 51.2824V9.40741L23.1986 24.9831ZM27.4591 28.7625L34.4251 34.9456C35.8951 36.0477 37.6559 36.6058 39.4389 36.6058C41.281 36.6058 43.1521 36.0082 44.7656 34.7967L51.554 28.7683L69.969 56.3607H9.03421L27.4557 28.7603L27.4591 28.7625ZM55.812 24.9887L73.3613 9.40693V51.2819L55.812 24.9887Z" fill="black"/>
</svg>
