<svg width="24" height="24" viewBox="0 0 24 24" fill="none" xmlns="http://www.w3.org/2000/svg">
<path d="M11.8921 19.1676C13.8217 19.1676 15.6722 18.401 17.0366 17.0366C18.401 15.6721 19.1677 13.8216 19.1677 11.892C19.1677 9.96238 18.401 8.11189 17.0366 6.74746C15.6722 5.38304 13.8217 4.61639 11.8921 4.61639C9.96244 4.61639 8.11195 5.38304 6.74753 6.74746C5.3831 8.11189 4.61646 9.96238 4.61646 11.892C4.61848 13.8209 5.38565 15.6704 6.74956 17.0344C8.11363 18.3983 9.96309 19.1655 11.8919 19.1675L11.8921 19.1676ZM11.8921 5.82576C13.501 5.82576 15.0439 6.46486 16.1815 7.60253C17.3191 8.74019 17.9583 10.2831 17.9583 11.892C17.9583 13.5009 17.3192 15.0438 16.1815 16.1814C15.0438 17.319 13.501 17.9582 11.8921 17.9582C10.2832 17.9582 8.74025 17.3191 7.60263 16.1814C6.46501 15.0437 5.82586 13.5009 5.82586 11.892C5.82755 10.2836 6.46734 8.74166 7.60449 7.60434C8.74181 6.46719 10.2837 5.8274 11.8921 5.82571L11.8921 5.82576Z" fill="white"/>
<path d="M11.2874 0.604682V3.02341C11.2874 3.3573 11.5581 3.62809 11.892 3.62809C12.2259 3.62809 12.4967 3.3573 12.4967 3.02341V0.604682C12.4967 0.270621 12.2259 0 11.892 0C11.5581 0 11.2874 0.270621 11.2874 0.604682Z" fill="white"/>
<path d="M4.33835 3.48301C4.10215 3.24663 3.71916 3.24663 3.48294 3.48301C3.24657 3.71921 3.24657 4.1022 3.48294 4.33841L4.62299 5.47846C4.85919 5.71466 5.24218 5.71466 5.47839 5.47846C5.71461 5.24225 5.7146 4.85926 5.47839 4.62305L4.33835 3.48301Z" fill="white"/>
<path d="M0.604682 11.2874C0.270621 11.2874 0 11.5581 0 11.892C0 12.2259 0.270621 12.4967 0.604682 12.4967H3.02341C3.3573 12.4967 3.62809 12.2259 3.62809 11.892C3.62809 11.5581 3.3573 11.2874 3.02341 11.2874H0.604682Z" fill="white"/>
<path d="M4.62299 18.3055L3.48294 19.4456C3.24657 19.6818 3.24657 20.0647 3.48294 20.301C3.71915 20.5373 4.10214 20.5373 4.33835 20.301L5.47839 19.1609C5.7146 18.9247 5.7146 18.5417 5.47839 18.3055C5.24219 18.0693 4.8592 18.0693 4.62299 18.3055Z" fill="white"/>
<path d="M11.2874 20.7606V23.1793C11.2874 23.5134 11.5581 23.784 11.892 23.784C12.2259 23.784 12.4967 23.5134 12.4967 23.1793V20.7606C12.4967 20.4267 12.2259 20.1559 11.892 20.1559C11.5581 20.1559 11.2874 20.4267 11.2874 20.7606Z" fill="white"/>
<path d="M19.1604 18.3055C18.923 18.0765 18.5457 18.0799 18.3127 18.3132C18.0796 18.5466 18.0764 18.9238 18.3056 19.1609L19.4465 20.3009C19.6839 20.53 20.061 20.5267 20.2941 20.2932C20.5273 20.0598 20.5303 19.6827 20.3011 19.4455L19.1604 18.3055Z" fill="white"/>
<path d="M23.1792 12.4967C23.5132 12.4967 23.7839 12.2259 23.7839 11.892C23.7839 11.5581 23.5132 11.2874 23.1792 11.2874H20.7604C20.4266 11.2874 20.1558 11.5581 20.1558 11.892C20.1558 12.2259 20.4266 12.4967 20.7604 12.4967H23.1792Z" fill="white"/>
<path d="M19.4467 3.483L18.3059 4.62304C18.1893 4.73558 18.1226 4.89046 18.1211 5.05259C18.1196 5.21473 18.1834 5.37079 18.2979 5.4855C18.4127 5.60023 18.5686 5.664 18.7307 5.66282C18.893 5.66147 19.0479 5.595 19.1606 5.47842L20.3013 4.33838C20.5306 4.10116 20.5275 3.72406 20.2944 3.49074C20.0612 3.25724 19.6841 3.25386 19.4467 3.48298L19.4467 3.483Z" fill="white"/>
</svg>
