<svg width="79" height="84" viewBox="0 0 79 84" fill="none" xmlns="http://www.w3.org/2000/svg">
<path fill-rule="evenodd" clip-rule="evenodd" d="M18.4282 0C15.0202 0 12.0988 2.20951 11.0043 5.25242H7.90247C3.57038 5.25242 0 8.81193 0 13.1298V76.1226C0 80.4403 3.57083 84 7.90247 84H71.0999C75.432 84 79 80.4405 79 76.1226V13.1298C79 8.81208 75.432 5.25242 71.0999 5.25242H36.3984C35.3009 2.20966 32.3719 0 28.9639 0L18.4282 0ZM18.4282 5.25242H28.964C30.4682 5.25242 31.5998 6.37801 31.5998 7.87743L31.6004 65.6201C31.6004 67.1196 30.4689 68.2451 28.9646 68.2451H18.4282C16.924 68.2451 15.7948 67.1196 15.7948 65.6201V7.93293C15.7954 7.91418 15.7954 7.89543 15.7948 7.87668C15.7948 6.37726 16.924 5.25167 18.4282 5.25167L18.4282 5.25242ZM7.90247 10.5024H10.5358V65.6201C10.5358 69.9373 14.0973 73.4976 18.4282 73.4976H28.964C33.2949 73.4976 36.8665 69.9375 36.8665 65.6201L36.8671 10.5024H71.1007C72.5861 10.5024 73.734 11.6491 73.734 13.1298V76.1226C73.734 77.6032 72.5861 78.7476 71.1007 78.7476H7.9032C6.41783 78.7476 5.26985 77.6032 5.26985 76.1226V13.1298C5.26985 11.6492 6.41783 10.5024 7.9032 10.5024H7.90247ZM44.7694 15.7549C44.0729 15.7549 43.4045 16.0302 42.9113 16.5201C42.4176 17.0099 42.139 17.675 42.136 18.3693V28.8717C42.1354 29.5684 42.4129 30.237 42.9066 30.7298C43.4004 31.2226 44.0705 31.4991 44.7694 31.4991H65.8317C66.5306 31.4991 67.2007 31.2226 67.6945 30.7298C68.1882 30.237 68.4656 29.5685 68.4651 28.8717V18.3693C68.4621 17.675 68.1835 17.0099 67.6898 16.5201C67.1966 16.0303 66.5283 15.7549 65.8317 15.7549H44.7694ZM47.4028 20.9972H63.1969V26.2472H47.4028V20.9972ZM44.7 36.7497C44.0135 36.7673 43.3604 37.0515 42.8814 37.5419C42.4017 38.0323 42.1337 38.6897 42.1337 39.3747C42.1337 40.0708 42.4111 40.7388 42.9049 41.231C43.3986 41.7232 44.0687 41.9997 44.767 41.9997C45.4653 41.9997 46.1354 41.7232 46.6292 41.231C47.1229 40.7388 47.4004 40.0708 47.4004 39.3747C47.4004 38.6786 47.1229 38.0107 46.6292 37.5185C46.1354 37.0263 45.4653 36.7497 44.767 36.7497L44.7 36.7497ZM55.2335 36.7497C54.5469 36.7673 53.8939 37.0515 53.4148 37.5419C52.9351 38.0323 52.6671 38.6897 52.6671 39.3747C52.6671 40.0708 52.9445 40.7388 53.4383 41.231C53.932 41.7232 54.6021 41.9997 55.3004 41.9997C55.9988 41.9997 56.6689 41.7232 57.1626 41.231C57.6564 40.7388 57.9338 40.0708 57.9338 39.3747C57.9338 38.6786 57.6564 38.0107 57.1626 37.5185C56.6689 37.0263 55.9988 36.7497 55.3004 36.7497L55.2335 36.7497ZM65.7669 36.7497C65.0803 36.7673 64.4273 37.0515 63.9482 37.5419C63.4686 38.0323 63.2005 38.6897 63.2005 39.3747C63.2005 40.0708 63.478 40.7388 63.9717 41.231C64.4654 41.7232 65.1356 41.9997 65.8339 41.9997C66.5322 41.9997 67.2023 41.7232 67.696 41.231C68.1898 40.7388 68.4672 40.0708 68.4672 39.3747C68.4672 38.6786 68.1898 38.0107 67.696 37.5185C67.2023 37.0263 66.5322 36.7497 65.8339 36.7497L65.7669 36.7497ZM44.7 47.2497C44.0135 47.2667 43.3604 47.5509 42.8814 48.0413C42.4017 48.5317 42.1337 49.1898 42.1337 49.8742C42.1337 50.5709 42.4111 51.2382 42.9049 51.7304C43.3986 52.2226 44.0687 52.4992 44.767 52.4992C45.4653 52.4992 46.1354 52.2226 46.6292 51.7304C47.1229 51.2382 47.4004 50.5709 47.4004 49.8742C47.4004 49.1781 47.1229 48.5107 46.6292 48.0185C46.1354 47.5263 45.4653 47.2498 44.767 47.2498C44.7447 47.2492 44.7224 47.2491 44.7 47.2497ZM55.2335 47.2497C54.5469 47.2667 53.8939 47.5509 53.4148 48.0413C52.9351 48.5317 52.6671 49.1898 52.6671 49.8742C52.6671 50.5709 52.9445 51.2382 53.4383 51.7304C53.932 52.2226 54.6021 52.4992 55.3004 52.4992C55.9988 52.4992 56.6689 52.2226 57.1626 51.7304C57.6564 51.2382 57.9338 50.5709 57.9338 49.8742C57.9338 49.1781 57.6564 48.5107 57.1626 48.0185C56.6689 47.5263 55.9988 47.2498 55.3004 47.2498C55.2781 47.2492 55.2558 47.2491 55.2335 47.2497ZM65.7669 47.2497C65.0803 47.2667 64.4273 47.5509 63.9482 48.0413C63.4686 48.5317 63.2005 49.1898 63.2005 49.8742C63.2005 50.5709 63.478 51.2382 63.9717 51.7304C64.4654 52.2226 65.1356 52.4992 65.8339 52.4992C66.5322 52.4992 67.2023 52.2226 67.696 51.7304C68.1898 51.2382 68.4672 50.5709 68.4672 49.8742C68.4672 49.1781 68.1898 48.5107 67.696 48.0185C67.2023 47.5263 66.5322 47.2498 65.8339 47.2498C65.8115 47.2492 65.7892 47.2491 65.7669 47.2497ZM44.7 57.7492C44.0135 57.7667 43.3604 58.0509 42.8814 58.5413C42.4017 59.0318 42.1337 59.6892 42.1337 60.3742C42.1337 61.0703 42.4111 61.7377 42.9049 62.2304C43.3986 62.7226 44.0687 62.9992 44.767 62.9992C45.4653 62.9992 46.1354 62.7226 46.6292 62.2304C47.1229 61.7377 47.4004 61.0703 47.4004 60.3742C47.4004 59.6781 47.1229 59.0101 46.6292 58.5179C46.1354 58.0258 45.4653 57.7492 44.767 57.7492L44.7 57.7492ZM55.2335 57.7492C54.5469 57.7667 53.8939 58.0509 53.4148 58.5413C52.9351 59.0318 52.6671 59.6892 52.6671 60.3742C52.6671 61.0703 52.9445 61.7377 53.4383 62.2304C53.932 62.7226 54.6021 62.9992 55.3004 62.9992C55.9988 62.9992 56.6689 62.7226 57.1626 62.2304C57.6564 61.7377 57.9338 61.0703 57.9338 60.3742C57.9338 59.6781 57.6564 59.0101 57.1626 58.5179C56.6689 58.0258 55.9988 57.7492 55.3004 57.7492L55.2335 57.7492ZM65.7669 57.7492C65.0803 57.7667 64.4273 58.0509 63.9482 58.5413C63.4686 59.0318 63.2005 59.6892 63.2005 60.3742C63.2005 61.0703 63.478 61.7377 63.9717 62.2304C64.4654 62.7226 65.1356 62.9992 65.8339 62.9992C66.5322 62.9992 67.2023 62.7226 67.696 62.2304C68.1898 61.7377 68.4672 61.0703 68.4672 60.3742C68.4672 59.6781 68.1898 59.0101 67.696 58.5179C67.2023 58.0258 66.5322 57.7492 65.8339 57.7492L65.7669 57.7492Z" fill="black"/>
</svg>
