<svg width="86" height="151" viewBox="0 0 86 151" fill="none" xmlns="http://www.w3.org/2000/svg">
<path d="M68.9351 62.3318H53.2763V55.4088C54.8663 54.6161 56.3187 53.5701 57.5767 52.3132C60.6264 49.2262 62.3216 45.0421 62.2817 40.6936L62.1465 23.8609C63.6942 22.7531 65.0018 21.3398 65.987 19.7072C70.2052 12.6216 66.907 3.41745 66.7718 3.14595C66.5025 2.41509 65.9327 1.83452 65.2083 1.55456C64.4839 1.27337 63.6738 1.31943 62.9856 1.6794L56.5217 5.07324L55.9265 2.14134C55.7152 1.15958 54.9812 0.375413 54.0177 0.102708C53.0555 -0.17121 52.0209 0.112405 51.3291 0.838414C47.275 3.62488 42.6581 5.47927 37.8072 6.26831H33.3727C30.4751 6.22468 27.6814 7.34945 25.6181 9.39035C23.5536 11.4314 22.392 14.2189 22.392 17.1281V40.8838C22.3968 44.12 23.3614 47.2808 25.1627 49.9644C26.964 52.6491 29.52 54.7325 32.5069 55.9519V62.3586H17.0642C12.544 62.3586 8.2074 64.1597 5.0079 67.3668C1.80839 70.5739 0.00713077 74.9237 2.21318e-05 79.4628V119.371C-0.00601434 122.436 1.22302 125.374 3.40691 127.516C5.50037 129.597 8.33165 130.759 11.2774 130.747H15.4149V148.285C15.4149 149.784 16.6259 151 18.1193 151C19.6128 151 20.8237 149.784 20.8237 148.285V130.34C28.6265 129.667 36.1929 127.305 42.9996 123.417C50.1505 126.177 57.4557 128.515 64.8784 130.421V148.177C64.8784 149.677 66.0881 150.892 67.5828 150.892C69.0762 150.892 70.2871 149.677 70.2871 148.177V131.616L72.9915 132.078V132.077C73.5396 132.117 74.0914 132.117 74.6407 132.077C77.3487 132.103 79.9734 131.137 82.0235 129.362C83.0678 128.356 83.1366 126.701 82.1804 125.611C81.2242 124.52 79.5811 124.378 78.4533 125.289C77.1784 126.409 75.4797 126.916 73.8027 126.675C55.9539 123.96 28.6412 111.769 21.9066 108.647V102.348C36.7636 104.31 51.3685 107.859 65.4733 112.936C65.7908 113.067 66.1312 113.131 66.4741 113.126C67.0138 113.128 67.5414 112.968 67.9893 112.665C68.7342 112.159 69.1797 111.314 69.1785 110.411V105.634H80.5913V118.882C80.5913 120.382 81.8022 121.597 83.2956 121.597C84.7891 121.597 86 120.382 86 118.882V79.4334C85.9928 74.8943 84.1914 70.5445 80.9921 67.3374C77.7926 64.1304 73.456 62.3292 68.9359 62.3292L68.9351 62.3318ZM27.8286 40.829V17.0734C27.8286 15.6335 28.3985 14.2517 29.4126 13.2337C30.4267 12.2156 31.8019 11.6435 33.2374 11.6435H37.8348C42.6532 11.0883 47.3084 9.55513 51.5183 7.13727L52.0326 9.66193C52.2041 10.4946 52.7546 11.1976 53.52 11.5624C54.2782 11.9406 55.168 11.9406 55.9262 11.5624L62.4977 8.08757C63.1605 11.0776 62.7693 14.206 61.3894 16.9377C59.4203 19.7314 56.2764 21.456 52.8708 21.6077C52.1536 21.7083 51.5053 22.0913 51.0695 22.6719C50.6336 23.2524 50.4441 23.9821 50.5455 24.702C50.7544 26.2025 52.1343 27.2473 53.6278 27.0376C54.7035 26.8837 55.7695 26.6655 56.8186 26.3855V40.8027C56.8186 43.6825 55.6789 46.4448 53.6506 48.4809C51.6224 50.5183 48.8709 51.6625 46.0011 51.6625H38.6462C35.7812 51.6625 33.0347 50.522 31.0062 48.4905C28.9779 46.4603 27.8358 43.7041 27.8287 40.8294L27.8286 40.829ZM12.3049 125.262H11.3584C9.79609 125.312 8.28575 124.701 7.193 123.579C6.05933 122.463 5.41705 120.938 5.40861 119.344V105.634H16.5775V110.411C16.5654 110.537 16.5654 110.666 16.5775 110.792C16.5498 110.989 16.5498 111.191 16.5775 111.389C16.6415 111.548 16.7333 111.696 16.848 111.823C16.9156 111.981 17.0073 112.128 17.1184 112.257C17.3743 112.477 17.646 112.677 17.9297 112.855C18.5793 113.181 26.0428 116.737 36.0756 120.755L36.0768 120.756C28.5781 123.99 20.4625 125.529 12.3049 125.262V125.262ZM69.2574 100.204V88.0676C69.2574 86.5683 68.0477 85.3527 66.5531 85.3527C65.0596 85.3527 63.8487 86.5683 63.8487 88.0676V106.529C50.2242 102.01 36.2084 98.7735 21.985 96.8647V88.0676C21.985 86.5683 20.7741 85.3527 19.2806 85.3527C17.7872 85.3527 16.5762 86.5683 16.5762 88.0676V100.204H5.40734V79.4341C5.41459 76.3349 6.64604 73.3653 8.83123 71.1778C11.0165 68.9889 13.9767 67.7598 17.0627 67.7598H33.0185C33.6765 69.8566 35.0191 71.6699 36.83 72.9061C38.6409 74.1423 40.8142 74.7302 42.9981 74.5739C44.4916 74.5739 45.7025 73.3582 45.7025 71.8589C45.7025 70.3596 44.4916 69.144 42.9981 69.144C41.7727 69.3221 40.5292 68.9682 39.5792 68.1707C38.629 67.372 38.0628 66.206 38.0217 64.9636V57.0903H46.1349C46.7385 57.1315 47.3446 57.1315 47.947 57.0903V65.2351C47.947 65.9551 48.232 66.6447 48.739 67.155C49.2461 67.664 49.9343 67.9501 50.6514 67.9501H69.0146C72.1005 67.9501 75.0619 69.1791 77.2473 71.3669C79.4313 73.5558 80.6628 76.5253 80.6699 79.6244V100.394L69.2574 100.204Z" fill="black"/>
</svg>
