<svg width="147" height="161" viewBox="0 0 147 161" fill="none" xmlns="http://www.w3.org/2000/svg">
<path d="M146.979 47.4894C146.555 41.0137 141.222 35.9418 134.84 35.9418C131.89 35.9477 129.047 37.0364 126.856 38.9964C120.376 32.7144 112.285 27.3029 103.328 23.281C93.173 18.7196 82.6138 16.31 72.7951 16.31V16.3088C70.0864 16.3334 67.3813 16.5004 64.6902 16.8088C64.8244 15.8521 64.8609 14.8838 64.7961 13.9201C64.2852 6.11394 57.8638 0 50.1793 0C42.4947 0 36.0723 6.11365 35.5624 13.9165H35.5612C35.3788 17.4872 36.4629 21.0092 38.6266 23.8685L39.0351 24.4105C35.4164 26.4418 31.931 28.6974 28.5971 31.162C25.8755 28.2803 22.0755 26.6403 18.0955 26.6275C10.4098 26.6275 3.98852 32.7435 3.47863 40.544C3.29499 44.1159 4.38034 47.6378 6.544 50.4972L8.90186 53.6253C3.31506 64.2875 0.000163034 77.2695 0.000163034 88.6117C-0.0269118 101.309 3.31867 113.788 9.70105 124.794C16.0837 135.8 25.2762 144.941 36.3522 151.297C47.4293 157.654 59.9991 161 72.7949 161C85.5907 161 98.1605 157.654 109.238 151.297C120.314 144.941 129.506 135.8 135.889 124.794C142.271 113.79 145.617 101.31 145.59 88.6117C145.59 80.5612 143.524 68.4879 140.825 60.5344L144.436 55.743C146.251 53.3823 147.153 50.4538 146.979 47.4892L146.979 47.4894ZM39.5097 14.1746C39.8393 9.13779 43.9218 3.92482 50.1806 3.92482C56.4394 3.92482 60.5207 9.13689 60.8515 14.1794C60.9975 16.8181 60.1865 19.4229 58.5643 21.5185L50.1807 32.6468L41.8112 21.5385C40.2008 19.4255 39.3862 16.8207 39.5098 14.1749L39.5097 14.1746ZM7.42753 40.8023C7.75715 35.7654 11.8396 30.5524 18.0973 30.5524C24.3564 30.5524 28.4373 35.7645 28.7682 40.807L28.7694 40.8082C28.9165 43.4469 28.1043 46.0505 26.4822 48.1473L18.0973 59.2756L9.7287 48.1661C8.11832 46.0542 7.30491 43.4483 7.42735 40.8025L7.42753 40.8023ZM11.5546 57.146L16.5152 63.727C16.8883 64.2235 17.4757 64.5143 18.0996 64.5143C18.7223 64.5143 19.3097 64.2234 19.6829 63.727L29.6487 50.4986C31.4132 48.2161 32.4727 45.4746 32.6987 42.6069C32.9235 39.7393 32.3055 36.8682 30.9188 34.3414C34.269 31.8616 37.7794 29.6048 41.4297 27.584L48.5974 37.0979C48.9706 37.5931 49.558 37.8852 50.1807 37.8852C50.8046 37.8852 51.392 37.5931 51.7652 37.0979L61.7322 23.8694C62.4279 22.9478 63.02 21.9538 63.4979 20.9037C64.3196 20.7997 65.1412 20.7016 65.9499 20.621L74.2559 32.5122C75.2188 33.8835 75.7143 35.5234 75.672 37.195C75.6296 38.8653 75.0504 40.4783 74.0204 41.8006L71.6743 44.8235C70.5089 46.3186 68.6361 47.0907 66.7457 46.856L64.0841 46.5184H64.0853C62.21 46.2801 60.3054 46.5932 58.6079 47.4202C56.9104 48.2472 55.4967 49.5507 54.5396 51.1685C54.0016 52.0808 53.2047 52.8143 52.2488 53.2804C51.293 53.7476 50.2206 53.924 49.1636 53.7908L43.0187 53.0152H43.0198C41.1811 52.7781 39.3141 53.0549 37.625 53.813C35.9369 54.5711 34.4948 55.7812 33.4615 57.3069C32.4939 58.7249 31.9641 60.3916 31.9382 62.1042C31.9112 63.8166 32.3891 65.4987 33.312 66.9458L37.3709 73.3118C38.8907 75.683 41.5287 77.1163 44.3596 77.1115C45.7098 77.1127 47.0388 76.781 48.2278 76.1479L52.4067 73.9238C54.4538 72.834 57.7792 72.8235 60.1759 73.8035H60.1771C60.4054 76.7424 61.4672 79.5574 63.2388 81.9239L73.207 95.1572C73.5802 95.6524 74.1676 95.9445 74.7915 95.9445C75.4142 95.9445 76.0016 95.6524 76.3747 95.1572L81.4306 88.4467L82.0733 89.3204C82.3452 89.6977 82.6372 90.068 82.9409 90.4231L88.0169 96.3558V96.3546C88.4736 96.8896 88.6902 97.5858 88.616 98.2831C88.5419 98.9805 88.1828 99.6159 87.6225 100.043L79.9311 105.913C77.884 107.469 76.3784 109.62 75.6238 112.066L73.0599 120.326C72.8575 120.978 72.5279 121.583 72.0888 122.106L69.5944 125.086V125.087C67.7356 127.303 66.5855 130.017 66.29 132.885C66.1429 134.305 65.2259 135.533 63.8992 136.086C63.3459 136.316 62.7173 136.282 62.1923 135.993C61.6673 135.706 61.3047 135.196 61.207 134.608L58.8574 120.604H58.8562C58.5631 118.863 57.8474 117.22 56.7715 115.816L48.1618 104.603C47.3872 103.598 46.8163 102.454 46.4761 101.235L43.6344 91.0535C42.6126 87.4254 39.7496 84.593 36.09 83.5919L35.472 83.4248C34.2218 83.0849 33.0753 82.446 32.1312 81.5652L26.8316 76.6091C25.9875 75.8195 25.2636 74.9131 24.6821 73.9179C23.4484 71.8083 21.5814 70.1334 19.3424 69.1265C17.1034 68.1208 14.603 67.8335 12.1912 68.3054C12.1147 68.3206 12.0382 68.3404 11.9629 68.3638L6.65272 70.0774V70.0785C7.89227 65.6293 9.53206 61.3014 11.5557 57.1455L11.5546 57.146ZM64.1197 72.2329C64.4493 67.196 68.5318 61.9831 74.7895 61.9831C81.0486 61.9831 85.1295 67.1951 85.4604 72.2377H85.4616C85.6087 74.8775 84.7977 77.4811 83.1744 79.5767L74.7907 90.7051L66.4212 79.5968C64.8108 77.4837 63.9974 74.879 64.121 72.2332L64.1197 72.2329ZM141.634 88.6128C141.635 126.317 110.754 156.989 72.7957 156.989C34.8372 156.989 3.95744 126.314 3.95744 88.6098C3.98922 83.8848 4.5213 79.1775 5.5419 74.5623L13.0676 72.1327C14.6568 71.8454 16.2966 72.0521 17.7633 72.7238C19.2301 73.3954 20.452 74.4993 21.2617 75.8857C22.0351 77.2103 22.998 78.4146 24.1211 79.4648L29.4207 84.4197V84.4185C30.8368 85.7408 32.5578 86.6974 34.4331 87.2079L35.0511 87.3749C37.3666 88.0092 39.1781 89.8022 39.8233 92.0987L42.665 102.282C43.1382 103.983 43.9364 105.579 45.0158 106.983L53.6255 118.195C54.3118 119.091 54.7685 120.139 54.9557 121.25L57.3053 135.254C57.5996 137.026 58.6944 138.566 60.2789 139.434C61.8633 140.302 63.761 140.401 65.429 139.704C66.7345 139.161 67.8693 138.278 68.7131 137.148C69.556 136.02 70.0775 134.686 70.2234 133.288C70.4389 131.193 71.2794 129.211 72.6354 127.592L75.1298 124.612H75.131C75.9032 123.691 76.4848 122.625 76.8391 121.479L79.4018 113.22C79.9162 111.552 80.9439 110.084 82.3388 109.023L90.0351 103.153C91.4524 102.072 92.3624 100.46 92.5507 98.6948C92.739 96.9299 92.1905 95.1648 91.0333 93.8123L85.9573 87.8796C85.7242 87.6062 85.4994 87.3212 85.2804 87.0187L83.9102 85.1544L86.3434 81.9258V81.927C88.5318 79.0804 89.6194 75.5493 89.4088 71.9762C88.8979 64.171 82.4764 58.0561 74.7919 58.0561C67.8466 58.0561 61.9374 63.0496 60.4836 69.7685C57.1983 68.8072 53.2653 69.0162 50.5389 70.4658L46.3601 72.6898C44.3777 73.7353 41.9199 73.0928 40.7133 71.2146L36.6544 64.8473C36.1435 64.046 35.8786 63.1139 35.8928 62.1654C35.9081 61.2157 36.2012 60.293 36.7368 59.5069C37.363 58.5829 38.2353 57.8505 39.2571 57.3915C40.2789 56.9336 41.4089 56.7666 42.5214 56.9102L48.6663 57.6846C50.4909 57.9159 52.3425 57.6099 53.9942 56.8051C55.6446 56.0003 57.0207 54.7317 57.9507 53.1572C58.5145 52.2017 59.3491 51.432 60.3509 50.9437C61.3527 50.4543 62.4769 50.2697 63.5844 50.4099L66.2448 50.7475C69.5281 51.1563 72.7851 49.813 74.8087 47.2153L77.1548 44.1924C78.6992 42.2125 79.5668 39.7946 79.6304 37.2903C79.6939 34.7871 78.95 32.3282 77.5079 30.2735L70.5286 20.2842C71.329 20.2515 72.0895 20.2316 72.7969 20.2316C82.0588 20.2316 92.0529 22.5211 101.7 26.8545C104.721 28.2153 107.66 29.756 110.496 31.4661L105.183 40.5025C104.422 41.8283 104.095 43.3561 104.248 44.8746C104.403 46.3943 105.029 47.8275 106.04 48.977C107.567 50.7116 109.685 51.8271 111.989 52.1075L112.952 52.2255C113.885 52.34 114.764 52.7207 115.482 53.3212C116.201 53.9227 116.729 54.717 117.001 55.6094C117.258 56.4574 117.265 57.3604 117.022 58.2119C116.779 59.0646 116.295 59.8297 115.628 60.4172L106.088 68.7877H106.087C104.132 70.5047 103.011 72.9717 103.011 75.5636V77.7853C103.005 80.4591 104.373 82.9529 106.641 84.4002C107.765 85.1162 108.496 86.3041 108.625 87.624L108.849 89.841H108.848C109.023 91.6364 109.866 93.302 111.214 94.5133C112.56 95.7235 114.314 96.3928 116.132 96.3881H121.716C124.029 96.3869 126.292 95.7176 128.228 94.4619C130.165 93.2063 131.69 91.4178 132.619 89.3153L132.954 88.5561V88.5573C133.283 87.8038 133.818 87.159 134.5 86.6942C135.182 86.2304 135.981 85.9653 136.807 85.9302L138.117 85.8718C138.331 85.8625 138.544 85.8473 138.756 85.8263L141.541 85.5483C141.603 86.6229 141.636 87.6508 141.636 88.6097L141.634 88.6128ZM141.211 81.6347L138.358 81.9197C138.219 81.9337 138.079 81.943 137.938 81.95L136.625 82.0096H136.626C135.062 82.0738 133.549 82.5749 132.259 83.4545C130.969 84.3341 129.954 85.5559 129.332 86.981L128.996 87.7402V87.7391C128.376 89.1431 127.357 90.338 126.064 91.1767C124.771 92.0154 123.26 92.4628 121.715 92.4639H116.131C114.398 92.4674 112.948 91.1627 112.782 89.4515L112.558 87.2333C112.312 84.7243 110.922 82.4653 108.784 81.1032C107.647 80.3767 106.961 79.1268 106.964 77.7846V75.5641C106.964 74.097 107.599 72.6999 108.705 71.7281L118.245 63.3577H118.246C119.479 62.2714 120.373 60.858 120.823 59.2834C121.273 57.7089 121.259 56.0396 120.784 54.4733C120.289 52.8531 119.332 51.4106 118.027 50.3206C116.722 49.2297 115.127 48.5393 113.434 48.3302L112.471 48.2123L112.47 48.2134C111.132 48.0499 109.901 47.4028 109.015 46.3947C108.052 45.3038 107.89 43.728 108.608 42.464L113.828 33.5843C117.59 36.084 121.114 38.9214 124.353 42.06C123.39 43.7199 122.825 45.5784 122.702 47.4892C122.549 50.4514 123.448 53.3729 125.242 55.7439L133.256 66.3771V66.3782C133.631 66.8735 134.217 67.1655 134.841 67.1655C135.464 67.1655 136.051 66.8735 136.424 66.3782L137.898 64.4228C139.472 70.061 140.581 75.8173 141.212 81.6346L141.211 81.6347ZM141.27 53.3905L134.839 61.9221L128.425 53.409C127.184 51.7842 126.556 49.7797 126.649 47.7427C126.903 43.8706 130.037 39.8651 134.841 39.8651C139.645 39.8651 142.78 43.8706 143.033 47.7472C143.145 49.7773 142.519 51.7793 141.27 53.3902L141.27 53.3905Z" fill="black"/>
</svg>
