<svg width="141" height="140" viewBox="0 0 141 140" fill="none" xmlns="http://www.w3.org/2000/svg">
<path d="M119.152 67.1855C112.765 67.1855 107.568 73.4202 107.568 81.0862C107.568 88.7522 112.765 94.9869 119.152 94.9869C125.54 94.9869 130.736 88.7522 130.736 81.0862C130.736 73.4202 125.54 67.1855 119.152 67.1855ZM119.152 90.3533C115.32 90.3533 112.202 86.1966 112.202 81.0862C112.202 75.9758 115.32 71.8191 119.152 71.8191C122.984 71.8191 126.103 75.9758 126.103 81.0862C126.103 86.1966 122.984 90.3533 119.152 90.3533Z" fill="black"/>
<path d="M137.687 94.9872H135.37V17.2467C137.742 15.8835 139.389 13.5377 139.865 10.8434C140.341 8.14797 139.597 5.38133 137.835 3.28803C136.072 1.19472 133.473 -0.00921353 130.736 5.35832e-05H10.2638C7.52707 -0.00925484 4.92804 1.19464 3.16543 3.28803C1.40283 5.38141 0.659394 8.14797 1.13514 10.8434C1.61091 13.5377 3.25747 15.8834 5.63022 17.2467V120.472C5.63022 121.086 5.87431 121.676 6.30871 122.11C6.7431 122.544 7.33264 122.789 7.947 122.789H68.1833V127.422H65.8665C64.8684 127.422 63.9831 128.06 63.6676 129.007L61.3508 135.957C61.116 136.663 61.234 137.44 61.6704 138.044C62.1058 138.648 62.805 139.006 63.5497 139.006H77.4504C78.195 139.006 78.8942 138.648 79.3297 138.044C79.7661 137.44 79.884 136.663 79.6492 135.957L77.3325 129.007C77.017 128.06 76.1317 127.422 75.1336 127.422H72.8168V122.789H98.3014V136.689C98.3014 137.304 98.5455 137.893 98.9799 138.327C99.4143 138.762 100.004 139.006 100.618 139.006H137.687C138.301 139.006 138.891 138.762 139.325 138.327C139.759 137.893 140.003 137.304 140.003 136.689V97.304C140.003 96.6896 139.759 96.1001 139.325 95.6657C138.891 95.2313 138.301 94.9872 137.687 94.9872ZM74.236 134.372H66.7622L67.5359 132.056H73.4623L74.236 134.372ZM10.2638 4.63282H130.736C132.392 4.63282 133.922 5.51608 134.749 6.9496C135.577 8.38311 135.577 10.1497 134.749 11.5832C133.922 13.0166 132.392 13.8999 130.736 13.8999H10.2638C8.6079 13.8999 7.07827 13.0167 6.25085 11.5832C5.42343 10.1496 5.42343 8.38309 6.25085 6.9496C7.07827 5.51611 8.60796 4.63282 10.2638 4.63282ZM10.2638 118.155V18.5335H130.736V94.9872H101.005L80.436 87.9169C78.9776 87.3087 77.3394 87.2912 75.8675 87.8673C74.3947 88.4434 73.2042 89.5676 72.5454 91.0043C71.8928 92.4544 71.8649 94.1072 72.4668 95.5778C73.0688 97.0485 74.2489 98.2069 75.731 98.7821L97.6472 107.853L98.3008 108.779V118.155L10.2638 118.155ZM135.37 134.372H102.935V108.045C102.935 107.567 102.787 107.101 102.511 106.71L101.049 104.624C100.795 104.267 100.444 103.987 100.039 103.819L77.5125 94.4958C77.0222 94.3179 76.6902 93.8587 76.6716 93.3374C76.6788 93.1771 76.7171 93.0199 76.7854 92.874C76.9674 92.5234 77.2808 92.2597 77.6573 92.1418C78.0337 92.0228 78.4423 92.059 78.7919 92.2421L99.8746 99.4935C100.115 99.5752 100.365 99.6186 100.618 99.6207H135.37L135.37 134.372Z" fill="black"/>
<path d="M91.351 25.4839H126.103V30.1174H91.351V25.4839Z" fill="black"/>
<path d="M91.351 34.751H126.103V39.3845H91.351V34.751Z" fill="black"/>
<path d="M91.351 44.0181H126.103V48.6516H91.351V44.0181Z" fill="black"/>
<path d="M91.351 53.2852H126.103V57.9187H91.351V53.2852Z" fill="black"/>
<path d="M51.9658 90.3538V94.9873H63.5497C64.1641 94.9873 64.7536 94.7432 65.188 94.3088C65.6224 93.8744 65.8665 93.2849 65.8665 92.6705V81.0866C65.8665 80.6522 65.7445 80.2272 65.5149 79.859L61.9279 74.125C68.0157 69.0871 71.8726 61.8532 72.6638 53.9907C73.455 46.1282 71.1165 38.2708 66.154 32.1219L70.9634 30.1175H84.4007V25.4839H70.5C70.1939 25.4839 69.8908 25.545 69.6085 25.6618L62.7201 28.532V28.533C57.1577 23.55 49.9415 20.8111 42.4741 20.8493C35.0056 20.8865 27.8183 23.6967 22.3057 28.7356C16.7931 33.7735 13.3489 40.6804 12.6425 48.1147C11.935 55.5491 14.0149 62.9813 18.4789 68.9689C22.9428 74.9565 29.4723 79.0706 36.7989 80.5155C44.1255 81.9603 51.7277 80.6313 58.1308 76.7869L61.2326 81.7514V90.3534L51.9658 90.3538ZM17.2141 50.9685C17.2028 44.6377 19.5526 38.5294 23.8057 33.8389C28.0577 29.1474 33.9055 26.211 40.2072 25.6031C46.5101 24.9949 52.8118 26.7584 57.883 30.5491L41.8072 37.2471L43.5913 41.5237L61.6622 33.9962H61.6612C65.3225 38.0618 67.5688 43.2032 68.0656 48.652H42.6988C41.4194 48.652 40.382 49.6894 40.382 50.9688V76.3355C34.0544 75.7522 28.1725 72.8294 23.8874 68.1368C19.6022 63.4452 17.2225 57.3234 17.2142 50.9688L17.2141 50.9685ZM45.0155 76.3353V53.2853H68.0654C67.4666 59.8043 64.3761 65.8404 59.4375 70.1377L53.931 61.3339L49.9925 63.7893L55.6687 72.8713C52.421 74.8085 48.7803 75.9917 45.0158 76.3351L45.0155 76.3353Z" fill="black"/>
<path d="M12.5806 83.4033H49.649V88.0369H12.5806V83.4033Z" fill="black"/>
<path d="M12.5806 92.6704H49.649V97.304H12.5806V92.6704Z" fill="black"/>
<path d="M12.5806 101.937H49.649V106.571H12.5806V101.937Z" fill="black"/>
<path d="M12.5806 111.205H49.649V115.838H12.5806V111.205Z" fill="black"/>
<path d="M77.4504 62.5522H98.3014V67.1858H77.4504V62.5522Z" fill="black"/>
<path d="M77.4504 69.5027H98.3014V74.1362H77.4504V69.5027Z" fill="black"/>
<path d="M77.4504 76.4529H98.3014V81.0864H77.4504V76.4529Z" fill="black"/>
<path d="M54.2826 97.304H70.5V101.938H54.2826V97.304Z" fill="black"/>
<path d="M54.2826 104.254H70.5V108.888H54.2826V104.254Z" fill="black"/>
<path d="M54.2826 111.205H70.5V115.838H54.2826V111.205Z" fill="black"/>
<path d="M128.42 127.422H133.053V132.056H128.42V127.422Z" fill="black"/>
<path d="M121.469 127.422H126.103V132.056H121.469V127.422Z" fill="black"/>
<path d="M128.42 120.472H133.053V125.105H128.42V120.472Z" fill="black"/>
</svg>
