<svg width="139" height="159" viewBox="0 0 139 159" fill="none" xmlns="http://www.w3.org/2000/svg">
<path d="M69.3784 0L0 39.5688V117.464L68.3138 158.63L138.757 117.464V39.5688L69.3784 0ZM129.885 107.528L104.689 94.2198V59.087L73.8141 41.5203V12.7756L129.885 44.7145L129.885 107.528ZM69.3784 49.1505L91.2031 61.5708L69.0233 73.9912L46.8434 61.926L69.3784 49.1505ZM42.9398 69.9117L64.4105 81.623V106.642L42.9398 93.6894V69.9117ZM73.2824 81.9769L95.8174 69.3781V93.865L73.2824 106.996V81.9769ZM64.9428 12.7759V41.5206L34.0682 59.0873V94.3976L8.87192 107.705V44.7148L64.9428 12.7759ZM13.4856 115.158L39.0358 101.85L68.8449 119.771L99.7195 101.672L125.271 115.157L68.4906 148.338L13.4856 115.158Z" fill="white"/>
</svg>
