<svg width="176" height="159" viewBox="0 0 176 159" fill="none" xmlns="http://www.w3.org/2000/svg">
<path d="M87.6935 158.63C86.9577 158.63 86.2366 158.434 85.6001 158.065L29.9735 125.963C28.6669 125.208 27.867 123.809 27.8815 122.3L28.0699 100.243C28.0699 97.9302 29.9428 96.0573 32.255 96.0573C33.3645 96.0573 34.4301 96.4982 35.2141 97.2836C35.9994 98.0675 36.4403 99.1331 36.4403 100.243L36.2724 119.872L83.5279 147.079L83.6958 90.488C83.6958 88.1772 85.5687 86.3029 87.881 86.3029C88.9904 86.3029 90.0561 86.7437 90.84 87.5291C91.6254 88.3145 92.0662 89.3786 92.0662 90.4881L91.8779 154.445C91.8779 155.556 91.437 156.62 90.6517 157.405C89.8678 158.189 88.8021 158.63 87.6927 158.63L87.6935 158.63Z" fill="white"/>
<path d="M88.0673 158.63C85.7565 158.63 83.8822 156.757 83.8822 154.445L83.6938 90.5106C83.6938 88.1983 85.5668 86.3254 87.879 86.3254C88.9885 86.3254 90.0541 86.7663 90.838 87.5502C91.6234 88.3356 92.0643 89.3998 92.0643 90.5107L92.2321 147.225L139.488 120.018L139.32 100.241C139.32 97.9286 141.194 96.0558 143.505 96.0558C144.616 96.0558 145.68 96.4967 146.465 97.282C147.249 98.0659 147.69 99.1316 147.69 100.241L147.879 122.341C147.893 123.849 147.093 125.249 145.787 126.004L90.16 158.064C89.5235 158.433 88.8024 158.629 88.0666 158.629L88.0673 158.63Z" fill="white"/>
<path d="M115.965 116.774C115.023 116.776 114.109 116.459 113.369 115.875L85.2843 93.7973C84.188 92.9374 83.5909 91.5886 83.6916 90.1989C83.7924 88.8091 84.5778 87.561 85.7865 86.869L141.413 54.7667C142.898 53.9068 144.755 54.0397 146.102 55.101L174.187 77.2212C175.264 78.0825 175.85 79.4196 175.749 80.7962C175.648 82.1728 174.876 83.4107 173.685 84.1071L118.058 116.209C117.422 116.579 116.699 116.774 115.965 116.774L115.965 116.774ZM95.3304 91.0338L116.258 107.546L164.138 79.9424L143.21 63.4305L95.3304 91.0338Z" fill="white"/>
<path d="M32.2537 62.5717C31.3121 62.5732 30.3983 62.255 29.6582 61.6725L1.57316 39.5523C0.495828 38.691 -0.0895484 37.3538 0.0111663 35.9772C0.111881 34.6006 0.884113 33.3627 2.07531 32.6664L57.7019 0.564023C59.1866 -0.295808 61.0434 -0.162953 62.3909 0.898318L90.4759 22.9763C91.5722 23.8361 92.1692 25.185 92.0685 26.5747C91.9678 27.9644 91.1824 29.2126 89.9737 29.9045L34.347 62.0069C33.7106 62.3763 32.988 62.5704 32.2537 62.5719V62.5717ZM11.6193 36.831L32.547 53.343L80.4267 25.7397L59.4989 9.22773L11.6193 36.831Z" fill="white"/>
<path d="M59.7963 116.774C59.062 116.774 58.3394 116.579 57.7029 116.21L2.07629 84.1072C0.88509 83.4108 0.112857 82.1729 0.0121428 80.7963C-0.0885719 79.4197 0.496807 78.0826 1.57414 77.2213L29.6591 55.1011C31.0065 54.0398 32.8634 53.907 34.3481 54.7668L89.9747 86.8691C91.1834 87.5611 91.9688 88.8092 92.0695 90.199C92.1703 91.5887 91.5732 92.9375 90.4769 93.7974L62.3919 115.875C61.6518 116.459 60.7379 116.776 59.7964 116.775L59.7963 116.774ZM11.6625 79.9421L59.4413 107.545L80.369 91.0334L32.6127 63.4301L11.6625 79.9421Z" fill="white"/>
<path d="M143.507 62.5717C142.773 62.5703 142.05 62.3761 141.414 62.0068L85.787 29.9044C84.5782 29.2125 83.7929 27.9643 83.6921 26.5746C83.5914 25.1848 84.1885 23.836 85.2848 22.9762L113.37 0.898185C114.717 -0.163074 116.574 -0.295925 118.059 0.563894L173.685 32.6663C174.877 33.3626 175.649 34.6005 175.749 35.9771C175.85 37.3537 175.265 38.6909 174.188 39.5522L146.102 61.6724C145.362 62.2548 144.449 62.5731 143.507 62.5716V62.5717ZM95.3732 25.7393L143.152 53.3426L164.08 36.8306L116.323 9.22734L95.3732 25.7393Z" fill="white"/>
<path d="M143.694 62.5717C142.959 62.5703 142.237 62.3761 141.602 62.0068L88.0679 31.1803L34.5341 62.0068C33.5706 62.6184 32.3999 62.8111 31.2918 62.5396C30.1839 62.2681 29.235 61.5572 28.6642 60.5689C28.0934 59.5821 27.9504 58.404 28.2686 57.3091C28.5854 56.2128 29.3372 55.2946 30.3474 54.7662L85.974 22.6417C87.2703 21.8943 88.8659 21.8943 90.1607 22.6417L145.787 54.7662C147.422 55.715 148.219 57.6434 147.729 59.4697C147.24 61.2973 145.586 62.5688 143.694 62.5718L143.694 62.5717Z" fill="white"/>
</svg>
