<svg width="181" height="159" viewBox="0 0 181 159" fill="none" xmlns="http://www.w3.org/2000/svg">
<path d="M176.657 3.77222e-05H3.60524C1.61432 3.77222e-05 0 1.61436 0 3.60528V111.762C0 112.719 0.37984 113.636 1.05582 114.312C1.7318 114.988 2.64921 115.368 3.60524 115.368H120.254C121.004 115.973 121.775 116.554 122.577 117.091V155.025C122.577 156.483 123.456 157.798 124.803 158.355C126.15 158.914 127.7 158.605 128.731 157.575L140.603 145.702L152.474 157.573V157.575C153.506 158.605 155.056 158.914 156.403 158.355C157.75 157.798 158.629 156.483 158.629 155.025V117.091C159.43 116.554 160.201 115.973 160.951 115.368H176.655C177.611 115.368 178.528 114.988 179.204 114.312C179.88 113.636 180.26 112.718 180.26 111.762V3.60524C180.26 2.64921 179.88 1.73179 179.204 1.05582C178.528 0.379848 177.611 0 176.655 0L176.657 3.77222e-05ZM140.604 115.368C133.911 115.368 127.492 112.709 122.76 107.976C118.027 103.244 115.368 96.8253 115.368 90.1311C115.368 83.4368 118.027 77.0187 122.76 72.2866C127.492 67.5532 133.91 64.8944 140.604 64.8944C147.299 64.8944 153.717 67.5532 158.449 72.2866C163.182 77.0183 165.841 83.4368 165.841 90.1311C165.833 96.8216 163.173 103.237 158.441 107.967C153.711 112.699 147.295 115.359 140.604 115.368ZM155.025 61.1078C144.977 56.0799 133.042 56.6188 123.488 62.5354C113.935 68.4501 108.133 78.8958 108.157 90.1318H39.2951C38.5821 86.6714 36.8696 83.4961 34.3717 80.9963C31.8722 78.4984 28.6969 76.7858 25.2363 76.073V39.2963C28.6966 38.5832 31.872 36.8708 34.3717 34.3729C36.8697 31.8734 38.5823 28.6981 39.2951 25.2375H140.967C141.68 28.6978 143.392 31.8732 145.89 34.3729C148.39 36.8709 151.565 38.5834 155.026 39.2963L155.025 61.1078ZM151.42 146.323L143.154 138.057V138.056C142.478 137.38 141.561 137 140.605 137C139.649 137 138.731 137.38 138.055 138.056L129.789 146.323V120.686C136.779 123.209 144.43 123.209 151.421 120.686L151.42 146.323ZM173.052 90.1311V108.157H167.565C171.917 101.674 173.776 93.8344 172.796 86.0882C171.817 78.3417 168.066 71.212 162.236 66.0163V36.0524C162.236 35.0964 161.856 34.179 161.18 33.503C160.504 32.8271 159.587 32.4472 158.631 32.4472C155.763 32.444 153.013 31.3029 150.985 29.2765C148.959 27.2486 147.818 24.4995 147.815 21.6314C147.815 20.6753 147.435 19.7579 146.759 19.0819C146.083 18.406 145.166 18.0261 144.21 18.0261H36.0523C34.0614 18.0261 32.447 19.6404 32.447 21.6314C32.4438 24.4994 31.3027 27.2485 29.2764 29.2765C27.2484 31.3029 24.4993 32.444 21.6312 32.4472C19.6403 32.4472 18.026 34.0615 18.026 36.0524V79.3153C18.026 80.2714 18.4058 81.1888 19.0818 81.8648C19.7578 82.5407 20.6752 82.9206 21.6312 82.9206C24.4993 82.9238 27.2484 84.0649 29.2764 86.0913C31.3027 88.1192 32.4438 90.8683 32.447 93.7364C32.447 94.6925 32.8269 95.6099 33.5029 96.2858C34.1788 96.9618 35.0963 97.3417 36.0523 97.3417H108.994C109.867 101.201 111.445 104.868 113.645 108.157H7.20995V7.21064H173.051L173.052 90.1311Z" fill="white"/>
<path d="M64.8943 39.6577H115.368C117.359 39.6577 118.973 38.0434 118.973 36.0525C118.973 34.0616 117.359 32.4473 115.368 32.4473H64.8943C62.9034 32.4473 61.2891 34.0616 61.2891 36.0525C61.2891 38.0434 62.9034 39.6577 64.8943 39.6577Z" fill="white"/>
<path d="M68.4996 75.7101H50.4734C48.4825 75.7101 46.8682 77.3244 46.8682 79.3153C46.8682 81.3062 48.4825 82.9206 50.4734 82.9206H68.4996C70.4905 82.9206 72.1049 81.3062 72.1049 79.3153C72.1049 77.3244 70.4905 75.7101 68.4996 75.7101Z" fill="white"/>
<path d="M100.947 75.7101H86.5257C84.5347 75.7101 82.9204 77.3244 82.9204 79.3153C82.9204 81.3062 84.5347 82.9206 86.5257 82.9206H100.947C102.938 82.9206 104.552 81.3062 104.552 79.3153C104.552 77.3244 102.938 75.7101 100.947 75.7101Z" fill="white"/>
<path d="M140.604 46.8682H39.6575C37.6666 46.8682 36.0522 48.4825 36.0522 50.4734C36.0522 52.4643 37.6666 54.0786 39.6575 54.0786H140.604C142.595 54.0786 144.209 52.4643 144.209 50.4734C144.209 48.4825 142.595 46.8682 140.604 46.8682Z" fill="white"/>
<path d="M111.762 61.2892H39.6575C37.6666 61.2892 36.0522 62.9035 36.0522 64.8944C36.0522 66.8853 37.6666 68.4997 39.6575 68.4997H111.762C113.753 68.4997 115.368 66.8853 115.368 64.8944C115.368 62.9035 113.753 61.2892 111.762 61.2892Z" fill="white"/>
<path d="M140.605 68.4996C134.867 68.4996 129.366 70.7786 125.308 74.8346C121.252 78.8921 118.973 84.3932 118.973 90.1311C118.973 95.869 121.252 101.37 125.308 105.428C129.366 109.484 134.867 111.763 140.605 111.763C146.342 111.763 151.843 109.484 155.901 105.428C159.957 101.37 162.236 95.869 162.236 90.1311C162.23 84.3965 159.949 78.8967 155.893 74.8428C151.839 70.7869 146.339 68.5062 140.605 68.4996ZM140.605 104.552C136.78 104.552 133.112 103.033 130.407 100.329C127.703 97.6232 126.184 93.9551 126.184 90.1311C126.184 86.3071 127.703 82.6388 130.407 79.9334C133.112 77.2295 136.781 75.7101 140.605 75.7101C144.429 75.7101 148.097 77.2295 150.802 79.9334C153.506 82.6389 155.026 86.3071 155.026 90.1311C155.021 93.9552 153.5 97.6201 150.797 100.324C148.093 103.026 144.429 104.547 140.605 104.552Z" fill="white"/>
</svg>
