<svg width="211" height="124" viewBox="0 0 211 124" fill="none" xmlns="http://www.w3.org/2000/svg">
<path d="M178.51 81.6426H171.812C170.005 81.6426 168.545 83.1018 168.545 84.9087C168.545 86.7157 170.005 88.1749 171.812 88.1749H178.51C180.317 88.1749 181.776 86.7157 181.776 84.9087C181.776 83.1034 180.315 81.6426 178.51 81.6426Z" fill="white"/>
<path d="M207.456 81.9243H200.758C198.951 81.9243 197.492 83.3836 197.492 85.1905C197.492 86.9974 198.951 88.4566 200.758 88.4566H207.456C209.263 88.4566 210.723 86.9974 210.723 85.1905C210.723 83.3851 209.263 81.9243 207.456 81.9243Z" fill="white"/>
<path d="M189.958 89.2649C188.151 89.2649 186.692 90.7241 186.692 92.5311V99.2291C186.692 101.036 188.151 102.495 189.958 102.495C191.765 102.495 193.224 101.036 193.224 99.2291V92.5311C193.224 90.7257 191.763 89.2649 189.958 89.2649Z" fill="white"/>
<path d="M189.897 79.8462C191.703 79.8462 193.163 78.3869 193.163 76.58V38.7545C193.163 37.3926 192.317 36.1741 191.043 35.6941L97.7738 0.838006C97.0354 0.560508 96.2221 0.560508 95.4869 0.838006L2.22154 35.6974C0.960069 36.171 0.118013 37.3671 0.098865 38.7115C0.0829171 40.0576 0.889887 41.2792 2.13703 41.7815L33.711 54.5878V105.001C33.711 118.056 66.3441 124 96.6623 124C126.983 124 159.613 118.056 159.613 105.001V55.3553L176.415 48.7544C178.097 48.0973 178.923 46.1995 178.26 44.5219C177.603 42.8393 175.705 42.0132 174.027 42.6767L96.6437 73.0659L12.3603 38.8798L96.6274 7.38087L186.631 41.0215V76.5811C186.627 78.3864 188.091 79.8473 189.894 79.8473L189.897 79.8462ZM96.6312 79.8462C97.0363 79.8462 97.4414 79.7712 97.8274 79.6213L153.087 57.9176V104.999C153.087 109.232 133.173 117.466 96.6679 117.466C60.1628 117.466 40.249 109.232 40.249 104.999V57.2358L95.4063 79.6062C95.797 79.7673 96.2149 79.8454 96.6327 79.8454L96.6312 79.8462Z" fill="white"/>
</svg>
