<svg width="159" height="159" viewBox="0 0 159 159" fill="none" xmlns="http://www.w3.org/2000/svg">
<path d="M140.952 61.945C140.504 61.1979 139.697 60.7408 138.826 60.7408C137.956 60.7408 137.148 61.1979 136.701 61.945L121.826 86.7366C121.385 87.5014 121.382 88.4432 121.822 89.2091C122.261 89.975 123.075 90.4498 123.958 90.4553H128.916V136.321C128.916 137.69 130.026 138.8 131.395 138.8C132.764 138.8 133.875 137.69 133.875 136.321V87.979C133.875 87.3216 133.613 86.6907 133.148 86.2259C132.684 85.7611 132.053 85.4999 131.395 85.4999H128.296L138.833 68.0097L149.332 85.4999H146.27C144.901 85.4999 143.791 86.61 143.791 87.979V156.155C143.791 157.524 144.901 158.634 146.27 158.634C147.639 158.634 148.749 157.524 148.749 156.155V90.4553H153.708C154.589 90.4454 155.398 89.9695 155.834 89.2036C156.271 88.4388 156.268 87.4992 155.827 86.7366L140.952 61.945Z" fill="white"/>
<path d="M133.874 146.236C133.874 147.606 132.764 148.716 131.395 148.716C130.026 148.716 128.916 147.606 128.916 146.236C128.916 144.867 130.026 143.757 131.395 143.757C132.764 143.757 133.874 144.867 133.874 146.236Z" fill="white"/>
<path d="M133.874 156.153C133.874 157.522 132.764 158.632 131.395 158.632C130.026 158.632 128.916 157.522 128.916 156.153C128.916 154.784 130.026 153.674 131.395 153.674C132.764 153.674 133.874 154.784 133.874 156.153Z" fill="white"/>
<path d="M116.197 28.4749C116.64 27.7079 116.64 26.7627 116.197 25.9958L101.322 1.20416C100.874 0.4571 100.067 0 99.1963 0C98.3253 0 97.5185 0.4571 97.0702 1.20416L82.1953 25.9958C81.757 26.755 81.7515 27.6891 82.182 28.4528C82.6125 29.2165 83.4138 29.6957 84.2904 29.7145H89.2487V136.318C89.2487 137.687 90.3588 138.798 91.7279 138.798C93.0969 138.798 94.207 137.687 94.207 136.318V27.2353C94.207 26.5779 93.9458 25.9471 93.481 25.4822C93.0161 25.0174 92.3853 24.7562 91.7279 24.7562H88.6288L99.1653 7.26606L109.664 24.7562H106.603C105.234 24.7562 104.124 25.8663 104.124 27.2353V156.152C104.124 157.521 105.234 158.631 106.603 158.631C107.972 158.631 109.082 157.521 109.082 156.152V29.7145H114.04C114.929 29.7178 115.752 29.2452 116.197 28.4749H116.197Z" fill="white"/>
<path d="M94.2078 146.236C94.2078 147.606 93.0977 148.716 91.7287 148.716C90.3596 148.716 89.2495 147.606 89.2495 146.236C89.2495 144.867 90.3596 143.757 91.7287 143.757C93.0977 143.757 94.2078 144.867 94.2078 146.236Z" fill="white"/>
<path d="M94.2078 156.153C94.2078 157.522 93.0977 158.632 91.7287 158.632C90.3596 158.632 89.2495 157.522 89.2495 156.153C89.2495 154.784 90.3596 153.674 91.7287 153.674C93.0977 153.674 94.2078 154.784 94.2078 156.153Z" fill="white"/>
<path d="M61.6193 61.945C61.1711 61.1979 60.3642 60.7408 59.4932 60.7408C58.6233 60.7408 57.8153 61.1979 57.3682 61.945L42.4932 86.7366C42.0516 87.5014 42.0494 88.4432 42.4888 89.2091C42.9282 89.975 43.7417 90.4498 44.6249 90.4553H49.5832V136.321C49.5832 137.69 50.6933 138.8 52.0624 138.8C53.4314 138.8 54.5415 137.69 54.5415 136.321V87.979C54.5415 87.3216 54.2803 86.6907 53.8155 86.2259C53.3506 85.7611 52.7198 85.4999 52.0624 85.4999H48.9633L59.4998 68.0097L69.9987 85.4999H66.9373C65.5683 85.4999 64.4582 86.61 64.4582 87.979V156.155C64.4582 157.524 65.5683 158.634 66.9373 158.634C68.3064 158.634 69.4165 157.524 69.4165 156.155V90.4553H74.3748C75.2558 90.4454 76.0648 89.9695 76.5009 89.2036C76.9381 88.4388 76.9347 87.4992 76.4943 86.7366L61.6193 61.945Z" fill="white"/>
<path d="M54.5413 146.236C54.5413 147.606 53.4312 148.716 52.0622 148.716C50.6931 148.716 49.583 147.606 49.583 146.236C49.583 144.867 50.6931 143.757 52.0622 143.757C53.4312 143.757 54.5413 144.867 54.5413 146.236Z" fill="white"/>
<path d="M54.5413 156.153C54.5413 157.522 53.4312 158.632 52.0622 158.632C50.6931 158.632 49.583 157.522 49.583 156.153C49.583 154.784 50.6931 153.674 52.0622 153.674C53.4312 153.674 54.5413 154.784 54.5413 156.153Z" fill="white"/>
<path d="M21.9528 61.945C21.5046 61.1979 20.6977 60.7408 19.8267 60.7408C18.9568 60.7408 18.1488 61.1979 17.7017 61.945L2.82673 86.7366C2.38513 87.5014 2.38292 88.4432 2.8223 89.2091C3.2617 89.975 4.07517 90.4498 4.95837 90.4553H9.91669V136.321C9.91669 137.69 11.0268 138.8 12.3959 138.8C13.7649 138.8 14.875 137.69 14.875 136.321V87.979C14.875 87.3216 14.6138 86.6907 14.149 86.2259C13.6841 85.7611 13.0533 85.4999 12.3959 85.4999H9.33445L19.8333 68.0097L30.3322 85.4999H27.2708C25.9018 85.4999 24.7917 86.61 24.7917 87.979V156.155C24.7917 157.524 25.9018 158.634 27.2708 158.634C28.6399 158.634 29.75 157.524 29.75 156.155V90.4553H34.7083C35.5893 90.4454 36.3983 89.9695 36.8344 89.2036C37.2716 88.4388 37.2682 87.4992 36.8278 86.7366L21.9528 61.945Z" fill="white"/>
<path d="M14.8748 146.236C14.8748 147.606 13.7647 148.716 12.3957 148.716C11.0266 148.716 9.9165 147.606 9.9165 146.236C9.9165 144.867 11.0266 143.757 12.3957 143.757C13.7647 143.757 14.8748 144.867 14.8748 146.236Z" fill="white"/>
<path d="M14.8748 156.153C14.8748 157.522 13.7647 158.632 12.3957 158.632C11.0266 158.632 9.9165 157.522 9.9165 156.153C9.9165 154.784 11.0266 153.674 12.3957 153.674C13.7647 153.674 14.8748 154.784 14.8748 156.153Z" fill="white"/>
<path d="M117.141 50.7903H116.521C115.152 50.7903 114.042 51.9004 114.042 53.2694C114.042 54.6385 115.152 55.7486 116.521 55.7486H117.141C118.51 55.7486 119.62 54.6385 119.62 53.2694C119.62 51.9004 118.51 50.7903 117.141 50.7903Z" fill="white"/>
<path d="M125.93 55.7486H127.033C128.402 55.7486 129.512 54.6385 129.512 53.2694C129.512 51.9004 128.402 50.7903 127.033 50.7903H125.93C124.561 50.7903 123.451 51.9004 123.451 53.2694C123.451 54.6385 124.561 55.7486 125.93 55.7486Z" fill="white"/>
<path d="M145.69 55.7486H146.793H146.792C148.162 55.7486 149.271 54.6385 149.271 53.2694C149.271 51.9004 148.162 50.7903 146.792 50.7903H145.689H145.69C144.319 50.7903 143.21 51.9004 143.21 53.2694C143.21 54.6385 144.319 55.7486 145.69 55.7486Z" fill="white"/>
<path d="M135.807 55.7486H136.91C138.279 55.7486 139.389 54.6385 139.389 53.2694C139.389 51.9004 138.279 50.7903 136.91 50.7903H135.807C134.438 50.7903 133.328 51.9004 133.328 53.2694C133.328 54.6385 134.438 55.7486 135.807 55.7486Z" fill="white"/>
<path d="M156.187 50.7903H155.567C154.198 50.7903 153.088 51.9004 153.088 53.2694C153.088 54.6385 154.198 55.7486 155.567 55.7486H156.187C157.556 55.7486 158.666 54.6385 158.666 53.2694C158.666 51.9004 157.556 50.7903 156.187 50.7903Z" fill="white"/>
<path d="M3.09895 55.7486C4.46801 55.7486 5.57811 54.6385 5.57811 53.2694C5.57811 51.9004 4.46801 50.7903 3.09895 50.7903H2.47916C1.1101 50.7903 0 51.9004 0 53.2694C0 54.6385 1.1101 55.7486 2.47916 55.7486H3.09895Z" fill="white"/>
<path d="M69.8498 55.7486H71.0893C72.4584 55.7486 73.5685 54.6385 73.5685 53.2694C73.5685 51.9004 72.4584 50.7903 71.0893 50.7903H69.8498C68.4807 50.7903 67.3706 51.9004 67.3706 53.2694C67.3706 54.6385 68.4807 55.7486 69.8498 55.7486Z" fill="white"/>
<path d="M37.1138 50.7903H35.8742C34.5051 50.7903 33.395 51.9004 33.395 53.2694C33.395 54.6385 34.5051 55.7486 35.8742 55.7486H37.1138C38.4828 55.7486 39.5929 54.6385 39.5929 53.2694C39.5929 51.9004 38.4828 50.7903 37.1138 50.7903Z" fill="white"/>
<path d="M13.1774 55.7486H14.417C15.786 55.7486 16.8961 54.6385 16.8961 53.2694C16.8961 51.9004 15.786 50.7903 14.417 50.7903H13.1774C11.8072 50.7903 10.6982 51.9004 10.6982 53.2694C10.6982 54.6385 11.8072 55.7486 13.1774 55.7486Z" fill="white"/>
<path d="M58.5192 55.7486H59.7588C61.1278 55.7486 62.2379 54.6385 62.2379 53.2694C62.2379 51.9004 61.1278 50.7903 59.7588 50.7903H58.5192C57.1501 50.7903 56.04 51.9004 56.04 53.2694C56.04 54.6385 57.1501 55.7486 58.5192 55.7486Z" fill="white"/>
<path d="M47.1774 55.7486H48.417C49.786 55.7486 50.8961 54.6385 50.8961 53.2694C50.8961 51.9004 49.786 50.7903 48.417 50.7903H47.1774C45.8083 50.7903 44.6982 51.9004 44.6982 53.2694C44.6982 54.6385 45.8083 55.7486 47.1774 55.7486Z" fill="white"/>
<path d="M24.505 55.7486H25.7446C27.1148 55.7486 28.2238 54.6385 28.2238 53.2694C28.2238 51.9004 27.1148 50.7903 25.7446 50.7903H24.505C23.136 50.7903 22.0259 51.9004 22.0259 53.2694C22.0259 54.6385 23.136 55.7486 24.505 55.7486Z" fill="white"/>
<path d="M81.8118 50.7903H81.1921C79.823 50.7903 78.7129 51.9004 78.7129 53.2694C78.7129 54.6385 79.823 55.7486 81.1921 55.7486H81.8118C83.1809 55.7486 84.291 54.6385 84.291 53.2694C84.291 51.9004 83.1809 50.7903 81.8118 50.7903Z" fill="white"/>
</svg>
