<svg width="164" height="176" viewBox="0 0 164 176" fill="none" xmlns="http://www.w3.org/2000/svg">
<path d="M157.461 138.752V106.285H124.617V94.3342H138.153C139.1 97.013 141.26 99.0844 143.976 99.9167C146.692 100.749 149.641 100.242 151.925 98.5523C154.208 96.8614 155.555 94.188 155.555 91.3454C155.555 88.504 154.208 85.8294 151.925 84.1398C149.641 82.4489 146.692 81.9432 143.976 82.7755C141.26 83.6063 139.1 85.6779 138.153 88.358H124.617V62.4635H138.153C139.1 65.1437 141.26 67.2151 143.976 68.046C146.692 68.8783 149.641 68.3725 151.925 66.6816C154.208 64.9921 155.555 62.3173 155.555 59.4761C155.555 56.6334 154.208 53.9601 151.925 52.2691C149.641 50.5796 146.692 50.0725 143.976 50.9048C141.261 51.737 139.1 53.8086 138.153 56.4873H124.617V50.5128H101.727V24.6183H128.2C129.147 27.2971 131.308 29.3685 134.024 30.2008C136.74 31.0331 139.689 30.5259 141.973 28.8364C144.255 27.1455 145.602 24.4721 145.602 21.6295C145.602 18.7881 144.255 16.1135 141.973 14.4239C139.689 12.733 136.739 12.2273 134.024 13.0595C131.308 13.8904 129.147 15.962 128.2 18.6421H95.7548V50.5125H67.8883V18.0449C70.5653 17.0973 72.6353 14.9354 73.4671 12.2176C74.2988 9.49988 73.792 6.54867 72.1036 4.26337C70.4138 1.97917 67.7423 0.630005 64.9015 0.630005C62.0621 0.630005 59.3892 1.97913 57.7008 4.26337C56.0111 6.54895 55.5057 9.50017 56.3374 12.2176C57.1677 14.9353 59.2379 17.0973 61.9161 18.0449V50.5125H41.0154V73.4181H12.1533V46.9264C14.8317 45.9789 16.9018 43.8169 17.7321 41.0992C18.5638 38.3815 18.0584 35.4302 16.3686 33.1449C14.6803 30.8607 12.0073 29.513 9.16796 29.513C6.32715 29.513 3.65567 30.8607 1.96587 33.1449C0.277488 35.4305 -0.229311 38.3817 0.602403 41.0992C1.43412 43.8167 3.50432 45.9789 6.18117 46.9264V79.3941H41.0151V123.215H21.5085C20.5615 120.535 18.4011 118.463 15.6851 117.632C12.9693 116.8 10.02 117.306 7.73626 118.997C5.4536 120.686 4.10535 123.361 4.10535 126.202C4.10535 129.045 5.45357 131.718 7.73626 133.409C10.0203 135.099 12.9695 135.606 15.6851 134.774C18.4008 133.941 20.5616 131.87 21.5085 129.191H41.0151V134.171H63.1098C62.9876 134.489 62.9196 134.825 62.9113 135.167V164.049H36.4375C35.4905 161.368 33.33 159.297 30.6141 158.466C27.8983 157.634 24.949 158.139 22.6652 159.83C20.3826 161.52 19.0343 164.195 19.0343 167.036C19.0343 169.879 20.3825 172.552 22.6652 174.243C24.9493 175.932 27.8985 176.44 30.6141 175.607C33.3298 174.775 35.4905 172.703 36.4375 170.025H68.8831V135.167C68.8734 134.825 68.8068 134.489 68.6832 134.171H81.0254C80.9019 134.489 80.8352 134.825 80.8255 135.167V150.704C78.1486 151.651 76.0785 153.813 75.2467 156.531C74.4151 159.249 74.9218 162.2 76.6102 164.484C78.3 166.769 80.9716 168.117 83.8123 168.117C86.6517 168.117 89.3246 166.769 91.013 164.484C92.7027 162.2 93.2082 159.248 92.3764 156.531C91.5462 153.813 89.4759 151.651 86.7977 150.704V135.167C86.788 134.825 86.7213 134.489 86.5991 134.171H112.873C112.751 134.489 112.683 134.825 112.675 135.167V150.704C109.996 151.651 107.926 153.813 107.096 156.531C106.264 159.249 106.77 162.2 108.459 164.484C110.148 166.769 112.821 168.117 115.66 168.117C118.501 168.117 121.172 166.769 122.862 164.484C124.55 162.2 125.057 159.248 124.226 156.531C123.394 153.813 121.324 151.651 118.647 150.704V135.167C118.637 134.825 118.57 134.489 118.447 134.171H124.617V112.26H151.49V138.752C148.811 139.699 146.741 141.861 145.911 144.579C145.079 147.297 145.585 150.248 147.274 152.533C148.963 154.817 151.636 156.166 154.475 156.166C157.316 156.166 159.987 154.817 161.677 152.533C163.366 150.248 163.872 147.296 163.041 144.579C162.209 141.861 160.139 139.699 157.462 138.752L157.461 138.752ZM146.513 88.3583C147.721 88.3583 148.809 89.0863 149.272 90.202C149.734 91.3191 149.479 92.6043 148.625 93.4588C147.771 94.3133 146.486 94.5689 145.37 94.1062C144.255 93.6436 143.528 92.5543 143.528 91.3455C143.528 89.6963 144.863 88.3583 146.513 88.3583ZM146.513 56.4879C147.721 56.4879 148.809 57.2159 149.272 58.333C149.734 59.4487 149.479 60.7339 148.625 61.5884C147.771 62.4428 146.486 62.6985 145.37 62.2372C144.255 61.7745 143.528 60.6852 143.528 59.4765C143.528 57.8258 144.863 56.4879 146.513 56.4879ZM136.56 18.6426C137.768 18.6426 138.857 19.3706 139.319 20.4863C139.782 21.6034 139.526 22.8886 138.672 23.7431C137.818 24.5976 136.534 24.8532 135.418 24.3905C134.303 23.9279 133.575 22.8386 133.575 21.6298C133.575 19.9806 134.911 18.6426 136.56 18.6426ZM64.9018 6.69073C66.1098 6.69073 67.1984 7.41879 67.6607 8.53586C68.1231 9.65155 67.8676 10.9368 67.0137 11.7912C66.1598 12.6457 64.8755 12.9014 63.7591 12.4401C62.6442 11.9774 61.9166 10.8881 61.9166 9.67933C61.9166 8.02872 63.2537 6.69073 64.9018 6.69073ZM9.1675 35.5723L9.16889 35.5737C10.3755 35.5737 11.464 36.3017 11.9264 37.4174C12.3888 38.5345 12.1333 39.8197 11.2794 40.6742C10.4255 41.5287 9.14113 41.7843 8.0262 41.3216C6.90987 40.859 6.18231 39.7697 6.18231 38.5609C6.18231 36.9103 7.5194 35.5737 9.16889 35.5737L9.1675 35.5723ZM13.1482 129.19L13.1496 129.191C11.9416 129.191 10.853 128.463 10.3907 127.346C9.92831 126.23 10.1838 124.945 11.0377 124.09C11.8916 123.236 13.1759 122.98 14.2923 123.443C15.4072 123.906 16.1348 124.995 16.1348 126.202C16.1348 127.853 14.7977 129.191 13.1496 129.191L13.1482 129.19ZM28.0784 170.023C26.8705 170.023 25.7819 169.295 25.3195 168.177C24.8572 167.062 25.1127 165.777 25.9666 164.922C26.8205 164.068 28.1048 163.812 29.2211 164.273C30.3361 164.736 31.0636 165.825 31.0636 167.034C31.0636 168.685 29.7265 170.023 28.0784 170.023ZM83.8128 162.056V162.055C82.6048 162.055 81.5162 161.326 81.0539 160.211C80.5915 159.094 80.847 157.808 81.7009 156.954C82.5548 156.1 83.8391 155.844 84.9555 156.307C86.0704 156.769 86.798 157.859 86.798 159.067C86.798 160.717 85.4609 162.055 83.8128 162.055V162.056ZM115.662 162.056L115.66 162.055C114.452 162.055 113.364 161.326 112.901 160.211C112.44 159.094 112.696 157.808 113.55 156.954C114.404 156.1 115.688 155.844 116.803 156.307C117.919 156.769 118.647 157.859 118.647 159.067C118.647 160.717 117.31 162.055 115.66 162.055L115.662 162.056ZM118.647 128.195H46.9884V56.4843H118.647V128.195ZM154.476 150.106L154.475 150.104C153.268 150.104 152.18 149.376 151.717 148.259C151.255 147.144 151.51 145.858 152.364 145.004C153.218 144.149 154.502 143.894 155.617 144.355C156.734 144.818 157.461 145.907 157.461 147.116C157.461 148.766 156.124 150.104 154.475 150.104L154.476 150.106Z" fill="white"/>
<path d="M52.5933 122.098H112.568V62.8826H52.5933V122.098ZM58.5911 68.8042H106.571V116.177H58.5911V68.8042Z" fill="white"/>
</svg>
