<svg width="639" height="383" xmlns="http://www.w3.org/2000/svg" fill="none">

 <g>
  <title>Layer 1</title>
  <ellipse id="svg_1" fill="#BFE8FF" ry="191.5" rx="455" cy="191.5" cx="456"/>
  <path id="svg_2" fill="#17313B" d="m205.456,114.12012l24.383,0l0,150.53788l-24.383,0l0,-150.53788z"/>
  <path id="svg_3" fill="#17313B" d="m314.649,215.952c0,23.323 -19.083,25.443 -25.443,25.443c-14.842,0 -16.962,-13.782 -16.962,-21.203l0,-58.3063l-24.383,0l0,57.2463c0,13.782 4.24,26.503 12.721,33.924c7.421,7.421 16.962,10.602 28.624,10.602c8.481,0 19.082,-2.121 25.443,-8.481l0,8.481l24.382,0l0,-101.7723l-24.382,0l0,54.0663z"/>
  <path id="svg_4" fill="#17313B" d="m386.737,124.7815l-24.383,0l0,37.1043l-18.022,0l0,23.3227l18.022,0l0,78.4495l24.383,0l0,-78.4495l18.022,0l0,-23.3227l-18.022,0l0,-37.1043z"/>
  <path id="svg_5" fill="#17313B" d="m481.088,232.914c-5.301,4.241 -12.722,7.421 -20.142,7.421c-16.962,0 -28.624,-12.722 -28.624,-29.6835c0,-16.962 11.662,-28.6233 28.624,-28.6233c7.42,0 14.841,2.1202 20.142,7.4208l3.18,3.1804l16.962,-15.9018l-4.24,-3.1804c-9.541,-8.481 -22.263,-13.7816 -36.044,-13.7816c-29.684,0 -51.946,22.2626 -51.946,51.946c0,29.6834 22.262,51.9464 51.946,51.9464c13.781,0 26.503,-5.301 36.044,-13.782l4.24,-3.18l-16.962,-16.962l-3.18,3.18z"/>
  <path id="svg_6" fill="#17313B" d="m587.1,171.3668c-7.421,-7.4209 -14.842,-10.6013 -26.503,-10.6013c-8.481,0 -16.962,2.1203 -23.323,8.481l0,-55.12638l-24.382,0l0,150.53788l24.382,0l0,-56.187c0,-23.3226 15.902,-25.4429 22.263,-25.4429c14.842,0 13.782,13.7816 13.782,21.2024l0,59.3665l24.382,0l0,-58.3063c0,-13.7816 -3.18,-26.5031 -10.601,-33.9239z"/>
  <path id="svg_7" fill="#EF4335" d="m460.885,229.673c9.368,0 16.962,-7.594 16.962,-16.9615c0,-9.3678 -7.594,-16.962 -16.962,-16.962c-9.368,0 -16.962,7.5942 -16.962,16.962c0,9.3675 7.594,16.9615 16.962,16.9615z"/>
  <path id="svg_8" fill="#17313B" d="m171.532,226.553c-8.4808,8.481 -21.2023,13.782 -34.9839,13.782c-26.5031,0 -45.5853,-21.203 -45.5853,-49.8259c0,-28.6233 19.0822,-49.8257 46.6454,-49.8257c12.7215,0 25.443,5.3006 34.9838,14.8417l3.181,3.1803l15.901,-15.9018l-3.18,-3.1804c-13.781,-13.7816 -31.8036,-21.20243 -50.8858,-21.20243c-40.2846,-1.06013 -69.96806,30.74353 -69.96806,72.08833c0,41.3449 29.68346,73.1489 68.90796,73.1489c19.0822,0 38.1649,-7.421 50.8859,-21.203l3.18,-3.18l-15.901,-15.902l-3.181,3.18z"/>
 </g>
</svg>