<svg width="90" height="67" viewBox="0 0 90 67" fill="none" xmlns="http://www.w3.org/2000/svg">
<rect x="1" y="7" width="82" height="59" rx="4" fill="#EAEAEA" stroke="black" stroke-width="2"/>
<rect x="7" y="1" width="82" height="59" rx="4" fill="#EAEAEA" stroke="black" stroke-width="2"/>
<path d="M68.5458 12.8126H26.6849C26.404 12.8126 26.1353 12.9241 25.9365 13.1224C25.7382 13.3207 25.6267 13.5898 25.6272 13.8703V39.6505C25.6267 39.931 25.7382 40.2001 25.9365 40.3984C26.1353 40.5967 26.404 40.7082 26.6849 40.7082H68.5458C68.8267 40.7082 69.0954 40.5967 69.2942 40.3984C69.4925 40.2001 69.6039 39.931 69.6035 39.6505V13.8703C69.6039 13.5898 69.4925 13.3207 69.2942 13.1224C69.0954 12.9241 68.8267 12.8126 68.5458 12.8126ZM67.4881 38.5928H27.7426V14.928H67.4881V38.5928Z" fill="black"/>
<path d="M74.2751 42.9312H73.5158L73.5163 13.8703C73.5687 12.4968 73.0757 11.158 72.1445 10.1466C71.2134 9.13518 69.9196 8.53358 68.5459 8.47314H26.685C25.3115 8.53358 24.0177 9.13516 23.0864 10.1466C22.1553 11.158 21.6623 12.4966 21.7147 13.8703V42.9312H20.9559C20.1721 42.9321 19.4208 43.2438 18.8665 43.7981C18.3126 44.3525 18.0009 45.1038 18 45.8875C18.0019 47.5081 18.6464 49.0616 19.7924 50.2076C20.9384 51.3536 22.4919 51.998 24.1129 52H71.1185C72.7395 51.9981 74.293 51.3535 75.439 50.2076C76.585 49.0616 77.2295 47.5081 77.2314 45.8875C77.2304 45.1037 76.9188 44.3525 76.3649 43.7981C75.8106 43.2438 75.0593 42.9321 74.2755 42.9312H74.2751ZM23.8293 13.8703C23.7778 13.0577 24.0484 12.2573 24.5829 11.643C25.117 11.0287 25.872 10.65 26.6842 10.5886H68.545C69.3572 10.65 70.1123 11.0287 70.6463 11.643C71.1808 12.2573 71.4514 13.0577 71.3999 13.8703V42.9312H23.8287L23.8293 13.8703ZM71.1177 49.8842H24.1121C23.0521 49.8833 22.0359 49.4616 21.2866 48.7122C20.5372 47.9629 20.1155 46.9468 20.1146 45.8872C20.1151 45.423 20.4909 45.0467 20.9551 45.0462H74.2742C74.7384 45.0467 75.1142 45.423 75.1147 45.8872C75.1138 46.9467 74.6921 47.9629 73.9427 48.7122C73.1934 49.4616 72.1773 49.8833 71.1172 49.8842H71.1177Z" fill="black"/>
<path d="M50.1693 46.4077H45.0611C44.477 46.4077 44.0034 46.8813 44.0034 47.4654C44.0034 48.0495 44.477 48.5231 45.0611 48.5231H50.1693C50.7534 48.5231 51.227 48.0495 51.227 47.4654C51.227 46.8813 50.7534 46.4077 50.1693 46.4077Z" fill="black"/>
<path d="M31.4095 35.9866H63.82C64.4041 35.9866 64.8777 35.5129 64.8777 34.9289C64.8777 34.3443 64.4041 33.8711 63.82 33.8711H61.1474V18.5907C61.1474 18.3102 61.036 18.041 60.8377 17.8427C60.6393 17.6444 60.3702 17.533 60.0897 17.533H55.2772C54.9967 17.533 54.7276 17.6444 54.5293 17.8427C54.331 18.041 54.2195 18.3102 54.2195 18.5907V33.8711H51.741V23.1935C51.741 22.9131 51.6296 22.6439 51.4312 22.4456C51.2329 22.2473 50.9638 22.1358 50.6833 22.1358H45.8708C45.5903 22.1358 45.3212 22.2473 45.1229 22.4456C44.9245 22.6439 44.8131 22.9131 44.8131 23.1935V33.8711H42.3346V28.4801C42.335 28.1996 42.2236 27.9305 42.0253 27.7322C41.8265 27.5339 41.5578 27.4224 41.2769 27.4224H36.4647C36.1843 27.4224 35.9151 27.5339 35.7168 27.7322C35.5185 27.9305 35.407 28.1996 35.407 28.4801V33.8711H31.41C30.8259 33.8711 30.3523 34.3443 30.3523 34.9289C30.3523 35.5129 30.8259 35.9866 31.41 35.9866H31.4095ZM56.3351 19.6484H59.0321V33.8711H56.3351V19.6484ZM46.9291 24.2508H49.6262V33.8702L46.9286 33.8707L46.9291 24.2508ZM37.5227 29.5373H40.2198V33.8707H37.5227V29.5373Z" fill="black"/>
</svg>
