<svg width="70" height="70" viewBox="0 0 70 70" fill="none" xmlns="http://www.w3.org/2000/svg">
<path d="M13.7382 4.35596C12.3817 4.35596 11.2817 5.47563 11.2817 6.85765C11.2817 8.23967 12.3811 9.35935 13.7382 9.35935C15.0948 9.35935 16.1947 8.23967 16.1947 6.85765C16.1947 5.47631 15.0947 4.35596 13.7382 4.35596Z" fill="black"/>
<path d="M6.36958 4.35596C5.01301 4.35596 3.91309 5.47563 3.91309 6.85765C3.91309 8.23967 5.01244 9.35935 6.36958 9.35935C7.72616 9.35935 8.82608 8.23967 8.82608 6.85765C8.82608 5.47631 7.7261 4.35596 6.36958 4.35596Z" fill="black"/>
<path d="M21.1064 4.35596C19.7498 4.35596 18.6499 5.47563 18.6499 6.85765C18.6499 8.23967 19.7493 9.35935 21.1064 9.35935C22.463 9.35935 23.5629 8.23967 23.5629 6.85765C23.5629 5.47631 22.4629 4.35596 21.1064 4.35596Z" fill="black"/>
<path d="M47.7203 28.9883C46.4837 27.6247 45.0344 26.5718 43.5311 25.9431C42.5023 25.508 41.3482 25.2559 40.1098 25.1955C39.1267 25.1428 37.6424 25.0653 36.5234 25.95C36.1245 26.2536 35.8445 26.6055 35.5968 26.916C35.4551 27.0932 35.3186 27.2761 35.163 27.412C34.8048 27.7143 34.3659 27.8953 34.0433 27.91C33.6388 27.896 33.2005 27.715 32.8589 27.4266C32.6861 27.2768 32.5496 27.0951 32.4079 26.9167C32.1603 26.6061 31.8789 26.253 31.4972 25.9634C30.3604 25.0653 28.8762 25.1441 27.902 25.1955C26.6559 25.2552 25.5025 25.5074 24.4776 25.9399C22.9705 26.5711 21.5205 27.6234 20.2834 28.9877L17.127 32.475C16.704 32.9424 16.704 33.6537 17.1257 34.1231L21.6204 39.0966C21.8528 39.3538 22.1837 39.5005 22.5311 39.5005H22.5324C22.8791 39.5005 23.2094 39.3538 23.4418 39.0978L25.4062 36.934V50.9703C25.4062 51.6492 25.9555 52.1986 26.6345 52.1986H41.3713C42.0503 52.1986 42.5996 51.6492 42.5996 50.9703L42.5983 36.9359L44.5627 39.0998C44.7951 39.357 45.1254 39.5024 45.4722 39.5024H45.4734C45.8202 39.5024 46.1511 39.3545 46.3842 39.0985L50.8788 34.125C51.3005 33.6557 51.3005 32.9444 50.8776 32.4769L47.7203 28.9883ZM45.4682 36.4456L42.2787 32.9303C41.937 32.5537 41.4004 32.4254 40.9272 32.6096C40.4541 32.7919 40.1423 33.2479 40.1423 33.7547V49.7439L27.8607 49.7433V33.7553C27.8607 33.2485 27.5489 32.7925 27.0758 32.6102C26.6045 32.4254 26.066 32.5537 25.7243 32.931L22.5348 36.4462L19.694 33.3018L22.1048 30.6395C23.1 29.5408 24.2477 28.6999 25.4302 28.2064C26.1929 27.8838 27.0643 27.6964 28.0271 27.6513C28.708 27.612 29.5647 27.5675 29.9915 27.9041C30.1484 28.0248 30.3059 28.2217 30.4881 28.4497C30.6964 28.7107 30.9333 29.006 31.2591 29.2912C32.0429 29.9517 33.0032 30.3334 34.0441 30.3645C35.0031 30.3334 35.9634 29.9517 36.7641 29.2772C37.0734 29.006 37.3097 28.7107 37.5186 28.4497C37.7009 28.2223 37.8577 28.0235 38.0318 27.8914C38.4408 27.5694 39.2943 27.6133 39.986 27.6514C40.9418 27.6971 41.8119 27.8838 42.5797 28.209C43.7572 28.7005 44.9055 29.5414 45.9007 30.6388L48.3115 33.3024L45.4682 36.4456Z" fill="black"/>
<path d="M62.7378 6.85714L63.7355 5.84035C64.21 5.35703 64.203 4.57968 63.7184 4.10329C63.2351 3.63013 62.4577 3.63396 61.9813 4.12044L61.016 5.10357L60.0506 4.12044C59.573 3.63458 58.7963 3.62951 58.3136 4.10329C57.829 4.57961 57.822 5.35697 58.2964 5.84035L59.2942 6.85714L58.2964 7.87393C57.822 8.35724 57.829 9.13459 58.3136 9.61099C58.5524 9.8447 58.8629 9.9622 59.1735 9.9622C59.491 9.9622 59.8086 9.83963 60.0506 9.59385L61.0159 8.61071L61.9813 9.59385C62.222 9.83963 62.5395 9.9622 62.8583 9.9622C63.1689 9.9622 63.4795 9.84471 63.7183 9.61099C64.2028 9.13466 64.2098 8.35731 63.7354 7.87393L62.7378 6.85714Z" fill="black"/>
<path d="M7.62031 37.3305L13.9211 31.9423C14.4368 31.5022 14.4978 30.7261 14.0564 30.2116C13.6157 29.6946 12.8402 29.6362 12.3257 30.0763L4.95669 36.3758C4.68676 36.6064 4.5299 36.9404 4.52546 37.2942C4.52165 37.6492 4.67027 37.9871 4.93446 38.224L12.3035 44.8187C12.5384 45.0283 12.8312 45.1312 13.1227 45.1312C13.4593 45.1312 13.7953 44.9934 14.0386 44.7222C14.4907 44.2173 14.4476 43.4406 13.9427 42.9884L7.62031 37.3305Z" fill="black"/>
<path d="M55.6754 30.0759C55.1603 29.6358 54.3842 29.6942 53.9447 30.2112C53.5039 30.7263 53.5643 31.5024 54.08 31.9419L60.3808 37.3302L54.0577 42.9883C53.5528 43.4405 53.5096 44.2172 53.9618 44.7221C54.2038 44.9933 54.5397 45.1311 54.8776 45.1311C55.1691 45.1311 55.4632 45.0282 55.6969 44.8186L63.0659 38.2239C63.3301 37.987 63.4787 37.6491 63.4749 37.2941C63.4711 36.9397 63.3142 36.6062 63.0437 36.3757L55.6754 30.0759Z" fill="black"/>
<path d="M67.5441 0.000976215H2.4565C1.10311 0.000976215 0 1.10286 0 2.45747V67.5435C0 68.8969 1.10189 70 2.4565 70H67.5425C68.8959 70 69.999 68.8981 69.999 67.5435V2.45585C69.999 1.10246 68.8965 0 67.5432 0L67.5441 0.000976215ZM67.5441 2.45682V11.258H2.4565V2.45682H67.5441ZM2.4565 67.5445V13.7142H67.5425L67.5444 67.5445H2.4565Z" fill="black"/>
</svg>
