<svg width="59" height="68" viewBox="0 0 59 68" fill="none" xmlns="http://www.w3.org/2000/svg">
<path d="M58.9994 44.6624L53.5 41.4927L49.267 43.9319L44.8956 41.4125V26.5275L49.2237 24.042L53.4994 26.5067L59 23.337V17.0006L53.5006 13.8321L48.0018 17.0006V21.9389L43.6697 24.4268L30.7058 16.9573V11.9798L34.997 9.50617V3.16852L29.4995 0L24.0019 3.16973L24.0013 9.50738L28.2705 11.968V16.9722L15.3755 24.4031L10.9982 21.8815V17.0024L5.49941 13.8327L0.00060794 17V23.3376L5.49941 26.5073L9.82804 24.0118L14.1038 26.4759V41.4078L9.71992 43.9271L5.49941 41.4939L0 44.6624V51.0019L5.49941 54.1679L10.997 51.0006V45.9952L15.2627 43.5465L28.2686 51.0415V56.0302L23.9995 58.492V64.8321L29.4983 68L34.9971 64.8315V58.492L30.7058 56.0196V51.0557L43.7308 43.5495L48.0024 46.0113L48.003 51.0019L53.5006 54.1698L59 51.0019L58.9994 44.6624ZM42.4589 40.0099L31.9561 33.9586L42.4589 27.927V40.0099ZM50.4347 18.4047L53.4998 16.639L56.5637 18.4047V21.935L53.4986 23.7013L50.4347 21.9356V18.4047ZM41.2287 25.8298L30.7051 31.8739V19.7659L41.2287 25.8298ZM26.4353 4.57223L29.4987 2.8059L32.5626 4.57223V8.10428L29.4987 9.8706L26.4348 8.10488L26.4353 4.57223ZM28.2685 19.7781V31.8356L17.809 25.8069L28.2685 19.7781ZM5.49772 23.7014L2.4343 21.9351L2.4337 18.4043L5.49758 16.6386L8.56146 18.4049V21.9351L5.49772 23.7014ZM16.5382 27.8802L27.0814 33.9552L16.5382 40.0106V27.8802ZM8.56114 49.5977L5.49772 51.3657L2.43263 49.5988L2.43322 46.0679L5.4971 44.304L8.56052 46.0679L8.56114 49.5977ZM17.7012 42.1459L28.2676 36.078V48.2386L17.7012 42.1459ZM32.5624 63.4293L29.4973 65.195L26.4339 63.4305V59.898L29.4973 58.1341L32.5624 59.898V63.4293ZM30.7049 48.2492V36.0436L41.2962 42.1464L30.7049 48.2492ZM53.5 51.3649L50.4361 49.598L50.4355 46.0672L53.4994 44.3033L56.5633 46.0678L56.5639 49.598L53.5 51.3649Z" fill="black"/>
</svg>
