<svg width="45" height="70" viewBox="0 0 45 70" fill="none" xmlns="http://www.w3.org/2000/svg">
<path d="M4.71111 70H39.6468C40.8955 69.9978 42.0926 69.5007 42.9759 68.618C43.8587 67.7347 44.3557 66.5376 44.3579 65.2889V4.71111C44.3557 3.46242 43.8587 2.2653 42.9759 1.38201C42.0926 0.499246 40.8956 0.00219103 39.6468 0H4.71111C3.46242 0.00219454 2.2653 0.49926 1.38201 1.38201C0.499246 2.26531 0.00219103 3.46236 0 4.71111V65.2889C0.0021944 66.5376 0.49926 67.7347 1.38201 68.618C2.26531 69.5008 3.46236 69.9978 4.71111 70ZM10.0981 2.35895L34.2598 2.3595V2.39077C34.2593 3.14624 33.647 3.75907 32.8915 3.75907H11.4658C10.7103 3.75907 10.098 3.14624 10.0975 2.39077L10.0981 2.35895ZM2.35856 4.71094C2.35966 4.08769 2.60764 3.48968 3.0482 3.04913C3.4893 2.60803 4.08676 2.36005 4.71058 2.35949H7.73855V2.39076C7.73965 3.37886 8.13302 4.32687 8.83199 5.02533C9.53095 5.7243 10.4785 6.11766 11.4666 6.11877H32.8923C33.8804 6.11767 34.8279 5.7243 35.5269 5.02533C36.2259 4.32691 36.6192 3.37883 36.6203 2.39076V2.35949H39.6477C40.271 2.36004 40.869 2.60801 41.3095 3.04913C41.7506 3.48968 41.9986 4.08769 41.9992 4.71094V65.2887C41.9986 65.912 41.7507 66.51 41.3095 66.9505C40.869 67.3916 40.271 67.6396 39.6477 67.6402H4.71203C4.08878 67.6396 3.49077 67.3916 3.05022 66.9505C2.60912 66.51 2.36114 65.912 2.36058 65.2887L2.35856 4.71094Z" fill="black"/>
</svg>
