<svg width="70" height="69" viewBox="0 0 70 69" fill="none" xmlns="http://www.w3.org/2000/svg">
<path d="M5.40675 0C2.43189 0 0 2.43396 0 5.40951V46.9294C0 49.9048 2.43189 52.3361 5.40675 52.3361H21.3444C21.6025 52.6319 21.8713 52.9217 22.1531 53.2035C27.7435 58.7973 36.2399 59.7523 42.824 56.0718L53.6451 66.909C55.4763 68.7412 58.477 68.7412 60.3082 66.909C62.1393 65.0768 62.1393 62.0706 60.3082 60.2389L52.4124 52.3361H64.5932C67.5681 52.3361 70 49.9048 70 46.9294L69.9995 5.40952C69.9995 2.43411 67.5676 1.36789e-05 64.5927 1.36789e-05L5.40675 0ZM5.40675 2.41575H64.5924C66.2711 2.41575 67.5856 3.72811 67.5856 5.40896V11.7871H2.41299V5.40896C2.41299 3.72803 3.72751 2.41575 5.4062 2.41575H5.40675ZM9.39227 5.52702C8.55239 5.5491 7.86015 6.25431 7.86015 7.09899C7.86015 7.95721 8.57452 8.678 9.43213 8.678C10.2897 8.678 11.0111 7.95717 11.0111 7.09899C11.0111 6.24078 10.2898 5.52702 9.43213 5.52702C9.41866 5.52702 9.4052 5.52648 9.39227 5.52702H9.39227ZM16.5554 5.52702C15.7155 5.5491 15.0233 6.25431 15.0233 7.09899C15.0233 7.95721 15.7376 8.678 16.5953 8.678C17.4529 8.678 18.1743 7.95717 18.1743 7.09899C18.1743 6.24078 17.4529 5.52702 16.5953 5.52702C16.5818 5.52702 16.5683 5.52648 16.5554 5.52702H16.5554ZM23.7185 5.52702C22.8786 5.5491 22.1864 6.25431 22.1864 7.09899C22.1864 7.95721 22.9035 8.678 23.7611 8.678C24.6188 8.678 25.3381 7.95717 25.3381 7.09899C25.3381 6.24078 24.6189 5.52702 23.7611 5.52702C23.7477 5.52702 23.732 5.52648 23.7186 5.52702H23.7185ZM2.41313 14.2007H67.5857V46.9298C67.5857 48.6107 66.2712 49.923 64.5925 49.923H50.0009L49.4827 49.4047C52.3175 44.3201 52.3945 38.0961 49.7111 32.9513L58.2506 24.2608L58.1353 27.5725L58.1348 27.573C58.1121 28.2362 58.6288 28.7927 59.292 28.8197C59.6136 28.8331 59.9272 28.7173 60.1631 28.4981C60.3991 28.2793 60.5375 27.9749 60.5483 27.6533L60.7724 21.2493H60.7719C60.7767 21.1017 60.7547 20.9546 60.7062 20.8156C60.7002 20.7978 60.6938 20.7806 60.6873 20.7633C60.6809 20.7461 60.6733 20.7289 60.6658 20.7116C60.6652 20.71 60.6642 20.7084 60.6636 20.7068C60.6491 20.6745 60.6334 20.6432 60.6162 20.6125C60.613 20.6077 60.6097 20.6028 60.6065 20.598C60.6 20.5861 60.5925 20.5743 60.5855 20.5624C60.5812 20.5565 60.5774 20.55 60.5736 20.5441L60.5709 20.5414C60.5666 20.5333 60.5618 20.5258 60.5569 20.5177C60.551 20.5096 60.5445 20.5021 60.5381 20.494C60.5338 20.4886 60.5289 20.4832 60.5241 20.4778C60.5165 20.4665 60.5085 20.4557 60.5004 20.445C60.4966 20.4401 60.4923 20.4353 60.4885 20.4304C60.4794 20.4196 60.4697 20.4089 60.46 20.3981C60.4465 20.3825 60.4325 20.3679 60.4179 20.3534C60.4169 20.3512 60.4163 20.3496 60.4153 20.348C60.4109 20.3447 60.4061 20.3415 60.4012 20.3383C60.3296 20.2682 60.2499 20.2074 60.1631 20.1573C60.1599 20.1562 60.1567 20.1556 60.1534 20.1546C60.0688 20.1072 59.9789 20.07 59.8851 20.0436C59.8722 20.0404 59.8598 20.0371 59.8469 20.0344C59.7612 20.0129 59.6739 20.001 59.5856 19.9989C59.5705 19.9983 59.5554 19.9983 59.5409 19.9989H59.5242L52.9931 20.223V20.2225C52.3305 20.2494 51.8133 20.8064 51.8359 21.4696C51.8462 21.7896 51.9835 22.0924 52.2174 22.3112C52.4512 22.5299 52.7626 22.6468 53.0826 22.636L56.5805 22.518L48.4041 30.8383C47.8708 30.1002 47.2744 29.3955 46.6107 28.7313C39.8672 21.9842 28.8953 21.9842 22.1525 28.7313C16.4165 34.4705 15.5588 43.2691 19.581 49.9236H5.40595C3.72723 49.9236 2.41274 48.6113 2.41274 46.9304L2.41313 14.2007ZM34.3809 26.0707C38.1871 26.0707 41.9943 27.5259 44.9046 30.4382C45.577 31.1106 46.1696 31.8309 46.6862 32.5878L39.4914 39.9109L35.4632 35.1969C35.2354 34.9302 34.9024 34.7762 34.5517 34.774C34.201 34.7724 33.867 34.9232 33.6364 35.1872L25.7002 44.2925C25.2628 44.7941 25.3145 45.5558 25.8161 45.9938C26.3182 46.4318 27.0794 46.3801 27.518 45.8785L34.5367 37.8249L38.5012 42.4844C38.7211 42.743 39.0394 42.8965 39.3788 42.9084C39.7177 42.9197 40.0458 42.7883 40.2834 42.5458L47.9222 34.7724C49.9861 39.279 49.679 44.5962 47.0031 48.862C46.9648 48.9121 46.9314 48.9649 46.9018 49.0198C46.3367 49.8958 45.6729 50.7266 44.9052 51.4948C44.1278 52.2722 43.2852 52.9445 42.3973 53.5146C42.3741 53.5286 42.351 53.5437 42.3289 53.5593C36.574 57.2092 28.8837 56.5213 23.8604 51.4948C23.5178 51.1522 23.1957 50.7971 22.894 50.4313C22.8794 50.4141 22.8643 50.3963 22.8492 50.3796C18.0594 44.5252 18.3977 35.9039 23.8604 30.4368C26.7708 27.525 30.5758 26.0693 34.382 26.0693L34.3809 26.0707ZM48.1268 51.4695L58.6057 61.9484C59.521 62.8642 59.521 64.2854 58.6057 65.2007C57.6904 66.1166 56.2708 66.1166 55.3555 65.2007L44.8766 54.719C45.4795 54.2579 46.0602 53.7547 46.6113 53.2036C47.1619 52.653 47.6662 52.0717 48.1268 51.4689V51.4695Z" fill="black"/>
</svg>
