<svg width="66" height="70" viewBox="0 0 66 70" fill="none" xmlns="http://www.w3.org/2000/svg">
<path d="M60.9512 34.9865C60.4869 34.9865 60.1033 35.3181 60.1033 35.7238C60.1033 36.129 60.4863 36.4611 60.9512 36.4611H64.0763V38.6727C64.0763 39.0778 64.408 39.41 64.8137 39.41C65.2188 39.41 65.551 39.0783 65.551 38.6727V35.7244C65.551 35.3192 65.2194 34.9871 64.8137 34.9871C64.7401 34.9865 60.9511 34.9865 60.9511 34.9865L60.9512 34.9865Z" fill="black"/>
<path d="M36.7815 26.0606V29.0088C36.7815 29.414 37.1131 29.7462 37.5188 29.7462C37.924 29.7462 38.2562 29.4145 38.2562 29.0088V26.0606C38.2562 25.6554 37.9245 25.3232 37.5188 25.3232C37.1131 25.3232 36.7815 25.6554 36.7815 26.0606Z" fill="black"/>
<path d="M37.5185 18.4235L40.3861 21.291C40.5336 21.4309 40.6 21.6227 40.6 21.8073C40.6 21.9991 40.5336 22.1903 40.3861 22.3307C40.0986 22.6181 39.6343 22.6181 39.3469 22.3307L38.2558 21.2473V23.1123C38.2558 23.5174 37.9242 23.8496 37.5185 23.8496C37.1133 23.8496 36.7811 23.518 36.7811 23.1123V21.2473L35.6977 22.3307C35.4103 22.6181 34.9383 22.6181 34.6509 22.3307C34.3634 22.0433 34.3634 21.579 34.6509 21.2916L37.5185 18.4235Z" fill="black"/>
<path d="M33.5552 66.4619C33.1485 66.4619 32.8179 66.1323 32.8179 65.7245C32.8179 65.3168 33.148 64.9872 33.5552 64.9872C36.0438 64.9872 37.5673 61.7474 37.5828 61.7159C37.753 61.3452 38.1926 61.1853 38.5608 61.3555C38.93 61.5257 39.0914 61.9643 38.9212 62.3335C38.8436 62.5021 36.9761 66.4618 33.5552 66.4618V66.4619Z" fill="black"/>
<path d="M31.8637 39.7778C31.7681 39.7778 31.6719 39.7999 31.5835 39.837C31.5907 39.8149 31.5984 39.7999 31.6056 39.7778H31.8637Z" fill="black"/>
<path d="M31.6068 39.7778C31.5996 39.7999 31.5919 39.8149 31.5847 39.837C31.6732 39.7999 31.7688 39.7778 31.8649 39.7778H31.6068Z" fill="black"/>
<path d="M33.1247 39.8595C33.427 38.7982 33.3751 37.8547 32.9771 37.0438C32.0778 35.2009 29.6453 34.5078 27.5077 33.8965C26.5791 33.6312 25.7019 33.3802 25.1044 33.0784C22.7531 31.8845 21.5 29.6803 21.1534 26.1493C20.8367 22.9799 20.2983 19.9719 17.1803 17.982C15.1899 16.7141 12.927 16.5079 10.7376 16.3011C9.39619 16.1756 8.12096 16.0507 6.91931 15.7041C3.01252 14.5765 1.28751 11.1341 1.50141 4.88321C1.50912 4.47702 1.19186 4.13045 0.786693 4.12326C0.388722 4.10115 0.0344526 4.42509 0.0272525 4.83077C-0.0611872 7.38111 -0.319303 15.1432 6.50649 17.1187C7.84793 17.5095 9.24861 17.6422 10.6051 17.7676C12.706 17.9666 14.7036 18.1507 16.3916 19.2274C18.9569 20.8641 19.3919 23.2888 19.6865 26.2963C20.0773 30.3137 21.6326 32.9673 24.4333 34.39C25.1558 34.7587 26.0992 35.0312 27.1019 35.3186C28.9447 35.8421 31.0379 36.439 31.6575 37.692C31.93 38.2448 31.9156 38.923 31.606 39.7781H31.8642C31.7685 39.7781 31.6724 39.8002 31.5839 39.8372C31.5911 39.8151 31.5988 39.8002 31.606 39.7781C25.9521 39.8223 21.3672 44.4366 21.3672 50.0977V59.6805C21.3672 65.3708 25.9964 70 31.6867 70H31.8636C37.554 70 42.1832 65.3708 42.1832 59.6805L42.1837 50.0905C42.176 44.8274 38.2178 40.4785 33.1244 39.8593L33.1247 39.8595ZM32.6012 41.2817C36.7511 41.6283 40.0903 44.8419 40.6285 48.9255C39.0732 48.3064 36.1027 47.3187 32.6012 47.1932V41.2817ZM31.1271 41.2745V47.2303C26.8445 47.5912 24.2422 48.8371 22.8493 49.7585C23.0184 45.2254 26.6228 41.5548 31.1271 41.2745ZM40.7099 59.6804C40.7099 64.5599 36.744 68.5258 31.8645 68.5258H31.6876C26.8152 68.5258 22.8422 64.5599 22.8422 59.6804V51.6458C23.4983 51.0339 26.1149 48.9994 31.8645 48.6533H31.9087C36.0216 48.6605 39.5454 50.054 40.7099 50.5697L40.7099 59.6804Z" fill="black"/>
<path d="M54.8633 49.3605H51.9151C51.5099 49.3605 51.1777 49.6921 51.1777 50.0978C51.1777 50.503 51.5094 50.8352 51.9151 50.8352H54.8633C55.2685 50.8352 55.6007 50.5035 55.6007 50.0978C55.6002 49.6921 55.2685 49.3605 54.8633 49.3605Z" fill="black"/>
<path d="M48.9664 49.3605H46.0181C45.6129 49.3605 45.2808 49.6921 45.2808 50.0978C45.2808 50.503 45.6124 50.8352 46.0181 50.8352H48.9664C49.3715 50.8352 49.7037 50.5035 49.7037 50.0978C49.7032 49.6921 49.3715 49.3605 48.9664 49.3605Z" fill="black"/>
<path d="M64.8147 40.8835C64.4096 40.8835 64.0774 41.2152 64.0774 41.6209V44.5691C64.0774 44.9743 64.409 45.3065 64.8147 45.3065C65.2199 45.3065 65.5521 44.9748 65.5521 44.5691V41.6209C65.5521 41.2152 65.2204 40.8835 64.8147 40.8835Z" fill="black"/>
<path d="M64.8147 46.5963C64.4096 46.5963 64.0774 46.928 64.0774 47.3337V50.2819C64.0774 50.6871 64.409 51.0192 64.8147 51.0192C65.2199 51.0192 65.5521 50.6876 65.5521 50.2819V47.3337C65.5521 46.928 65.2204 46.5963 64.8147 46.5963Z" fill="black"/>
<path d="M58.7544 9.28162C58.3493 9.28162 58.0171 9.61326 58.0171 10.019V12.9672C58.0171 13.3724 58.3487 13.7045 58.7544 13.7045C59.1596 13.7045 59.4918 13.3729 59.4918 12.9672V10.019C59.4918 9.61379 59.1601 9.28162 58.7544 9.28162Z" fill="black"/>
<path d="M58.7544 14.9945C58.3493 14.9945 58.0171 15.3261 58.0171 15.7318V18.6801C58.0171 19.0853 58.3487 19.4174 58.7544 19.4174C59.1596 19.4174 59.4918 19.0858 59.4918 18.6801V15.7318C59.4918 15.3262 59.1601 14.9945 58.7544 14.9945Z" fill="black"/>
<path d="M57.6277 34.8022H54.6795C54.2743 34.8022 53.9421 35.1267 53.9421 35.5396C53.9421 35.9448 54.2738 36.2769 54.6795 36.2769H57.6277C58.0406 36.2769 58.3651 35.9453 58.3651 35.5396C58.3646 35.1267 58.0401 34.8022 57.6277 34.8022Z" fill="black"/>
<path d="M51.7305 34.8022H48.7823C48.3771 34.8022 48.0449 35.1267 48.0449 35.5396C48.0449 35.9448 48.3766 36.2769 48.7823 36.2769H51.7305C52.1434 36.2769 52.4679 35.9453 52.4679 35.5396C52.4673 35.1267 52.1434 34.8022 51.7305 34.8022Z" fill="black"/>
<path d="M45.8335 34.8022H42.8853C42.4801 34.8022 42.1479 35.1267 42.1479 35.5396C42.1479 35.9448 42.4796 36.2769 42.8853 36.2769H45.8335C46.2464 36.2769 46.5709 35.9453 46.5709 35.5396C46.5709 35.1267 46.2464 34.8022 45.8335 34.8022Z" fill="black"/>
<path d="M59.4929 6.96056C59.4929 7.42486 59.1612 7.80844 58.7555 7.80844C58.3504 7.80844 58.0182 7.42537 58.0182 6.96056V3.8354H55.8067C55.4015 3.8354 55.0693 3.50375 55.0693 3.09806C55.0693 2.69289 55.401 2.36072 55.8067 2.36072H58.7549C59.1601 2.36072 59.4923 2.69236 59.4923 3.09806C59.4928 3.17158 59.4928 6.96061 59.4928 6.96061L59.4929 6.96056Z" fill="black"/>
<path d="M36.8118 31.78C36.8118 31.3157 37.1434 30.9321 37.5491 30.9321C37.9543 30.9321 38.2864 31.3152 38.2864 31.78V34.9052H40.498C40.9031 34.9052 41.2353 35.2368 41.2353 35.6425C41.2353 36.0477 40.9037 36.3799 40.498 36.3799H37.5497C37.1445 36.3799 36.8124 36.0482 36.8124 35.6425C36.8119 35.569 36.8119 31.78 36.8119 31.78L36.8118 31.78Z" fill="black"/>
<path d="M52.8575 2.3606H49.9092C49.504 2.3606 49.1719 2.69224 49.1719 3.09794C49.1719 3.50311 49.5035 3.83528 49.9092 3.83528H52.8575C53.2626 3.83528 53.5948 3.50363 53.5948 3.09794C53.5948 2.69276 53.2632 2.3606 52.8575 2.3606Z" fill="black"/>
<path d="M46.9603 2.3606H44.012C43.6068 2.3606 43.2747 2.69224 43.2747 3.09794C43.2747 3.50311 43.6063 3.83528 44.012 3.83528H46.9603C47.3654 3.83528 47.6976 3.50363 47.6976 3.09794C47.6976 2.69276 47.3659 2.3606 46.9603 2.3606Z" fill="black"/>
<path d="M41.0645 2.3606H38.1162C37.7111 2.3606 37.3789 2.69224 37.3789 3.09794C37.3789 3.50311 37.7105 3.83528 38.1162 3.83528H41.0645C41.4697 3.83528 41.8018 3.50363 41.8018 3.09794C41.8013 2.69276 41.4697 2.3606 41.0645 2.3606Z" fill="black"/>
<path d="M35.1661 2.3606H32.2178C31.8126 2.3606 31.4805 2.69224 31.4805 3.09794C31.4805 3.50311 31.8121 3.83528 32.2178 3.83528H35.1661C35.5712 3.83528 35.9034 3.50363 35.9034 3.09794C35.9029 2.69276 35.5712 2.3606 35.1661 2.3606Z" fill="black"/>
<path d="M29.2693 2.3606H26.3211C25.9159 2.3606 25.5837 2.69224 25.5837 3.09794C25.5837 3.50311 25.9154 3.83528 26.3211 3.83528H29.2693C29.6745 3.83528 30.0067 3.50363 30.0067 3.09794C30.0067 2.69276 29.675 2.3606 29.2693 2.3606Z" fill="black"/>
<path d="M62.4991 50.0976L59.6316 52.9652C59.4917 53.1127 59.2999 53.179 59.1153 53.179C58.9236 53.179 58.7323 53.1127 58.5919 52.9652C58.3045 52.6777 58.3045 52.2134 58.5919 51.926L59.6753 50.8349H57.8103C57.4052 50.8349 57.073 50.5033 57.073 50.0976C57.073 49.6924 57.4046 49.3602 57.8103 49.3602H59.6753L58.5919 48.2768C58.3045 47.9894 58.3045 47.5174 58.5919 47.23C58.8793 46.9425 59.3436 46.9425 59.631 47.23L62.4991 50.0976Z" fill="black"/>
<path d="M24.1093 3.09804C24.1093 3.50321 23.7776 3.83538 23.3719 3.83538H21.7281L22.7971 4.90436C23.0917 5.19898 23.0917 5.6638 22.7971 5.95123C22.6572 6.09108 22.4655 6.16512 22.2809 6.16512C22.0891 6.16512 21.905 6.0916 21.7574 5.95123L18.8904 3.08313L21.7579 0.215571C22.0454 -0.0718569 22.5097 -0.0718569 22.7971 0.215571C23.0917 0.502998 23.0917 0.967298 22.7971 1.26244L21.6988 2.36073H23.372C23.7776 2.36073 24.1093 2.69289 24.1093 3.09807L24.1093 3.09804Z" fill="black"/>
<path d="M50.9014 18.946C50.9014 18.5408 50.5698 18.2086 50.1641 18.2086H47.2159C46.8107 18.2086 46.4785 18.5403 46.4785 18.946C46.4785 19.3511 46.8102 19.6833 47.2159 19.6833H50.1641C50.5698 19.6833 50.9014 19.3517 50.9014 18.946Z" fill="black"/>
<path d="M45.1888 18.946C45.1888 18.5408 44.8572 18.2086 44.4515 18.2086H41.5032C41.098 18.2086 40.7659 18.5403 40.7659 18.946C40.7659 19.3511 41.0975 19.6833 41.5032 19.6833H44.4515C44.8571 19.6833 45.1888 19.3517 45.1888 18.946Z" fill="black"/>
<path d="M56.7982 18.946C56.7982 18.5408 56.4665 18.2086 56.0608 18.2086H53.1126C52.7074 18.2086 52.3752 18.5403 52.3752 18.946C52.3752 19.3511 52.7069 19.6833 53.1126 19.6833H56.0608C56.4665 19.6833 56.7982 19.3517 56.7982 18.946Z" fill="black"/>
</svg>
