<svg width="89" height="70" viewBox="0 0 89 70" fill="none" xmlns="http://www.w3.org/2000/svg">
<path d="M44.4106 9.09996C45.0295 9.09996 45.5871 8.72752 45.8239 8.15543C46.0607 7.58404 45.9299 6.9259 45.4921 6.48876C45.0549 6.05091 44.3968 5.92011 43.8254 6.15694C43.2533 6.39377 42.8809 6.95138 42.8809 7.57027C42.8781 7.97645 43.0385 8.36746 43.3263 8.65454C43.6134 8.9423 44.0037 9.10271 44.4106 9.09994L44.4106 9.09996Z" fill="black"/>
<path d="M37.6305 28.0686C38.0009 28.0644 38.3554 27.9157 38.6177 27.6541L43.7203 22.5618L43.7196 22.5611C44.218 21.9904 44.1891 21.1305 43.6535 20.595C43.1172 20.0594 42.2581 20.0298 41.6867 20.5282L36.6144 25.6012C36.083 26.1519 36.083 27.0241 36.6144 27.5749C36.8719 27.8709 37.2388 28.0492 37.6305 28.0685L37.6305 28.0686Z" fill="black"/>
<path d="M83.5722 0H5.25058C3.85722 0.00275371 2.52173 0.558319 1.53726 1.54414C0.552821 2.53066 0 3.86694 0 5.26027V51.3393C0.00275371 52.7313 0.556944 54.0648 1.5407 55.0492C2.52446 56.033 3.85857 56.5872 5.25067 56.5899H36.3001V61.0309C36.3015 61.8674 36.031 62.6811 35.5305 63.3502L32.2935 67.6529H32.2928C31.97 68.0886 31.9183 68.669 32.1607 69.1543C32.4023 69.6397 32.8959 69.9481 33.4377 69.9529H55.3969C55.9393 69.9481 56.4329 69.6397 56.6746 69.1543C56.9162 68.669 56.8646 68.0886 56.5417 67.6529L53.2944 63.3502C52.7897 62.6824 52.5164 61.868 52.5151 61.0309V56.5899H83.5733C84.9653 56.5872 86.2996 56.033 87.2833 55.0492C88.2671 54.0648 88.8213 52.7314 88.824 51.3393V5.26027C88.824 3.86691 88.2712 2.53071 87.2867 1.54414C86.3023 0.558301 84.9668 0.0027493 83.5734 0H83.5722ZM5.25058 2.87214H83.5722C84.2055 2.87214 84.8134 3.1241 85.2609 3.57159C85.709 4.01976 85.961 4.62695 85.961 5.26029V45.2415H2.86163V5.26029C2.86163 4.62693 3.1136 4.01974 3.56177 3.57159C4.00926 3.1241 4.61713 2.87214 5.25048 2.87214H5.25058ZM51.0141 65.0486L52.5238 67.0223H36.2991L37.8088 65.0486C38.6858 63.8817 39.1602 62.4615 39.1609 61.002V56.5907H49.6621V61.0316C49.6628 62.4911 50.1371 63.9114 51.0142 65.0782L51.0141 65.0486ZM83.5827 53.6993L5.25058 53.6986C3.94533 53.6938 2.88372 52.6453 2.86169 51.34V48.1031H85.9611V51.34C85.9556 52.657 84.8892 53.7233 83.5722 53.7282L83.5827 53.6993Z" fill="black"/>
<path d="M50.1843 28.9655L45.0817 34.0681C44.5227 34.6299 44.5254 35.5379 45.0865 36.0962C45.6483 36.6553 46.5563 36.6525 47.1146 36.0914L52.207 31.0287C52.6435 30.4648 52.5994 29.6663 52.1024 29.1554C51.606 28.6439 50.8095 28.5758 50.2334 28.995L50.1843 28.9655Z" fill="black"/>
<path d="M37.8472 34.859C38.3973 35.3904 39.2702 35.3904 39.8209 34.859L50.9727 23.756C51.3933 23.1915 51.341 22.4053 50.8495 21.902C50.3579 21.3981 49.5738 21.3265 48.999 21.7327L37.8472 32.8356C37.576 33.1027 37.4238 33.4669 37.4238 33.8476C37.4238 34.2276 37.576 34.5918 37.8472 34.8589L37.8472 34.859Z" fill="black"/>
</svg>
