<svg width="69" height="70" viewBox="0 0 69 70" fill="none" xmlns="http://www.w3.org/2000/svg">
<circle cx="34.5" cy="34.5" r="32.5" fill="#F4F4F4"/>
<path d="M68.925 32.2894C68.3263 23.0845 64.1915 14.6654 57.2689 8.58425C42.975 -3.9885 21.1227 -2.58531 8.54996 11.7088C-0.860951 22.448 -2.69435 38.1081 4.00359 50.7185C4.63972 51.8972 6.09905 52.3462 7.27781 51.7288C8.4565 51.0927 8.90552 49.6334 8.28811 48.4546C2.52551 37.6219 4.09719 24.1507 12.1983 14.9461C17.437 8.99654 24.6589 5.44178 32.573 4.93648C40.4872 4.43117 48.1018 7.03194 54.0698 12.2519C60.0194 17.4906 63.5742 24.7125 64.0795 32.6266C64.5848 40.5408 61.984 48.1554 56.764 54.1235C45.9687 66.3968 27.1847 67.6129 14.9113 56.8176C13.901 55.9383 12.3668 56.0318 11.4874 57.0421C10.608 58.0524 10.7016 59.5866 11.7119 60.466C18.0732 66.0601 26.0621 69.0536 34.4438 69.0536C35.1922 69.0536 35.9593 69.0349 36.7076 68.9788C45.9125 68.3801 54.3316 64.2453 60.4127 57.3227C66.4933 50.3816 69.5243 41.4946 68.9256 32.2901L68.925 32.2894Z" fill="black"/>
<path d="M34.4809 25.873C33.1338 25.873 32.0486 26.9582 32.0486 28.3053V52.5716C32.0486 53.9187 33.1337 55.0038 34.4809 55.0038C35.828 55.0038 36.9131 53.9187 36.9131 52.5716V28.3053C36.9131 26.9582 35.828 25.873 34.4809 25.873Z" fill="black"/>
<path d="M35.507 16.6632C36.8628 17.2252 37.5063 18.7794 36.945 20.1345C36.383 21.4903 34.8295 22.1338 33.4737 21.5724C32.1179 21.011 31.4744 19.457 32.0357 18.1012C32.597 16.7454 34.1512 16.1018 35.507 16.6632Z" fill="black"/>
</svg>
