<svg width="86" height="70" viewBox="0 0 86 70" fill="none" xmlns="http://www.w3.org/2000/svg">
<path d="M14.9918 65.6462C11.3482 62.1919 11.1948 56.4379 14.6492 52.7943L17.2794 50.02C17.6594 49.6192 18.2923 49.6024 18.6931 49.9823L24.4987 55.4864C24.8995 55.8664 24.9164 56.4993 24.5364 56.9001L16.277 65.612C15.9316 65.9763 15.3562 65.9917 14.9918 65.6462Z" fill="#F4F4F4"/>
<path d="M71.4274 24.9074C67.4195 21.1077 67.2507 14.7783 71.0505 10.7703L74.885 6.72577C75.265 6.32498 75.8979 6.3081 76.2987 6.68808L83.3971 13.4178C83.7979 13.7977 83.8147 14.4307 83.4348 14.8315L73.4082 25.4073C73.0282 25.8081 72.3953 25.825 71.9945 25.445L71.4274 24.9074Z" fill="#F4F4F4"/>
<rect x="2" y="2" width="70" height="54" rx="10" fill="#F4F4F4"/>
<path d="M71.9109 36.0468C70.8188 36.0468 69.9991 36.9573 69.9991 37.9587V46.4238C69.9991 50.702 66.4491 54.252 62.1708 54.252H25.3054C24.4863 54.252 23.6672 54.6158 23.1206 55.1625L14.564 63.8098V56.5276C14.564 55.2533 13.5627 54.2519 12.2884 54.2519H11.6509C7.37265 54.2519 3.82265 50.7019 3.82265 46.4237L3.82328 11.6518C3.82328 7.37363 7.37329 3.82362 11.6515 3.82362H62.1708C62.9899 3.82362 63.9005 4.00585 64.7196 4.27888C65.7209 4.64271 66.813 4.09665 67.1774 3.09535C67.5412 2.09403 66.9952 1.00192 65.9939 0.637489C64.8104 0.18223 63.536 0 62.2617 0L11.6513 0.000634946C5.18815 0.000634946 0 5.28013 0 11.6519V46.4238C0 52.5225 4.7335 57.529 10.7407 58.0751V67.8152C10.7407 68.7257 11.2868 69.5449 12.1059 69.8178C12.3789 69.9086 12.6519 70 12.9249 70C13.471 70 14.1085 69.8178 14.4723 69.3625L25.6683 58.0751H62.1697C68.6328 58.0751 73.821 52.7956 73.821 46.4238V37.9588C73.8222 36.9574 73.0032 36.0469 71.9111 36.0469L71.9109 36.0468ZM83.1978 7.7378C79.83 3.82401 74.0044 3.36872 70.0899 6.64568L44.5117 28.3098C44.4209 28.4006 44.3294 28.4921 44.2386 28.5829L44.1478 28.6737C44.1478 28.7645 44.057 28.8559 43.9656 28.9467V29.0375C43.8748 29.1283 43.8748 29.2197 43.7834 29.3105L39.3229 42.6913C39.0499 43.4196 39.2322 44.0564 39.6868 44.6939C40.0506 45.0577 40.5973 45.3314 41.1433 45.4222H41.5986L55.4347 43.1465C55.5255 43.0557 55.6169 43.1465 55.7077 43.0557H55.7985C55.8893 43.0557 56.0715 43.0557 56.0715 42.9649L56.1623 42.8741C56.2531 42.7833 56.3446 42.7833 56.4354 42.6919L81.8316 21.0277C86.0197 17.5693 86.4749 11.7436 83.198 7.7383L83.1978 7.7378ZM44.5118 40.6891L46.7875 34.0444L51.521 39.597L44.5118 40.6891ZM55.5263 38.0497L48.8815 30.0393L68.3611 13.4726L75.0972 21.3917L55.5263 38.0497ZM79.4661 17.751L78.1917 18.8431L71.3648 10.924L72.6391 9.83188C73.7312 8.92136 75.097 8.46675 76.4622 8.64835C77.8273 8.73914 79.1016 9.37664 80.0122 10.4687C81.8332 12.653 81.651 15.9299 79.4662 17.7509L79.4661 17.751ZM52.0673 14.7471C52.0673 13.655 51.1568 12.8352 50.1554 12.8352H14.0182C12.9261 12.8352 12.1063 13.7458 12.1063 14.7471C12.1063 15.7485 13.0168 16.659 14.0182 16.659H50.1554C51.2475 16.7498 52.0666 15.8393 52.0666 14.7471H52.0673ZM39.324 29.8569C39.324 28.7648 38.4135 27.945 37.4121 27.945L14.0185 27.9457C12.9264 27.9457 12.1066 28.8562 12.1066 29.8575C12.1066 30.8589 13.0171 31.7694 14.0185 31.7694H37.4121C38.5036 31.7688 39.3234 30.8583 39.3234 29.8569L39.324 29.8569ZM14.0188 42.9648C12.9267 42.9648 12.107 43.8753 12.107 44.8767C12.107 45.878 13.0175 46.7885 14.0188 46.7885H33.7714C34.8635 46.7885 35.6833 45.878 35.6833 44.8767C35.6833 43.8753 34.7728 42.9648 33.7714 42.9648H14.0188Z" fill="black"/>
</svg>
