<svg width="82" height="71" viewBox="0 0 82 71" fill="none" xmlns="http://www.w3.org/2000/svg">
<path d="M2 20C2 15.0294 6.02944 11 11 11H69C74.5229 11 79 15.4772 79 21V68H2V20Z" fill="#F4F4F4"/>
<path d="M69.3657 9.93829H68.9603H68.555H49.9964V5.37489C49.9964 2.43427 47.5623 0 44.6215 0H32.3509C29.4103 0 26.976 2.43409 26.976 5.37489V9.83724H12.4736C5.57789 9.83724 0 15.5162 0 22.4121V70.279H81.1304V22.4121C81.1304 15.7194 75.8567 10.2427 69.3663 9.93847L69.3657 9.93829ZM29.6118 5.37489C29.6118 3.85398 30.8285 2.63656 32.3501 2.63656H44.6207C46.1416 2.63656 47.3591 3.85329 47.3591 5.37489V9.83724H29.6118V5.37489ZM12.4728 12.5756H61.5567C58.6161 14.9079 56.7903 18.3565 56.7903 22.4126V48.78L36.2034 48.7793V46.5482C36.2034 44.8243 34.7837 43.4046 33.0598 43.4046H26.5694C24.8455 43.4046 23.4258 44.8243 23.4258 46.5482V48.7793H2.73753V22.4119C2.73753 16.936 7.09793 12.5756 12.4728 12.5756V12.5756ZM33.4653 46.4475V53.6482C33.4653 53.8512 33.2623 54.0535 33.06 54.0535H26.5695C26.3665 54.0535 26.1642 53.8505 26.1642 53.6482V46.4475C26.1642 46.2445 26.3672 46.0422 26.5695 46.0422H33.06C33.2623 46.0414 33.4653 46.2445 33.4653 46.4475ZM2.73717 51.4164H23.4254V53.6475C23.4254 55.3714 24.8452 56.7911 26.569 56.7911H33.0595C34.7834 56.7911 36.2031 55.3713 36.2031 53.6475V51.4164H56.7899V67.5408L2.73681 67.5416L2.73717 51.4164ZM78.3912 67.5416H59.5284V22.4128C59.5284 17.1392 63.6865 12.7788 68.9595 12.6768C74.2331 12.8798 78.3905 17.1392 78.3905 22.4128L78.3912 67.5416Z" fill="black"/>
</svg>
