<svg width="61" height="69" viewBox="0 0 61 69" fill="none" xmlns="http://www.w3.org/2000/svg">
<rect x="5" y="2" width="54" height="65" rx="4" fill="#F4F4F4"/>
<path d="M53.0068 0.000656708H10.2365C8.25565 0.00258176 6.35639 0.790553 4.95617 2.19264C3.55606 3.59404 2.76945 5.49408 2.76945 7.47482V11.4994H1.43734C0.643599 11.4994 0 12.143 0 12.9367C0 13.7304 0.643599 14.374 1.43734 14.374H2.76945V25.8728H1.43734C0.643599 25.8728 0 26.5164 0 27.3101C0 28.1038 0.643599 28.7474 1.43734 28.7474H2.76945V40.2462H1.43734C0.643599 40.2462 0 40.8898 0 41.6835C0 42.4772 0.643599 43.1208 1.43734 43.1208H2.76945V54.6195H1.43734C0.643599 54.6195 0 55.2631 0 56.0569C0 56.8506 0.643599 57.4942 1.43734 57.4942H2.76945V61.5258C2.76945 63.5079 3.55742 65.4093 4.9588 66.8113C6.36086 68.2127 8.2614 69 10.2436 69H53.0057C54.9866 69 56.8865 68.214 58.2879 66.8138C59.6892 65.4136 60.4779 63.5143 60.4798 61.5329V7.47416C60.4798 5.49211 59.6925 3.59072 58.2905 2.18935C56.8891 0.7873 54.9879 0 53.0057 0L53.0068 0.000656708ZM5.64528 61.5253V57.4937H7.18784C7.98158 57.4937 8.62518 56.8501 8.62518 56.0564C8.62518 55.2627 7.98158 54.6191 7.18784 54.6191H5.64528V43.1203H7.18784C7.98158 43.1203 8.62518 42.4767 8.62518 41.683C8.62518 40.8893 7.98158 40.2457 7.18784 40.2457H5.64528V28.7469H7.18784C7.98158 28.7469 8.62518 28.1033 8.62518 27.3096C8.62518 26.5159 7.98158 25.8723 7.18784 25.8723H5.64528V14.3736H7.18784C7.98158 14.3736 8.62518 13.73 8.62518 12.9362C8.62518 12.1425 7.98158 11.4989 7.18784 11.4989H5.64528V7.47433C5.64528 6.25579 6.12909 5.0867 6.99021 4.2243C7.85134 3.36189 9.01925 2.8768 10.2378 2.87488H12.3046V66.1178H10.2378C9.02053 66.1159 7.85328 65.6314 6.99284 64.7709C6.13172 63.9098 5.64726 62.7426 5.64534 61.5253H5.64528ZM57.5998 61.5253H57.6004C57.5985 62.7426 57.114 63.9098 56.2529 64.7709C55.3924 65.6314 54.2252 66.1159 53.0079 66.1178H15.1788V2.87488H53.0079C54.2278 2.87488 55.3975 3.35933 56.2599 4.22174C57.123 5.08478 57.6075 6.25454 57.6075 7.47439L57.5998 61.5253Z" fill="black"/>
<path d="M41.3471 35.6286C43.514 34.088 44.9226 31.6971 45.2183 29.0546C45.5147 26.4122 44.6709 23.7685 42.8986 21.7865C41.1264 19.8044 38.593 18.6711 35.934 18.6711C33.275 18.6711 30.7417 19.8043 28.9694 21.7865C27.1971 23.7685 26.3533 26.4122 26.6498 29.0546C26.9456 31.6971 28.3541 34.088 30.5209 35.6286C25.8919 37.3413 22.3338 41.1252 20.9093 45.851C20.5012 47.2434 20.7739 48.7462 21.6453 49.9064C22.5167 51.0666 23.8841 51.748 25.3349 51.7442H46.5336C47.9921 51.75 49.3659 51.0602 50.2334 49.8872C51.1035 48.7354 51.3737 47.2371 50.9592 45.8536C49.5353 41.1271 45.9773 37.3419 41.3475 35.6286H41.3471ZM35.934 21.5599C37.6491 21.5599 39.2944 22.2414 40.5079 23.4541C41.7206 24.6675 42.4021 26.3127 42.4021 28.028C42.4021 29.7433 41.7206 31.3884 40.5079 32.6018C39.2945 33.8146 37.6493 34.496 35.934 34.496C34.2188 34.496 32.5736 33.8146 31.3602 32.6018C30.1474 31.3884 29.466 29.7433 29.466 28.028C29.4679 26.3134 30.15 24.6689 31.3628 23.4567C32.5749 22.244 34.2196 21.5619 35.934 21.5599ZM47.93 48.1663C47.6034 48.6104 47.0843 48.8715 46.5331 48.869H25.3344C24.7838 48.8696 24.2653 48.6084 23.9375 48.1663C23.6134 47.739 23.5127 47.1833 23.666 46.67C24.7158 43.1164 27.2549 40.1935 30.6262 38.6562C33.9975 37.1194 37.8694 37.1194 41.2407 38.6562C44.6119 40.1936 47.151 43.1164 48.2008 46.67C48.3542 47.1833 48.2535 47.739 47.9294 48.1663H47.93Z" fill="black"/>
</svg>
