<svg width="59" height="71" viewBox="0 0 59 71" fill="none" xmlns="http://www.w3.org/2000/svg">
<path d="M2 7C2 3.68629 4.68629 1 8 1H27C43.5685 1 57 14.4315 57 31V62C57 65.3137 54.3137 68 51 68H8C4.68629 68 2 65.3137 2 62V7Z" fill="#F4F4F4"/>
<path d="M58.7627 20.3522C58.7776 20.2025 58.7776 20.0503 58.7627 19.9006C58.7382 19.8044 58.7083 19.7098 58.672 19.6176V19.482C58.6263 19.3803 58.5735 19.2826 58.5136 19.1888V19.0981C58.4308 18.9759 58.3362 18.8624 58.2314 18.7592L40.1503 0.67809C40.047 0.573253 39.9335 0.478662 39.8113 0.395903H39.7207C39.6269 0.335994 39.5291 0.283184 39.4275 0.237463H39.2919L38.8733 0.0112327C38.7236 -0.00374423 38.5714 -0.00374423 38.4216 0.0112327H9.04054C6.64263 0.0112327 4.3434 0.964242 2.64854 2.65977C0.953009 4.35451 0 6.65387 0 9.05178V61.0337C0 63.4316 0.953009 65.7309 2.64854 67.4257C4.34328 69.1213 6.64263 70.0743 9.04054 70.0743H49.7221C52.12 70.0743 54.4192 69.1213 56.1141 67.4257C57.8096 65.731 58.7626 63.4316 58.7626 61.0337L58.7627 20.3522ZM40.6816 7.72986L51.0441 18.0924H40.6816V7.72986ZM49.7221 65.5537H9.04058C7.84164 65.5537 6.69231 65.0776 5.84417 64.2303C4.9968 63.3821 4.52069 62.2328 4.52069 61.0339V9.05189C4.52069 7.85295 4.9968 6.70362 5.84417 5.85548C6.69233 5.00811 7.8416 4.532 9.04058 4.532H36.1616V18.0923C36.1616 19.2912 36.6377 20.4406 37.4851 21.2887C38.3332 22.1361 39.4825 22.6122 40.6815 22.6122H54.2418V61.0336C54.2418 62.2326 53.7657 63.3819 52.9183 64.2301C52.0702 65.0774 50.9209 65.5535 49.7219 65.5535L49.7221 65.5537Z" fill="black"/>
<path d="M41.812 47.4733H16.9511C15.7033 47.4733 14.6912 48.4846 14.6912 49.7332C14.6912 50.981 15.7033 51.993 16.9511 51.993H41.812C43.0598 51.993 44.0719 50.9809 44.0719 49.7332C44.0719 48.4846 43.0598 47.4733 41.812 47.4733Z" fill="black"/>
<path d="M16.9511 38.4329H30.5122C31.76 38.4329 32.7721 37.4208 32.7721 36.173C32.7721 34.9244 31.76 33.9124 30.5122 33.9124H16.9511C15.7033 33.9124 14.6912 34.9245 14.6912 36.173C14.6912 37.4209 15.7033 38.4329 16.9511 38.4329Z" fill="black"/>
</svg>
