<svg width="82" height="70" viewBox="0 0 82 70" fill="none" xmlns="http://www.w3.org/2000/svg">
<rect x="2" y="19" width="77" height="49" rx="6" fill="#F4F4F4"/>
<rect x="2" y="10" width="73" height="49" rx="6" fill="#F4F4F4"/>
<rect x="2" y="2" width="31" height="49" rx="6" fill="#F4F4F4"/>
<path d="M9.49672 70C6.87926 70 4.50347 68.9332 2.78617 67.2132C1.06646 65.493 0 63.1167 0 60.501V6.02074C0 4.36863 0.67838 2.86261 1.77014 1.76826L1.76486 1.76591C2.85426 0.676247 4.35995 0 6.01931 0H25.732C26.5265 0 27.2853 0.148965 28.0094 0.443955C28.7282 0.738945 29.3761 1.16766 29.9484 1.73009L36.0508 7.72792C36.2725 7.94491 36.5023 8.10384 36.7369 8.19944C36.969 8.29268 37.2434 8.34078 37.5642 8.34078H69.8868C71.5362 8.34078 73.039 9.01698 74.1336 10.1067L74.1465 10.1196C75.2336 11.2145 75.9068 12.7153 75.9068 14.3644V16.7807H75.9801C77.6394 16.7807 79.1451 17.4569 80.2345 18.5466C81.324 19.6363 82 21.1448 82 22.8021V60.4985C82 63.1142 80.9335 65.49 79.2138 67.2107C77.4941 68.9308 75.1183 69.9976 72.5033 69.9976H9.49253L9.49672 70ZM72.0452 16.7824V14.3661C72.0452 13.7685 71.8053 13.2313 71.4195 12.8454L71.4119 12.8377C71.0261 12.4518 70.4867 12.212 69.8916 12.212H37.5689C36.7744 12.212 36.0156 12.063 35.2915 11.768C34.5727 11.473 33.9248 11.0443 33.3525 10.4819L27.2501 4.48106C27.0284 4.26406 26.7986 4.10747 26.5641 4.00954C26.3319 3.91394 26.0545 3.86585 25.7367 3.86585H6.02402C5.43124 3.86585 4.89417 4.10807 4.5008 4.49925L4.49846 4.49397L4.49318 4.49925C4.10737 4.88515 3.86756 5.42471 3.86756 6.01999V60.5002C3.86756 62.0514 4.5008 63.4566 5.52167 64.4777C6.54306 65.4993 7.9503 66.1322 9.50114 66.1322C11.0496 66.1322 12.4568 65.4988 13.4776 64.4777C14.499 63.456 15.1317 62.0484 15.1317 60.5002V22.8038C15.1317 21.1541 15.8048 19.6533 16.8942 18.5612L16.9071 18.5483C18.0018 17.4587 19.5046 16.7824 21.1539 16.7824H72.05L72.0452 16.7824ZM18.9951 60.5023C18.9951 62.6083 18.3044 64.5554 17.1394 66.1349H72.5085C74.0594 66.1349 75.4666 65.5015 76.488 64.4804C77.5094 63.4587 78.1421 62.0511 78.1421 60.5029V22.8065C78.1421 22.2136 77.9 21.6764 77.5089 21.2858C77.1178 20.8946 76.5784 20.6524 75.9856 20.6524H21.1509C20.5534 20.6524 20.0163 20.8923 19.6305 21.2781L19.6229 21.2858C19.2371 21.6717 18.9973 22.2112 18.9973 22.8065V60.5029L18.9951 60.5023Z" fill="black"/>
</svg>
