<svg width="70" height="70" viewBox="0 0 70 70" fill="none" xmlns="http://www.w3.org/2000/svg">
<path d="M55.8012 36.2618L53.7814 34.2271L45.0927 42.8871L37.946 35.7715L44.8028 28.9373V28.9368C50.0535 30.442 55.7113 29.042 59.6462 25.2635C64.6494 20.2838 65.5111 13.7164 61.9559 7.66098L61.022 6.06672L53.5712 13.3988L50.4503 13.3339L50.32 10.1731L57.7491 2.7398L56.0616 1.78686C50.327 -1.3594 43.7526 -0.298787 38.887 4.5581C34.3398 9.09784 33.1454 15.1884 35.6797 20.6953L29.2426 27.1112L17.0997 15.0371L19.5473 12.6123L8.2807 1.36172L1.11229 8.50645L12.3789 19.7354L15.0507 17.0724L27.1573 29.146L19.3807 36.9039C16.7952 36.1539 14.0567 36.098 11.4429 36.7419C8.82867 37.3857 6.43161 38.7061 4.49369 40.5702C-0.523721 45.5499 -1.39286 52.1243 2.15521 58.1573L3.09665 59.7591L10.5398 52.42L13.6824 52.5212L13.8274 55.7037L6.39066 63.1294L8.07761 64.0531H8.07812C10.1484 65.2135 12.4803 65.8291 14.8551 65.8433C18.7972 65.7728 22.5449 64.1236 25.253 61.2678C29.8073 56.7503 31.0023 50.6592 28.5042 45.1525L35.8607 37.82L43.0073 44.9356L33.7898 54.1227L35.8389 56.1651L39.8284 52.1887L57.691 70L70 57.7316L52.1155 39.9423L55.8012 36.2618ZM5.21071 8.50559L8.28051 5.44594L15.4489 12.5907L12.3791 15.6503L5.21071 8.50559ZM25.4847 45.5496C27.9681 50.1321 27.0993 55.3715 23.2254 59.2253C19.8006 62.6243 15.4055 63.7282 11.2855 62.3137L16.7741 56.8433L16.4554 49.7202L9.38849 49.4967L3.82014 55.0034C1.98824 50.6373 2.94385 46.1989 6.55712 42.6122C10.2572 38.9101 15.6297 38.5854 19.3081 39.9059L20.1768 40.216L39.1914 21.2719L38.6772 20.3265C36.1933 15.7149 37.0626 10.4468 40.9365 6.62239C44.3684 3.2305 48.7635 2.11899 52.8546 3.53348L47.3661 9.00341L47.6701 16.119L54.7301 16.3209L60.2979 10.8151C62.1369 15.1888 61.1959 19.6343 57.5826 23.221C53.8825 26.9231 48.5172 27.2553 44.8391 25.9419L43.9916 25.6021L24.9564 44.6041L25.4847 45.5496ZM65.9019 57.746L57.6905 65.9153L41.8696 50.1402L50.0659 41.9851L65.9019 57.746Z" fill="black"/>
</svg>
