<svg width="56" height="70" viewBox="0 0 56 70" fill="none" xmlns="http://www.w3.org/2000/svg">
<path fill-rule="evenodd" clip-rule="evenodd" d="M17.7734 3.37639C17.9564 3.38137 18.1382 3.41785 18.309 3.48419C18.4793 3.55052 18.6385 3.6467 18.7761 3.76721C18.9138 3.88772 19.0304 4.032 19.1194 4.19175C19.2084 4.35151 19.2692 4.5273 19.2985 4.70805C19.3278 4.88881 19.3251 5.07455 19.2913 5.25421C19.2576 5.43387 19.1924 5.608 19.0995 5.76555C18.9138 6.08064 18.6153 6.32829 18.2714 6.45211C9.45343 9.77444 3.17049 18.289 3.17049 28.292C3.17049 35.0686 6.05497 41.1503 10.6597 45.4208C10.8493 45.5966 10.9947 45.8194 11.0793 46.0632C11.1638 46.3075 11.1876 46.5723 11.1478 46.8277L9.13448 59.7153L33.8485 66.1664L35.0342 57.084C35.063 56.8657 35.137 56.6539 35.2515 56.466C35.3659 56.278 35.5196 56.1144 35.7003 55.9884C35.8805 55.8629 36.0878 55.775 36.3034 55.733C36.5195 55.691 36.744 55.6949 36.9585 55.7435L44.3482 57.4289L45.6135 49.6949C45.6434 49.5114 45.7064 49.3328 45.7976 49.1709C45.8894 49.0089 46.0093 48.863 46.1514 48.7425C46.2929 48.622 46.4565 48.5269 46.6306 48.4627C46.8053 48.3986 46.9911 48.3655 47.1774 48.3655H52.436L49.462 34.2367C49.4354 34.1118 49.4244 33.9841 49.4288 33.8569L49.7024 25.7387C48.771 17.1666 43.1945 9.99246 35.5468 6.77018C35.3528 6.69169 35.1742 6.5745 35.0249 6.4269C34.8762 6.2793 34.7569 6.10241 34.6761 5.90893C34.5954 5.71545 34.554 5.50594 34.5545 5.29644C34.5551 5.08693 34.5977 4.87743 34.6789 4.68451C34.7602 4.49158 34.8801 4.31469 35.0299 4.16821C35.1797 4.02171 35.3583 3.90508 35.5529 3.82713C35.7475 3.74974 35.9575 3.71105 36.167 3.71492C36.3765 3.71879 36.5849 3.76411 36.7767 3.84869C45.5031 7.5248 51.8466 15.7275 52.8669 25.5116C52.8746 25.5841 52.8768 25.6565 52.8746 25.7294L52.6037 33.772L55.9398 49.6244C55.9879 49.8543 55.9846 50.0948 55.9293 50.3231C55.874 50.5514 55.7673 50.767 55.6192 50.9494C55.471 51.1318 55.282 51.2805 55.0703 51.3817C54.858 51.4828 54.6236 51.5359 54.3887 51.5359H48.5236L47.2036 59.6054C47.1687 59.8183 47.0897 60.0239 46.9736 60.2052C46.857 60.3865 46.7033 60.5441 46.5242 60.6646C46.3451 60.7851 46.1417 60.8686 45.9294 60.9078C45.7177 60.9476 45.4971 60.9427 45.287 60.8951L37.9515 59.2219L36.7586 68.3588C36.7299 68.5811 36.653 68.7967 36.5347 68.9874C36.417 69.1781 36.2583 69.3428 36.0721 69.4683C35.8863 69.5938 35.6735 69.6783 35.4529 69.7165C35.2318 69.7546 35.0035 69.7441 34.7863 69.6877L6.94624 62.4207C6.75829 62.3715 6.57974 62.2875 6.42165 62.1742C6.2641 62.0608 6.12757 61.9182 6.02088 61.7557C5.91419 61.5932 5.8379 61.4113 5.797 61.2212C5.7561 61.0316 5.75002 60.8342 5.78042 60.6418L7.8877 47.1539C3.02486 42.3456 0 35.6636 0 28.2915C0 16.9605 7.12593 7.26392 17.1529 3.4855C17.3497 3.40811 17.5622 3.37086 17.7734 3.37639Z" fill="black"/>
<path fill-rule="evenodd" clip-rule="evenodd" d="M31.0417 0C31.249 0 31.4563 0.0414592 31.6481 0.120507C31.84 0.200109 32.0157 0.317297 32.1622 0.464344C32.3087 0.610839 32.4265 0.786613 32.5055 0.978436C32.5851 1.17026 32.626 1.37755 32.626 1.58485V24.9488C35.8725 26.768 38.0781 30.2411 38.0781 34.2113C38.0781 37.5618 36.5104 40.5568 34.0737 42.5053L37.7702 48.9033C37.8769 49.0829 37.9476 49.2842 37.9769 49.4909C38.0062 49.6982 37.9941 49.911 37.941 50.1133C37.8879 50.3157 37.7951 50.5075 37.6679 50.6739C37.5413 50.8402 37.381 50.9812 37.2003 51.0857C37.0189 51.1902 36.8172 51.2587 36.6099 51.2853C36.4026 51.3123 36.1897 51.2974 35.988 51.2416C35.7862 51.1863 35.5961 51.0907 35.4308 50.9619C35.266 50.8331 35.1273 50.6716 35.0245 50.4892L31.3307 44.0962C30.1295 44.57 28.8226 44.8303 27.4579 44.8303C21.6099 44.8303 16.8388 40.0592 16.8388 34.2112C16.8388 30.2411 19.0433 26.7669 22.2909 24.9476V1.58506C22.2909 1.37778 22.3324 1.17047 22.4114 0.978649C22.491 0.786827 22.6082 0.611039 22.7547 0.464557C22.9018 0.318062 23.077 0.200323 23.2688 0.120721C23.4606 0.0411196 23.6679 0.000213774 23.8752 0.000213774L31.0417 0ZM29.4569 3.16963H25.463V23.7896C26.1103 23.6658 26.7775 23.6 27.4601 23.6C28.1423 23.6 28.8101 23.6658 29.4573 23.7902L29.4569 3.16963ZM27.4597 26.7699C23.3227 26.7699 20.0103 30.0833 20.0103 34.2116C20.0103 38.3486 23.322 41.661 27.4597 41.661C31.5874 41.661 34.9092 38.347 34.9092 34.2116C34.9092 30.085 31.588 26.7699 27.4597 26.7699Z" fill="black"/>
</svg>
