<svg width="56" height="70" viewBox="0 0 56 70" fill="none" xmlns="http://www.w3.org/2000/svg">
<circle cx="27" cy="28" r="25" fill="#F4F4F4"/>
<rect x="11.1372" y="40" width="27.9933" height="21.5115" transform="rotate(11.3618 11.1372 40)" fill="#F4F4F4"/>
<rect x="22.2378" y="33" width="27.9933" height="21.5115" transform="rotate(11.3618 22.2378 33)" fill="#F4F4F4"/>
<rect x="23" y="31.3469" width="27.9933" height="21.5115" transform="rotate(-6.86675 23 31.3469)" fill="#F4F4F4"/>
<path fill-rule="evenodd" clip-rule="evenodd" d="M17.7734 3.37651C17.9564 3.38149 18.1382 3.41797 18.309 3.48431C18.4793 3.55064 18.6385 3.64682 18.7761 3.76734C18.9138 3.88784 19.0304 4.03212 19.1194 4.19188C19.2084 4.35163 19.2692 4.52742 19.2985 4.70818C19.3278 4.88893 19.3251 5.07467 19.2913 5.25434C19.2576 5.43399 19.1924 5.60812 19.0995 5.76567C18.9138 6.08076 18.6153 6.32841 18.2714 6.45224C9.45343 9.77456 3.17049 18.2892 3.17049 28.2921C3.17049 35.0688 6.05497 41.1505 10.6597 45.4209C10.8493 45.5967 10.9947 45.8195 11.0793 46.0633C11.1638 46.3076 11.1876 46.5724 11.1478 46.8278L9.13448 59.7154L33.8485 66.1665L35.0342 57.0841C35.063 56.8658 35.137 56.6541 35.2515 56.4661C35.3659 56.2782 35.5196 56.1145 35.7003 55.9885C35.8805 55.863 36.0878 55.7751 36.3034 55.7331C36.5195 55.6911 36.744 55.695 36.9585 55.7436L44.3482 57.4291L45.6135 49.695C45.6434 49.5115 45.7064 49.333 45.7976 49.171C45.8894 49.009 46.0093 48.8631 46.1514 48.7426C46.2929 48.6221 46.4565 48.527 46.6306 48.4629C46.8053 48.3987 46.9911 48.3656 47.1774 48.3656H52.436L49.462 34.2368C49.4354 34.1119 49.4244 33.9842 49.4288 33.8571L49.7024 25.7388C48.771 17.1668 43.1945 9.99258 35.5468 6.77031C35.3528 6.69181 35.1742 6.57462 35.0249 6.42702C34.8762 6.27942 34.7569 6.10253 34.6761 5.90905C34.5954 5.71557 34.554 5.50606 34.5545 5.29657C34.5551 5.08705 34.5977 4.87756 34.6789 4.68463C34.7602 4.4917 34.8801 4.31481 35.0299 4.16833C35.1797 4.02184 35.3583 3.9052 35.5529 3.82725C35.7475 3.74986 35.9575 3.71117 36.167 3.71504C36.3765 3.71891 36.5849 3.76424 36.7767 3.84881C45.5031 7.52492 51.8466 15.7276 52.8669 25.5118C52.8746 25.5842 52.8768 25.6566 52.8746 25.7296L52.6037 33.7721L55.9398 49.6245C55.9879 49.8544 55.9846 50.0949 55.9293 50.3232C55.874 50.5515 55.7673 50.7671 55.6192 50.9495C55.471 51.1319 55.282 51.2806 55.0703 51.3818C54.858 51.483 54.6236 51.536 54.3887 51.536H48.5236L47.2036 59.6056C47.1687 59.8184 47.0897 60.024 46.9736 60.2053C46.857 60.3867 46.7033 60.5442 46.5242 60.6647C46.3451 60.7852 46.1417 60.8687 45.9294 60.908C45.7177 60.9478 45.4971 60.9428 45.287 60.8952L37.9515 59.222L36.7586 68.359C36.7299 68.5812 36.653 68.7968 36.5347 68.9875C36.417 69.1782 36.2583 69.3429 36.0721 69.4684C35.8863 69.5939 35.6735 69.6785 35.4529 69.7166C35.2318 69.7547 35.0035 69.7442 34.7863 69.6879L6.94624 62.4208C6.75829 62.3716 6.57974 62.2876 6.42165 62.1743C6.2641 62.061 6.12757 61.9184 6.02088 61.7558C5.91419 61.5933 5.8379 61.4114 5.797 61.2213C5.7561 61.0317 5.75002 60.8343 5.78042 60.642L7.8877 47.154C3.02486 42.3458 0 35.6638 0 28.2916C0 16.9606 7.12593 7.26404 17.1529 3.48562C17.3497 3.40823 17.5622 3.37099 17.7734 3.37651Z" fill="black"/>
<path fill-rule="evenodd" clip-rule="evenodd" d="M31.0418 0C31.2491 0 31.4564 0.0414592 31.6482 0.120507C31.84 0.200109 32.0158 0.317297 32.1623 0.464344C32.3088 0.610839 32.4265 0.786613 32.5056 0.978436C32.5852 1.17026 32.6261 1.37755 32.6261 1.58485V24.9488C35.8726 26.768 38.0782 30.2411 38.0782 34.2113C38.0782 37.5618 36.5105 40.5568 34.0738 42.5053L37.7703 48.9033C37.8769 49.0829 37.9477 49.2842 37.977 49.4909C38.0063 49.6982 37.9941 49.911 37.9411 50.1133C37.888 50.3157 37.7951 50.5075 37.668 50.6739C37.5414 50.8402 37.3811 50.9812 37.2003 51.0857C37.019 51.1902 36.8172 51.2587 36.6099 51.2853C36.4026 51.3123 36.1898 51.2974 35.9881 51.2416C35.7863 51.1863 35.5961 51.0907 35.4308 50.9619C35.2661 50.8331 35.1274 50.6716 35.0245 50.4892L31.3307 44.0962C30.1295 44.57 28.8227 44.8303 27.4579 44.8303C21.61 44.8303 16.8389 40.0592 16.8389 34.2112C16.8389 30.2411 19.0434 26.7669 22.291 24.9476V1.58506C22.291 1.37778 22.3324 1.17047 22.4115 0.978649C22.4911 0.786827 22.6083 0.611039 22.7548 0.464557C22.9018 0.318062 23.077 0.200323 23.2689 0.120721C23.4607 0.0411196 23.668 0.000213774 23.8753 0.000213774L31.0418 0ZM29.457 3.16963H25.463V23.7896C26.1103 23.6658 26.7776 23.6 27.4602 23.6C28.1423 23.6 28.8101 23.6658 29.4574 23.7902L29.457 3.16963ZM27.4598 26.7699C23.3228 26.7699 20.0103 30.0833 20.0103 34.2116C20.0103 38.3486 23.3221 41.661 27.4598 41.661C31.5875 41.661 34.9092 38.347 34.9092 34.2116C34.9092 30.085 31.588 26.7699 27.4598 26.7699Z" fill="black"/>
</svg>
