<svg width="61" height="71" viewBox="0 0 61 71" fill="none" xmlns="http://www.w3.org/2000/svg">
<rect x="8" y="17.84" width="35.6582" height="50.6829" rx="3" transform="rotate(-6.82086 8 17.84)" fill="#F4F4F4"/>
<rect x="19.7407" y="13.757" width="35.6582" height="50.6829" rx="3" transform="rotate(6.23405 19.7407 13.757)" fill="#F4F4F4"/>
<rect x="19.326" y="2.17004" width="21.5094" height="50.6829" rx="3" transform="rotate(0.36852 19.326 2.17004)" fill="#F4F4F4"/>
<rect x="59" y="10.17" width="10" height="56" rx="3" transform="rotate(90 59 10.17)" fill="#F4F4F4"/>
<path d="M60.9996 11.4879C60.9996 10.3266 60.0569 9.38463 58.8964 9.38463H43.1204V2.10327C43.1204 0.941937 42.1777 0 41.0171 0H19.9825C18.8212 0 17.8792 0.942707 17.8792 2.10327V9.38463H2.10327C0.941936 9.38463 0 10.3273 0 11.4879V19.9019C0 21.0633 0.942706 22.0052 2.10327 22.0052H5.46543L10.5297 68.5894C10.6449 69.6575 11.5465 70.466 12.6206 70.466H48.3794C49.4535 70.466 50.3544 69.6575 50.4703 68.5894L55.5346 22.0052H58.8967C60.0581 22.0052 61 21.0625 61 19.9019L60.9996 11.4879ZM22.0856 4.2073H38.9137V9.38519L22.0856 9.38446V4.2073ZM46.4914 66.2594H14.5075L9.70672 22.0867H51.2933L46.4914 66.2594ZM56.7923 17.799H4.2058V13.5925H19.4337C19.6098 13.6394 19.7917 13.6732 19.9818 13.6732H41.0164C41.2064 13.6732 41.3883 13.6394 41.5644 13.5925H56.7923V17.799Z" fill="black"/>
<path d="M36.8098 57.8449C37.9712 57.8449 38.9131 56.9022 38.9131 55.7416V31.5518C38.9131 30.3905 37.9704 29.4485 36.8098 29.4485C35.6485 29.4485 34.7065 30.3913 34.7065 31.5518V55.7416C34.7058 56.903 35.6485 57.8449 36.8098 57.8449Z" fill="black"/>
<path d="M24.189 57.8449C25.3504 57.8449 26.2923 56.9022 26.2923 55.7416L26.293 31.5518C26.293 30.3905 25.3503 29.4485 24.1898 29.4485C23.0284 29.4485 22.0865 30.3913 22.0865 31.5518V55.7416C22.0858 56.903 23.0285 57.8449 24.189 57.8449H24.189Z" fill="black"/>
</svg>
