<svg width="76" height="89" viewBox="0 0 76 89" fill="none" xmlns="http://www.w3.org/2000/svg">
<path d="M5.61789 28.8285C4.08442 28.8285 2.78333 29.3632 1.71381 30.4328C0.644295 31.5023 0.109375 32.7857 0.109375 34.2836V57.2822C0.109375 58.8176 0.644134 60.1176 1.71381 61.1872C2.78333 62.2568 4.08442 62.7917 5.61789 62.7917C7.15023 62.7917 8.44343 62.2569 9.49637 61.1872C10.5472 60.1177 11.0741 58.8176 11.0741 57.2822V34.2836C11.0741 32.7855 10.5393 31.5023 9.46966 30.4328C8.39998 29.3632 7.11579 28.8285 5.61789 28.8285Z" fill="white"/>
<path d="M49.9045 8.18259L53.7021 1.17714C53.9513 0.713351 53.8627 0.357704 53.4352 0.107624C52.9713 -0.108017 52.6148 0.00125167 52.3657 0.427707L48.5151 7.48916C45.1268 5.99109 41.5431 5.24069 37.7641 5.24069C33.9842 5.24069 30.4003 5.99125 27.0132 7.48916L23.1624 0.427707C22.9122 0.00125167 22.5557 -0.107052 22.0929 0.107624C21.6645 0.35883 21.5759 0.713351 21.8261 1.17714L25.6238 8.18259C21.773 10.1464 18.7061 12.8813 16.4241 16.3934C14.1422 19.9074 13.0007 23.7474 13.0007 27.9202H62.4737C62.4737 23.7484 61.3321 19.9082 59.0503 16.3934C56.7682 12.8813 53.719 10.1464 49.9045 8.18259ZM27.9489 18.3721C27.5382 18.7838 27.0477 18.9886 26.4775 18.9886C25.9062 18.9886 25.4257 18.7838 25.0337 18.3721C24.6417 17.9624 24.4457 17.4738 24.4457 16.9017C24.4457 16.3316 24.6417 15.842 25.0337 15.4314C25.4257 15.0216 25.9073 14.8168 26.4775 14.8168C27.0477 14.8168 27.5382 15.0216 27.9489 15.4314C28.3586 15.843 28.5644 16.3316 28.5644 16.9017C28.5633 17.4729 28.3576 17.9624 27.9489 18.3721ZM50.4924 18.3721C50.0996 18.7838 49.6179 18.9886 49.0487 18.9886C48.4773 18.9886 47.9869 18.7838 47.577 18.3721C47.1665 17.9624 46.9617 17.4738 46.9617 16.9017C46.9617 16.3316 47.1665 15.842 47.577 15.4314C47.9869 15.0216 48.4773 14.8168 49.0487 14.8168C49.6189 14.8168 50.0994 15.0216 50.4924 15.4314C50.8847 15.843 51.0804 16.3316 51.0804 16.9017C51.0804 17.4729 50.8846 17.9624 50.4924 18.3721Z" fill="white"/>
<path d="M13.2131 65.4654C13.2131 67.1072 13.7833 68.497 14.9238 69.6375C16.0652 70.7779 17.455 71.3481 19.0956 71.3481H23.0538L23.108 83.4906C23.108 85.0239 23.6428 86.326 24.7123 87.3957C25.7818 88.4654 27.0662 89.0001 28.5631 89.0001C30.0956 89.0001 31.3975 88.4654 32.4672 87.3957C33.5368 86.326 34.0716 85.0241 34.0716 83.4906V71.3492H41.4523V83.4906C41.4523 85.0239 41.9869 86.326 43.0566 87.3957C44.1263 88.4654 45.4271 89.0001 46.9607 89.0001C48.4932 89.0001 49.7951 88.4654 50.8648 87.3957C51.9344 86.326 52.469 85.0241 52.469 83.4906V71.3492H56.4806C58.0849 71.3492 59.4568 70.7789 60.5993 69.6384C61.7397 68.4979 62.3102 67.1082 62.3102 65.4666V29.8438H13.2131V65.4654Z" fill="white"/>
<path d="M69.9081 28.8285C68.4101 28.8285 67.1268 29.3554 66.0572 30.4062C64.9876 31.459 64.4529 32.7522 64.4529 34.2836V57.2822C64.4529 58.8176 64.9875 60.1176 66.0572 61.1872C67.1268 62.2569 68.411 62.7917 69.9081 62.7917C71.4406 62.7917 72.7425 62.2569 73.8122 61.1872C74.8819 60.1176 75.4165 58.8176 75.4165 57.2822V34.2836C75.4165 32.752 74.8819 31.459 73.8122 30.4062C72.7425 29.3554 71.4406 28.8285 69.9081 28.8285Z" fill="white"/>
</svg>
