<svg width="90" height="89" viewBox="0 0 90 89" fill="none" xmlns="http://www.w3.org/2000/svg">
<path d="M70.5375 45.2481L64.0226 49.0107V41.3416L57.0196 37.2987L64.0226 33.2558V11.4004L45.0968 0.474121L26.1732 11.401V33.2544L33.1746 37.2973L26.1732 41.3402V49.0093L19.6583 45.2467L0.731689 56.1722V78.0255L19.6583 88.9532L38.5835 78.0255V70.3572L45.0968 74.1206L51.6109 70.358V78.0263L70.5367 88.954L89.4603 78.0263V56.173L70.5375 45.2481ZM85.8637 73.8775L72.3354 66.0663V50.4414L85.8637 58.2518V73.8775ZM60.426 29.1035L46.8977 21.2923V5.66818L60.426 13.4802V29.1035ZM43.2995 5.66756V21.2925L29.7704 29.1037V13.4796L43.2995 5.66756ZM31.5683 32.2175L45.0974 24.4047L58.6282 32.2167L53.4214 35.2221L45.0974 30.4164L36.7734 35.2221L31.5683 32.2175ZM49.8265 37.2989L45.0974 40.0296L40.3699 37.2995L45.0974 34.5689L49.8265 37.2989ZM45.0974 44.1829L53.4231 39.3763L58.6298 42.3817L45.0974 50.193L31.5683 42.3801L36.7734 39.3747L45.0974 44.1829ZM17.8604 50.4414V66.0663L4.32887 73.8775L4.32807 58.2518L17.8604 50.4414ZM6.12919 76.9913L19.6583 69.1809L33.1858 76.9913L19.6591 84.8026L6.12919 76.9913ZM34.9876 73.8773L21.4584 66.0661V50.4412L26.1747 53.1655V63.1956L34.9876 68.2841V73.8773ZM34.9876 64.13L29.7712 61.1174V55.239L34.9876 58.2516V64.13ZM29.7712 51.0873V45.4947L43.3003 53.3084V68.9309L38.5841 66.2057V56.1742L29.7712 51.0873ZM46.8969 68.9311V53.3094L60.4252 45.4958V51.0883L51.6123 56.1752V66.2068L46.8969 68.9311ZM60.4268 55.239V61.1174L55.2105 64.13V58.2516L60.4268 55.239ZM64.0234 63.1956V53.1655L68.7404 50.4412V66.0661L55.2097 73.8773V68.2841L64.0234 63.1956ZM57.01 76.9915L70.5383 69.1811L84.0666 76.9915L70.5391 84.8028L57.01 76.9915Z" fill="white"/>
</svg>
