<svg width="89" height="90" viewBox="0 0 89 90" fill="none" xmlns="http://www.w3.org/2000/svg">
<g clip-path="url(#clip0_26_7814)">
<path d="M45.897 89.9543H44.0911C43.8657 89.9225 43.6413 89.8798 43.4147 89.8601C41.9752 89.732 40.5292 89.6553 39.0962 89.4746C37.0236 89.2129 34.9804 88.7748 32.9707 88.1943C26.1839 86.234 20.2037 82.8236 15.0299 77.9763C11.2848 74.4673 8.23989 70.4162 5.88876 65.834C3.17775 60.5497 1.60274 54.9347 1.12471 49.0076C0.946936 46.7975 0.950187 44.5831 1.09219 42.3675C1.24069 40.0523 1.5648 37.7623 2.08185 35.504C4.07419 26.8181 8.28867 19.4004 14.6332 13.2236C18.4802 9.47919 22.8908 6.57695 27.8077 4.46544C32.6271 2.39555 37.6578 1.2467 42.8814 1.00576C45.4298 0.888577 47.9783 0.96743 50.5158 1.30694C52.4193 1.56102 54.3032 1.9071 56.1579 2.40321C69.8268 6.06331 80.918 16.0667 86.0094 29.3491C87.7611 33.9193 88.7854 38.6483 88.8982 43.5624C88.9036 43.7902 88.9567 44.0158 88.9881 44.2425V46.5894C88.9567 46.8304 88.8992 47.0713 88.8982 47.3112C88.8895 49.1259 88.6705 50.9176 88.3822 52.7049C87.6342 57.3398 86.1817 61.7391 84.0376 65.903C81.0697 71.6658 77.0352 76.5361 71.9622 80.5215C67.1656 84.29 61.8238 86.9469 55.9346 88.478C54.2577 88.9139 52.5613 89.249 50.8475 89.4801C49.8557 89.6137 48.8552 89.6783 47.8579 89.7648C47.316 89.8119 46.7718 89.8371 46.2298 89.8798C46.1182 89.8886 46.0087 89.9302 45.8981 89.9565L45.897 89.9543ZM18.2374 26.9933C18.2243 27.2628 18.2059 27.4763 18.2059 27.6899C18.2048 33.916 18.2048 40.1432 18.2048 46.3693C18.2048 48.1939 18.2038 50.0185 18.207 51.843C18.207 52.0237 18.2384 52.2055 18.2601 52.4268C19.2693 52.418 20.234 52.4563 21.2378 52.3994C21.2378 48.7502 21.2508 45.1613 21.2345 41.5724C21.2183 37.9956 21.3104 34.4176 21.1706 30.8276C21.4665 31.3489 21.731 31.8614 22.0388 32.3455C24.5385 36.2794 27.0468 40.2078 29.5529 44.1384C31.2136 46.7417 32.8818 49.3405 34.5251 51.9547C34.756 52.3216 35.0053 52.4552 35.427 52.4377C36.228 52.4049 37.0312 52.429 37.8345 52.4279C38.5596 52.4279 38.5195 52.4837 38.5195 51.7554C38.5152 43.7047 38.5119 35.653 38.5076 27.6023C38.5076 27.53 38.5119 27.4566 38.5065 27.3854C38.4978 27.2737 38.4816 27.162 38.4675 27.0361H35.5148C35.5061 27.2222 35.4931 27.3778 35.492 27.5344C35.4866 30.2417 35.4801 32.95 35.4779 35.6573C35.4747 38.9013 35.4725 42.1441 35.4779 45.388C35.4779 45.9236 35.5104 46.458 35.5364 46.9936C35.5581 47.4415 35.5939 47.8883 35.6297 48.4326C35.4595 48.1479 35.3446 47.9486 35.2221 47.7547C32.9739 44.191 30.7258 40.6273 28.4755 37.0646C26.4484 33.8558 24.4149 30.6513 22.3998 27.4358C22.1895 27.1007 21.9619 26.9736 21.5727 26.9857C20.6275 27.0142 19.6812 26.9944 18.736 26.9944C18.5831 26.9944 18.4292 26.9944 18.2395 26.9944L18.2374 26.9933ZM48.0888 49.5322C48.0574 49.3931 48.0346 49.3362 48.0346 49.2803C48.0216 46.5873 48.0097 43.8931 47.9989 41.2001C47.9989 41.1146 48.0173 41.0292 48.0292 40.9438C48.0314 40.9306 48.0433 40.9186 48.0531 40.9076C48.0617 40.8978 48.0736 40.8901 48.13 40.843C49.072 40.843 50.0595 40.843 51.047 40.843C52.0345 40.843 53.0534 40.8474 54.0572 40.843C55.0403 40.8386 56.0246 40.8649 57.0641 40.8244C57.0739 39.899 57.0804 39.0272 57.0587 38.1248C56.8148 38.1138 56.6327 38.0985 56.4495 38.0985C53.8263 38.0974 51.2031 38.0985 48.5809 38.0952C48.401 38.0952 48.2221 38.0711 48.0552 38.0602C47.9663 37.5531 47.9826 30.1026 48.0736 29.7433H51.2811C52.3423 29.7433 53.4024 29.7433 54.4637 29.7433C55.5324 29.7433 56.6023 29.7401 57.6852 29.739V27.0317H44.9627V52.4202C49.4232 52.4443 53.8545 52.4158 58.3139 52.4092C58.328 52.1913 58.3454 52.0358 58.3475 51.8803C58.3551 51.3009 58.3594 50.7216 58.3627 50.1422C58.3649 49.748 58.1683 49.5501 57.773 49.5486C54.7346 49.5432 51.6963 49.5388 48.6568 49.5333C48.4747 49.5333 48.2915 49.5333 48.091 49.5333L48.0888 49.5322ZM60.5371 29.7477H67.7347V47.3473C67.7347 48.1873 67.7271 49.0273 67.7369 49.8662C67.7456 50.6986 67.6968 51.5331 67.7672 52.3534C68.3157 52.4607 70.4067 52.4344 70.7503 52.3074C70.7503 52.1563 70.7503 51.9854 70.7503 51.8146C70.7503 50.5113 70.7503 49.2091 70.7503 47.9059C70.7503 42.0565 70.7503 36.2082 70.7514 30.3588C70.7514 30.1628 70.7709 29.9668 70.7818 29.7433C72.0175 29.7433 73.2044 29.7477 74.3925 29.7423C75.5902 29.7368 76.788 29.7653 78.0118 29.7225C78.0238 28.7938 78.0389 27.9188 78.0042 27.0525C77.4395 26.9627 60.8894 26.9846 60.5285 27.0821C60.5231 27.9429 60.5079 28.8157 60.5371 29.7488V29.7477ZM61.1138 66.3213C61.1724 65.3959 61.1691 64.5614 60.8743 63.7553C60.5599 62.8967 60.0635 62.1958 59.2125 61.8026C58.7215 61.5759 58.2066 61.5004 57.6679 61.5058C56.3649 61.5201 55.3178 62.0469 54.623 63.1497C53.5022 64.9283 53.5065 66.7791 54.4712 68.6267C54.9178 69.482 55.6669 69.9946 56.5817 70.2049C57.0771 70.3188 57.605 70.3352 58.1156 70.3177C58.8819 70.2903 59.6103 70.0713 60.2716 69.666C60.3735 69.6036 60.51 69.4952 60.5176 69.3988C60.5469 69.033 60.5296 68.6628 60.5296 68.2346C60.3865 68.3047 60.3073 68.3321 60.2412 68.377C59.5995 68.8195 58.8938 69.0483 58.1166 69.1152C56.6945 69.2378 55.5953 68.3945 55.3731 66.9631C55.3428 66.7715 55.3384 66.5754 55.3167 66.3202H61.1127L61.1138 66.3213ZM36.9196 68.2872C36.706 68.388 36.5781 68.4493 36.4491 68.5084C35.324 69.0243 34.1468 69.2225 32.9327 68.9706C31.4954 68.6727 30.535 67.7626 30.044 66.3892C29.5497 65.0071 29.5703 63.5965 30.1177 62.2319C30.6737 60.8443 31.6786 59.92 33.143 59.5893C34.2801 59.333 35.3901 59.5038 36.4567 59.966C36.5955 60.0262 36.7364 60.0832 36.9478 60.1708C36.9532 59.8006 36.9619 59.5038 36.9619 59.2059C36.9619 58.7131 36.9575 58.7087 36.5098 58.5631C35.6849 58.2937 34.8373 58.183 33.9723 58.2148C31.8022 58.2948 30.1112 59.2311 29.0294 61.1477C27.9963 62.9788 27.9237 64.9305 28.611 66.8897C29.1464 68.4142 30.2001 69.4777 31.723 70.0373C32.6758 70.3878 33.6623 70.3867 34.6487 70.298C35.3348 70.2366 35.9982 70.0515 36.6313 69.769C36.7602 69.7109 36.9142 69.666 36.9174 69.4842C36.9228 69.1141 36.9185 68.7428 36.9185 68.2861L36.9196 68.2872ZM38.4296 65.9249C38.4458 66.1844 38.4458 66.4473 38.4805 66.7047C38.6464 67.9236 39.184 68.9301 40.1943 69.6441C42.1292 71.012 45.6336 70.5148 46.5127 67.1843C46.7187 66.4046 46.736 65.604 46.5973 64.8133C46.3079 63.1727 45.4147 61.979 43.8212 61.5683C42.7514 61.4839 42.0305 61.3821 41.1557 61.6833C40.1455 62.0304 39.3954 62.6842 38.9173 63.6546C38.5651 64.3708 38.4209 65.1298 38.4296 65.9249ZM48.6666 70.1315C49.2064 70.1501 49.6552 70.1928 50.1354 70.1008C50.1354 69.8851 50.1354 69.7131 50.1354 69.5412C50.1354 68.239 50.1354 66.9368 50.1354 65.6347C50.1354 64.9677 50.3055 64.3478 50.6372 63.7739C51.0806 63.0084 51.8643 62.7072 52.6979 62.9767C52.803 63.0106 52.9082 63.0457 53.0751 63.1004C53.0751 62.7237 53.0783 62.394 53.0751 62.0644C53.0697 61.6964 53.0198 61.6438 52.6643 61.6011C51.7006 61.485 50.9592 61.8453 50.4302 62.6623C50.3489 62.7883 50.2698 62.9175 50.1896 63.0446C50.1679 63.038 50.1462 63.0314 50.1245 63.0248V61.6876C49.485 61.6537 49.3668 61.6811 48.6687 61.6778C48.6687 64.4267 48.6677 67.3037 48.6687 70.1326L48.6666 70.1315ZM11.1308 48.7283C10.0794 48.6539 9.12116 49.6811 9.13633 50.7347C9.15259 51.8474 10.0328 52.7739 11.1135 52.7718C12.1931 52.7696 13.1319 51.8376 13.121 50.7511C13.1091 49.4829 12.011 48.6626 11.1298 48.7283H11.1308Z" fill="#00A3FF"/>
<path d="M59.6536 65.0716H55.4001C55.3871 65.0322 55.361 64.9917 55.3643 64.9544C55.5009 63.5997 56.7008 62.6195 58.0341 62.7805C58.3983 62.8243 58.7279 62.9754 58.9869 63.2383C59.466 63.7234 59.6742 64.3181 59.6536 65.0716Z" fill="#00A3FF"/>
<path d="M45.2108 66.0287C45.2379 66.5566 45.1447 67.1185 44.9181 67.6639C44.3761 68.9693 43.1664 69.2595 42.2266 69.127C41.1741 68.9792 40.4684 68.379 40.1215 67.3824C39.7573 66.3343 39.7768 65.2774 40.2332 64.2545C40.8283 62.9228 42.0185 62.5187 43.3821 62.8297C43.9935 62.9688 44.452 63.3598 44.7588 63.9238C45.0937 64.5382 45.2097 65.0453 45.2108 66.0287Z" fill="#00A3FF"/>
</g>
<defs>
<clipPath id="clip0_26_7814">
<rect width="88" height="89" fill="white" transform="translate(0.988037 0.954102)"/>
</clipPath>
</defs>
</svg>
