<svg width="73" height="89" viewBox="0 0 73 89" fill="none" xmlns="http://www.w3.org/2000/svg">
<path d="M70.066 30.3431C69.553 30.7437 60.4967 35.8795 60.4967 47.2993C60.4967 60.5083 72.0206 65.1812 72.3655 65.2969C72.3124 65.5818 70.5347 71.6967 66.2896 77.9273C62.5043 83.4102 58.551 88.8843 52.537 88.8843C46.523 88.8843 44.9752 85.3684 38.0326 85.3684C31.2668 85.3684 28.8612 89 23.3602 89C17.8592 89 14.0208 83.9265 9.60759 77.6959C4.49568 70.3793 0.365479 59.0129 0.365479 48.225C0.365479 30.9217 11.5444 21.7449 22.5465 21.7449C28.3925 21.7449 33.2656 25.6079 36.9359 25.6079C40.4294 25.6079 45.8773 21.5135 52.5281 21.5135C55.0487 21.5135 64.1051 21.7449 70.066 30.3431ZM49.3708 14.188C52.1213 10.9036 54.067 6.34633 54.067 1.78908C54.067 1.15712 54.0139 0.516252 53.8989 0C49.4238 0.169117 44.0997 2.9996 40.8892 6.74687C38.3687 9.63076 36.0161 14.188 36.0161 18.8076C36.0161 19.5019 36.1311 20.1961 36.1842 20.4186C36.4672 20.472 36.9271 20.5344 37.387 20.5344C41.4022 20.5344 46.4522 17.8285 49.3708 14.188Z" fill="#00A3FF"/>
</svg>
