<svg width="74" height="100" viewBox="0 0 74 100" fill="none" xmlns="http://www.w3.org/2000/svg">
<path d="M47.0784 0.263184C48.0357 1.38055 48.6729 2.60461 49.0923 3.94279C49.974 6.76139 49.731 9.54295 48.747 12.2845C47.7704 15.0009 46.1966 17.3601 44.3531 19.5548C42.0858 22.2548 39.442 24.5518 36.699 26.7465C34.6703 28.3707 32.809 30.1668 31.3285 32.323C30.3297 33.7782 29.5888 35.3461 29.2909 37.1022C28.9664 39.0079 29.2731 40.8366 29.9711 42.6149C30.7091 44.497 31.8116 46.17 32.9364 47.8342C34.0834 49.5325 35.2215 51.2352 36.3433 52.9498C36.6412 53.4048 36.8635 53.9071 37.0665 54.4317C36.9198 54.2984 36.7716 54.165 36.6249 54.0301C34.1723 51.8013 31.7568 49.534 29.5562 47.0503C27.7986 45.066 26.1774 42.9839 25.0808 40.5447C24.4228 39.082 24.039 37.5601 24.119 35.9374C24.1961 34.3503 24.7488 32.9335 25.6291 31.6309C26.7538 29.9653 28.0861 28.4759 29.608 27.1763C31.6901 25.3965 33.8211 23.673 35.958 21.957C38.255 20.112 40.5668 18.2848 42.5852 16.1242C44.3679 14.2154 45.8647 12.1215 46.7583 9.64076C47.4651 7.67722 47.7734 5.65144 47.5733 3.56934C47.477 2.5646 47.2799 1.56875 47.1287 0.569941C47.1169 0.486953 47.1035 0.405448 47.0813 0.263184L47.0784 0.263184Z" fill="white"/>
<path d="M67.7674 85.1386C68.1097 85.3964 68.4787 85.6261 68.7869 85.9195C69.3649 86.4708 69.4405 87.1732 68.9129 87.7705C68.492 88.2476 67.9867 88.6789 67.4488 89.0212C65.9654 89.9667 64.3115 90.5402 62.6429 91.0544C59.6568 91.9747 56.6071 92.6193 53.5187 93.0817C51.6471 93.3617 49.7724 93.6285 47.8934 93.8404C46.2899 94.0212 44.6791 94.1531 43.0682 94.245C40.5831 94.3857 38.0964 94.4924 35.6083 94.5754C33.9708 94.6288 32.3288 94.6466 30.6898 94.6228C28.544 94.5902 26.3996 94.5221 24.2553 94.4287C22.5985 94.3561 20.9432 94.245 19.2909 94.1057C17.394 93.9456 15.4986 93.75 13.6062 93.5425C12.0028 93.3662 10.4008 93.1765 8.80482 92.9424C6.81757 92.6504 4.80512 92.4696 2.88456 91.8339C2.27993 91.6338 1.6842 91.3389 1.15812 90.9803C0.439391 90.4898 0.359367 89.7829 0.842472 89.0568C1.27075 88.4151 1.87537 87.9601 2.51408 87.5511C4.26422 86.4338 6.18182 85.6928 8.16167 85.1149C10.2452 84.5058 12.3614 84.0523 14.5532 84.1976C15.0778 84.2316 15.595 84.3887 16.1166 84.4895C16.1107 84.5325 16.1062 84.574 16.1003 84.6169C15.6794 84.6525 15.2571 84.6747 14.8392 84.7236C12.4414 85.0008 10.1667 85.6943 8.02978 86.8161C7.69042 86.9939 7.36884 87.2325 7.09172 87.4978C6.55675 88.0105 6.60565 88.5603 7.24436 88.9352C7.71413 89.2109 8.22835 89.4243 8.74406 89.6051C10.4646 90.2097 12.2429 90.5876 14.0434 90.8528C15.7017 91.0974 17.3673 91.3078 19.0345 91.4856C20.2867 91.619 21.5449 91.7079 22.803 91.7613C25.5386 91.8798 28.2743 92.0117 31.0114 92.0473C33.5558 92.0814 36.1018 92.0028 38.6462 91.9658C39.3798 91.9554 40.1118 91.9317 40.8439 91.8961C42.8667 91.7954 44.8895 91.6961 46.9109 91.5731C48.3824 91.4827 49.8554 91.3789 51.3225 91.2352C52.9497 91.0751 54.5768 90.9077 56.1921 90.6617C58.3157 90.3386 60.4334 89.9637 62.5436 89.5547C63.8329 89.3042 65.094 88.9293 66.2751 88.3306C66.5344 88.2002 66.7878 88.052 67.0249 87.8875C68.1497 87.1066 68.3275 86.3967 67.7081 85.2053C67.7274 85.183 67.7466 85.1623 67.7659 85.1401L67.7674 85.1386Z" fill="white"/>
<path d="M59.1485 20.5684C58.3216 21.0633 57.5732 21.5064 56.8278 21.9584C53.8403 23.7737 50.8987 25.6587 48.1897 27.8801C46.8012 29.0183 45.4897 30.2349 44.4227 31.6931C43.7217 32.6519 43.172 33.6833 42.9571 34.8644C42.7259 36.1389 42.9704 37.3526 43.4876 38.5203C44.0537 39.8007 44.8421 40.9477 45.6453 42.0828C46.0691 42.6815 46.5003 43.2758 46.9257 43.873C48.9529 46.7153 48.9574 49.654 46.9479 52.5185C45.6438 54.3768 43.95 55.8158 42.0813 57.0665C41.6752 57.3392 41.2544 57.5896 40.8098 57.809C41.0988 57.48 41.4011 57.1599 41.6752 56.819C42.6296 55.6305 43.3201 54.322 43.5113 52.7838C43.6773 51.4501 43.4076 50.1993 42.7259 49.0568C42.3643 48.4492 41.9242 47.8801 41.4722 47.3348C40.0659 45.6395 38.8284 43.8434 38.0549 41.7642C36.6234 37.9127 37.3302 34.4139 39.851 31.2382C41.6841 28.9293 44.0152 27.2133 46.5344 25.7373C50.4348 23.4537 54.6124 21.8324 58.944 20.5847C58.9736 20.5758 59.0077 20.5787 59.1455 20.5698L59.1485 20.5684Z" fill="white"/>
<path d="M52.6385 81.6843C51.9375 81.954 51.2929 82.2177 50.6379 82.4534C47.9053 83.4344 45.1059 84.1531 42.2265 84.5325C40.7239 84.7311 39.2123 84.8911 37.7008 84.9771C36.2381 85.0601 34.7666 85.0912 33.3039 85.0334C29.8851 84.8971 26.5064 84.4703 23.261 83.307C22.2429 82.9424 21.253 82.5126 20.4053 81.8236C20.1074 81.582 19.8303 81.2945 19.614 80.9803C19.1975 80.3728 19.2464 79.7266 19.7236 79.162C19.9237 78.9249 20.1563 78.7056 20.4068 78.5248C21.3982 77.8135 22.5348 77.4267 23.7174 77.0607C23.5129 77.277 23.3202 77.4489 23.1646 77.652C22.7749 78.1617 22.8312 78.6863 23.4003 78.9931C23.9323 79.2791 24.5191 79.5236 25.1104 79.6318C26.293 79.8482 27.4918 80.0008 28.6892 80.1016C30.5772 80.2587 32.4696 80.3787 34.3635 80.4557C35.3742 80.4972 36.3893 80.4306 37.4014 80.3802C38.2609 80.3372 39.1204 80.269 39.9755 80.1712C41.1936 80.0319 42.4088 79.8734 43.6195 79.6866C44.7769 79.5088 45.9269 79.2791 47.0813 79.085C47.2073 79.0642 47.3673 79.0968 47.4785 79.162C49.0834 80.0971 50.7505 80.8988 52.471 81.5953C52.5081 81.6102 52.5422 81.6339 52.6385 81.6872V81.6843Z" fill="white"/>
<path d="M25.4586 54.8349C24.3664 55.1401 23.338 55.4084 22.3214 55.7151C20.466 56.2738 18.6092 56.8384 16.8946 57.7691C16.5286 57.9676 16.1744 58.2107 15.8691 58.4937C15.3801 58.9487 15.4438 59.4125 16.0129 59.7608C16.7064 60.1861 17.4933 60.3372 18.2772 60.4795C20.1355 60.8174 22.0117 60.9567 23.8981 61.0026C25.3104 61.0367 26.7227 61.1034 28.1349 61.0915C30.2808 61.0708 32.4251 61.0011 34.5694 60.9389C35.6572 60.9078 36.7449 60.8663 37.8311 60.8011C39.3145 60.7122 40.7964 60.604 42.2769 60.4884C43.575 60.3876 44.8732 60.2854 46.1684 60.149C47.5258 60.0068 48.8818 59.8334 50.2348 59.6556C51.6737 59.4673 53.1112 59.2643 54.5472 59.0539C55.6304 58.8953 56.7108 58.716 57.8074 58.5767C57.6014 58.6775 57.3895 58.7679 57.1894 58.879C56.0943 59.4822 55.0184 60.1194 53.9025 60.681C53.4328 60.9167 52.8904 61.0382 52.3673 61.136C50.0436 61.5687 47.72 62.0177 45.3845 62.3719C43.6106 62.6416 41.819 62.8046 40.0303 62.9617C38.3691 63.1084 36.7019 63.2255 35.0347 63.2863C32.4592 63.3811 29.8821 63.4582 27.3065 63.4626C25.2911 63.4656 23.2743 63.39 21.2633 63.267C19.4064 63.1544 17.5511 62.9736 15.7046 62.7513C13.8789 62.532 12.0591 62.24 10.3238 61.5954C9.84511 61.4176 9.37238 61.1775 8.95892 60.8796C8.36764 60.4543 8.35282 59.9253 8.89372 59.4422C9.21974 59.1502 9.58726 58.885 9.977 58.6893C13.1231 57.1126 16.4248 55.9908 19.8881 55.355C21.7019 55.0216 23.5277 54.8052 25.4601 54.8334L25.4586 54.8349Z" fill="white"/>
<path d="M54.2804 71.1448C52.9156 71.4827 51.5596 71.8754 50.1814 72.148C47.9156 72.5985 45.6409 73.0076 43.3587 73.3662C42.0324 73.5736 40.6868 73.6566 39.3486 73.7826C36.8338 74.0167 34.3116 74.1042 31.7908 74.0227C29.8777 73.9604 27.9645 73.8167 26.0573 73.6433C23.9767 73.4536 21.9183 73.0891 19.9385 72.4074C19.1205 72.1258 18.3395 71.7227 17.5659 71.3256C17.2681 71.1729 17.0146 70.9106 16.7835 70.6587C16.3033 70.1341 16.2381 69.4806 16.6708 68.9204C16.9746 68.5262 17.3599 68.175 17.7645 67.8816C18.6136 67.2636 20.3178 66.5123 21.3878 66.2174C21.1877 66.4367 20.9995 66.6338 20.8232 66.8398C20.7194 66.9628 20.6246 67.0962 20.5431 67.2355C20.0674 68.0461 20.2363 68.7604 21.0825 69.1768C21.5967 69.4302 22.1613 69.6362 22.7245 69.7221C23.9233 69.9074 25.1356 70.0259 26.3463 70.1267C27.8475 70.2527 29.3516 70.3816 30.8572 70.4186C32.6993 70.4631 34.5443 70.4246 36.3878 70.3964C37.1732 70.3846 37.9586 70.3253 38.741 70.2601C39.8554 70.1682 40.9698 70.0704 42.0813 69.9385C43.3513 69.7888 44.6198 69.6169 45.8824 69.4213C47.3273 69.1975 48.7647 68.9338 50.2066 68.6937C50.3015 68.6774 50.4378 68.6729 50.4986 68.7263C51.6204 69.7266 52.88 70.5002 54.2804 71.0485C54.2804 71.0796 54.2804 71.1122 54.2804 71.1433V71.1448Z" fill="white"/>
<path d="M73.5439 90.3533C73.458 91.1002 73.132 91.7345 72.6785 92.308C71.8516 93.3557 70.7653 94.0744 69.6005 94.6805C67.4651 95.7905 65.177 96.4721 62.8474 97.0308C60.5757 97.5747 58.2802 97.9882 55.9624 98.2638C54.1575 98.4787 52.351 98.6846 50.5416 98.8432C48.8789 98.9884 47.2117 99.0729 45.546 99.1737C41.9583 99.393 38.3662 99.3871 34.7755 99.3486C32.9216 99.3293 31.0677 99.2522 29.2168 99.1529C27.5185 99.0611 25.8202 98.9395 24.1294 98.7662C21.3033 98.4772 18.4877 98.1141 15.7565 97.2828C15.1623 97.102 14.5873 96.8589 14.0034 96.6441C14.0108 96.6144 14.0182 96.5863 14.0256 96.5566C14.5339 96.6292 15.0422 96.7078 15.5505 96.7715C16.7464 96.9197 17.9394 97.0783 19.1383 97.2013C20.5194 97.3435 21.902 97.4591 23.2862 97.5717C24.0375 97.634 24.7903 97.6932 25.5431 97.7081C29.2301 97.7822 32.9171 97.8726 36.6056 97.8918C38.4906 97.9022 40.3786 97.8059 42.2621 97.7021C44.1856 97.5954 46.1062 97.4324 48.0268 97.2694C52.8756 96.8574 57.683 96.155 62.4266 95.0584C65.1029 94.4404 67.7437 93.6965 70.2467 92.5347C71.4529 91.9745 72.6118 91.3403 73.5469 90.3503L73.5439 90.3533Z" fill="white"/>
<path d="M60.2512 55.6201C60.8958 54.7651 61.7894 54.4702 62.7215 54.236C65.2052 53.6136 67.6192 53.7307 69.8984 54.9785C71.7686 56.0025 73.0371 57.5289 73.4595 59.6584C73.8003 61.3715 73.4239 62.9764 72.5807 64.482C71.6723 66.1047 70.3786 67.3777 68.8967 68.4699C66.3507 70.3474 63.4862 71.573 60.5001 72.5436C59.7058 72.8015 58.9011 73.0297 58.1009 73.2728C58.0816 73.2431 58.0624 73.212 58.0431 73.1824C58.2135 73.0401 58.3661 72.8623 58.5573 72.7585C60.9491 71.4767 63.2535 70.0629 65.3 68.2654C66.696 67.0398 67.9319 65.6794 68.7781 64.0034C69.2449 63.0786 69.565 62.1035 69.5813 61.0662C69.6169 58.6462 68.4536 56.9183 66.3804 55.7757C64.7325 54.8688 62.9971 54.7992 61.2188 55.346C60.9121 55.4408 60.6009 55.5209 60.2526 55.6187L60.2512 55.6201Z" fill="white"/>
</svg>
