<svg width="87" height="89" viewBox="0 0 87 89" fill="none" xmlns="http://www.w3.org/2000/svg">
<g clip-path="url(#clip0_26_7798)">
<path d="M18.5144 0C20.8427 1.32965 23.1748 2.65155 25.4979 3.99024C28.7837 5.88273 32.0567 7.79717 35.3476 9.67933C36.0342 10.0718 36.3192 10.6036 36.3179 11.3885C36.3076 23.03 36.3115 34.6716 36.3115 46.3131V46.8824C36.4847 46.792 36.599 46.7378 36.7094 46.6746C41.1156 44.1237 45.5193 41.569 49.9295 39.0246C50.1631 38.8903 50.2311 38.7406 50.2311 38.4811C50.2247 32.5751 50.2311 26.6704 50.2195 20.7645C50.2183 20.0454 50.5045 19.5575 51.1193 19.2025C56.5395 16.0746 61.9572 12.9389 67.3685 9.79422C67.9743 9.4418 68.5236 9.44309 69.1281 9.79422C74.5407 12.9376 79.9584 16.0733 85.3799 19.2025C85.9831 19.551 86.2642 20.0312 86.2629 20.7374C86.254 26.957 86.2527 33.178 86.2629 39.3976C86.2629 40.1154 85.987 40.5969 85.3645 40.9558C80.2228 43.9184 75.0913 46.8992 69.9522 49.867C69.707 50.009 69.6043 50.16 69.6056 50.4582C69.6159 56.3397 69.6069 62.2211 69.621 68.1026C69.6223 68.8655 69.3297 69.3664 68.6725 69.7459C57.7601 76.0521 46.8529 82.3659 35.9521 88.6915C35.2487 89.0994 34.6442 89.1059 33.9357 88.6953C22.9964 82.344 12.0468 76.0082 1.09722 69.6736C0.528625 69.3444 0.262939 68.8797 0.262939 68.2226C0.265506 49.2228 0.265506 30.2243 0.262939 11.2246C0.262939 10.5688 0.524775 10.0963 1.0908 9.7684C6.56239 6.60564 12.0301 3.43772 17.5004 0.274966C17.6852 0.16782 17.8868 0.0916554 18.0818 0H18.5144ZM2.98911 13.4165V13.9058C2.98911 31.6573 2.98911 49.4087 2.98269 67.1602C2.98269 67.4765 3.06997 67.6546 3.35105 67.816C13.1776 73.496 23.0002 79.1851 32.8229 84.8716C33.0475 85.002 33.2773 85.1259 33.5776 85.2951V84.7684C33.5776 79.7467 33.5738 74.725 33.5853 69.7033C33.5853 69.3315 33.4775 69.1288 33.1476 68.9417C28.0893 66.0784 23.0452 63.1893 17.983 60.3338C17.2347 59.9117 16.9177 59.3798 16.919 58.5046C16.9382 46.3066 16.9318 34.11 16.9395 21.9121C16.9395 21.5945 16.851 21.4177 16.5699 21.2563C12.2727 18.7816 7.98451 16.2927 3.69247 13.809C3.48839 13.6902 3.27918 13.5779 2.98911 13.4165ZM36.3243 85.2899C36.4912 85.1982 36.6041 85.1389 36.7158 85.0743C46.6629 79.3155 56.6101 73.5554 66.5611 67.8031C66.8178 67.6546 66.8987 67.4894 66.8974 67.2028C66.8897 62.1682 66.8923 57.1349 66.891 52.1003C66.891 51.9738 66.8782 51.8473 66.8679 51.6588C66.6612 51.7737 66.5059 51.8576 66.3532 51.9454C56.4574 57.6254 46.5616 63.3068 36.6606 68.9791C36.3731 69.143 36.2961 69.3289 36.2961 69.6388C36.3038 74.6966 36.3012 79.7557 36.3025 84.8135C36.3025 84.953 36.3153 85.0937 36.3243 85.2899ZM33.5815 13.4372C33.4377 13.5056 33.371 13.5327 33.3094 13.5676C28.8415 16.1546 24.3749 18.7442 19.9019 21.3221C19.6618 21.4603 19.6516 21.6333 19.6516 21.8592C19.6541 33.2683 19.6541 44.6775 19.6541 56.0867V56.5307C19.8403 56.43 19.966 56.3668 20.088 56.2958C24.4519 53.7707 28.8145 51.2418 33.1836 48.7258C33.4852 48.5528 33.5892 48.3631 33.5892 48.0158C33.5802 36.6544 33.5815 25.2943 33.5815 13.9329V13.4359V13.4372ZM65.4766 49.2771C65.3534 49.197 65.2853 49.1493 65.2135 49.1067C60.7558 46.5248 56.2969 43.9455 51.8419 41.3598C51.6635 41.2566 51.5326 41.254 51.3529 41.3598C50.0553 42.1215 48.7499 42.8702 47.4485 43.6241C38.7809 48.6419 30.1134 53.6597 21.4472 58.6788C21.3304 58.746 21.2213 58.8286 21.0827 58.9228C21.2085 59.0016 21.288 59.0558 21.3702 59.1035C25.806 61.6273 30.2431 64.1485 34.6737 66.6825C34.9086 66.8168 35.0613 66.7626 35.2603 66.649C45.2062 60.9354 55.1533 55.2256 65.1005 49.5146C65.2135 49.45 65.3213 49.3777 65.4791 49.2783H65.4766V49.2771ZM4.39326 11.0296C4.54215 11.1265 4.61916 11.182 4.7013 11.2297C9.13838 13.7999 13.5767 16.3663 18.0087 18.943C18.2346 19.0747 18.3912 19.0424 18.5978 18.9223C23.0105 16.3611 27.4271 13.8051 31.8436 11.2478C31.9424 11.191 32.0348 11.1226 32.1696 11.0335C32.0297 10.9431 31.9347 10.8747 31.8333 10.8166C27.4181 8.25932 23.0002 5.70587 18.5888 3.1421C18.3527 3.00526 18.1884 3.03237 17.9676 3.16018C13.8668 5.54193 9.76216 7.91464 5.65751 10.2912C5.25449 10.5249 4.85404 10.7611 4.39326 11.0296ZM54.3678 20.5102C54.4769 20.585 54.5527 20.6444 54.6335 20.6922C59.0809 23.2676 63.5295 25.8404 67.9743 28.4222C68.1809 28.5423 68.326 28.5358 68.5287 28.4183C72.962 25.843 77.3991 23.2766 81.8361 20.7064C81.9273 20.6535 82.0107 20.5902 82.1301 20.5102C81.9966 20.4263 81.899 20.3604 81.7963 20.301C77.3708 17.7386 72.9427 15.1774 68.5198 12.6071C68.3106 12.4858 68.1655 12.4974 67.9653 12.6136C63.5423 15.1825 59.1142 17.7437 54.6874 20.3075C54.5873 20.3656 54.4898 20.4314 54.3653 20.5102H54.3678ZM52.9662 22.9087C52.9573 23.0804 52.9483 23.1759 52.9483 23.2714C52.9483 28.3538 52.9496 33.4349 52.9406 38.5172C52.9406 38.7819 53.0522 38.9006 53.2563 39.0181C57.6741 41.5715 62.0894 44.1301 66.5059 46.6862C66.6125 46.7481 66.728 46.7946 66.8923 46.8734V46.4757C66.8923 41.4179 66.8897 36.3601 66.8974 31.3036C66.8974 31.0363 66.805 30.8969 66.5791 30.7652C62.1908 28.2325 57.8089 25.6906 53.4245 23.1527C53.2923 23.0765 53.1562 23.0081 52.9662 22.9074V22.9087ZM83.5265 22.9281C83.3763 22.9991 83.2788 23.0378 83.189 23.0894C78.7621 25.6519 74.3366 28.217 69.9059 30.7717C69.6736 30.9059 69.6056 31.0557 69.6069 31.3152C69.6146 36.3601 69.612 41.405 69.6133 46.4512C69.6133 46.5764 69.6261 46.7017 69.6338 46.8682C69.7853 46.7907 69.8931 46.7417 69.9945 46.6823C74.3995 44.1327 78.8032 41.5793 83.2133 39.0375C83.4598 38.8955 83.5316 38.7367 83.5316 38.463C83.5239 33.4297 83.5265 28.3964 83.5265 23.3631V22.9281Z" fill="#00A3FF"/>
</g>
<defs>
<clipPath id="clip0_26_7798">
<rect width="86" height="89" fill="white" transform="translate(0.262939)"/>
</clipPath>
</defs>
</svg>
