<svg width="103" height="105" viewBox="0 0 103 105" fill="none" xmlns="http://www.w3.org/2000/svg">
<path fill-rule="evenodd" clip-rule="evenodd" d="M93.8286 83.9056C93.719 83.9275 93.6089 84.1689 93.6089 84.3005C93.587 85.1787 93.5651 87.5056 93.5651 89.0861C93.5651 89.1301 93.6308 89.2178 93.6968 89.2178C94.0266 89.2397 94.8182 89.2616 95.5 89.2616C96.4455 89.2616 96.9952 89.1301 97.3033 88.9985C98.0947 88.6032 98.4685 87.7471 98.4685 86.8029C98.4685 84.6739 96.9733 83.8616 94.7522 83.8616C94.5983 83.8397 94.1589 83.8397 93.8286 83.9056ZM99.5022 93.718C99.5022 91.5448 97.8969 90.3373 94.9943 90.3373C94.8623 90.3373 93.9387 90.3154 93.7188 90.3592C93.6528 90.3813 93.5651 90.4253 93.5651 90.4912C93.5651 92.0495 93.5429 94.5303 93.6089 95.4961C93.6527 95.9131 93.9609 96.5059 94.3347 96.6815C94.7303 96.901 95.632 96.9448 96.2477 96.9448C97.9848 96.9448 99.5022 95.979 99.5022 93.718ZM89.3431 82.6984C89.5628 82.6984 90.2224 82.764 91.9156 82.764C93.521 82.764 94.7963 82.7202 96.3575 82.7202C98.2705 82.7202 100.909 83.4006 100.909 86.2544C100.909 87.6593 99.9197 88.779 98.6225 89.3277C98.5567 89.3496 98.5567 89.3934 98.6225 89.4153C100.469 89.8765 102.097 91.0179 102.097 93.169C102.097 95.2766 100.778 96.6156 98.8643 97.4498C97.6989 97.9546 96.2477 98.1301 94.7744 98.1301C93.6528 98.1301 90.6403 97.9986 88.9692 98.0426C88.7934 97.9765 89.1231 97.1862 89.2768 97.0547C89.6729 97.0326 89.9805 97.0107 90.3985 96.8789C90.9923 96.7255 91.058 96.5497 91.146 95.6498C91.19 94.8815 91.19 92.1592 91.19 90.2276C91.19 87.5715 91.2122 85.7715 91.19 84.8935C91.1681 84.2132 90.9263 83.9934 90.4425 83.8616C90.0684 83.7959 89.4529 83.7079 88.947 83.6423C88.837 83.5324 89.2108 82.7859 89.3431 82.6984ZM76.6547 96.3522C77.1828 96.769 78.2162 96.9446 79.1398 96.9446C80.3272 96.9446 81.5146 96.7255 82.6582 95.6933C83.8236 94.64 84.6371 93.0155 84.6371 90.4253C84.6371 87.9445 83.6916 85.9249 81.7565 84.7398C80.657 84.059 79.2497 83.774 77.6224 83.774C77.1387 83.774 76.6769 83.7959 76.3912 83.9275C76.325 83.9715 76.1713 84.1689 76.1713 84.2786C76.1272 84.7177 76.1272 88.0982 76.1272 90.074C76.1272 92.1154 76.1272 94.9692 76.1713 95.2985C76.1713 95.6279 76.3249 96.1327 76.655 96.3522H76.6547ZM71.6631 82.6981C72.081 82.6981 73.6862 82.764 74.4558 82.764C75.8415 82.764 76.8308 82.6984 79.4475 82.6984C81.6464 82.6984 83.4936 83.2909 84.813 84.4104C86.4181 85.7934 87.254 87.7033 87.254 90.03C87.254 93.3448 85.7366 95.2547 84.2192 96.3522C82.7022 97.4717 80.723 98.1301 77.9084 98.1301C76.4131 98.1301 73.8403 98.0864 71.7072 98.0642H71.6853C71.5754 97.8668 71.8611 97.0985 72.037 97.0766C72.6089 97.0107 72.7628 96.9886 73.0487 96.8791C73.5103 96.7034 73.5985 96.4619 73.6645 95.6498C73.7302 94.135 73.7083 92.3131 73.7083 90.2495C73.7083 88.779 73.7302 85.903 73.6862 84.981C73.6204 84.2129 73.2906 84.0152 72.6308 83.8835C72.301 83.8178 71.8611 83.7298 71.2456 83.6641C71.1574 83.5102 71.5532 82.8299 71.6631 82.6984V82.6981Z" fill="#00A3FF"/>
<path fill-rule="evenodd" clip-rule="evenodd" d="M45.184 97.1719C44.6345 97.1066 44.2388 97.0199 43.7552 96.8024C43.6893 96.7588 43.5792 96.5415 43.5792 96.4543C43.5354 95.6931 43.5354 93.5183 43.5354 92.0614C43.5354 90.8868 43.3377 89.8647 42.8319 89.1471C42.2383 88.3203 41.3813 87.8422 40.2819 87.8422C39.3148 87.8422 38.0178 88.4945 36.9406 89.408C36.9187 89.4296 36.7429 89.5821 36.7648 89.3427C36.7648 89.1035 36.8089 88.6251 36.8308 88.2987C36.8529 87.9942 36.6769 87.8422 36.6769 87.8422C35.9735 88.19 33.9952 88.6467 33.2696 88.7118C32.7422 88.8209 32.6102 89.321 33.16 89.4949H33.1819C33.7751 89.6688 34.171 89.8647 34.4785 90.0605C34.6984 90.2345 34.6764 90.4737 34.6764 90.6695C34.6984 92.3004 34.6984 94.8015 34.6326 96.1717C34.6107 96.7154 34.4568 96.911 34.0609 96.998L34.105 96.9763C33.7972 97.0416 33.5554 97.1066 33.1817 97.1502C33.0497 97.2808 33.0497 97.9767 33.1817 98.129C33.4235 98.129 34.6984 98.0637 35.7539 98.0637C37.2045 98.0637 37.952 98.129 38.3255 98.129C38.4794 97.955 38.5235 97.3025 38.4356 97.1502C38.0178 97.1285 37.71 97.0852 37.4244 96.998C37.0287 96.9108 36.9187 96.7154 36.8965 96.2587C36.8529 95.1058 36.8529 92.6701 36.8529 91.0174C36.8529 90.5606 36.9847 90.3431 37.1164 90.2125C37.6221 89.7777 38.4356 89.4732 39.1609 89.4732C39.8644 89.4732 40.3258 89.6908 40.6776 89.9736C41.1612 90.3648 41.315 90.9304 41.381 91.3435C41.4908 92.2787 41.447 94.1273 41.447 95.7367C41.447 96.6065 41.381 96.8241 41.0516 96.9327C40.8975 96.998 40.5018 97.0852 40.0401 97.1283C39.8863 97.2808 39.9303 97.955 40.0401 98.1073C40.6776 98.1073 41.4251 98.042 42.5242 98.042C43.887 98.042 44.7664 98.1073 45.1183 98.1073C45.2278 97.9767 45.2719 97.3461 45.184 97.1719ZM51.2731 88.8645C50.1082 88.8645 49.3826 89.756 49.3826 91.1477C49.3826 92.5615 50.0201 94.1926 51.8226 94.1926C52.1304 94.1926 52.7021 94.062 52.9655 93.7575C53.3833 93.3663 53.6692 92.5832 53.6692 91.7567C53.6692 89.9517 52.7678 88.8643 51.2731 88.8643V88.8645ZM51.1192 98.4768C50.6797 98.4768 50.3717 98.6074 50.174 98.7163C49.2507 99.3031 48.8331 99.8687 48.8331 100.543C48.8331 101.174 49.0749 101.674 49.6025 102.109C50.2399 102.652 51.1192 102.914 52.2402 102.914C54.4824 102.914 55.4717 101.717 55.4717 100.543C55.4717 99.7165 55.0539 99.1728 54.1968 98.8685C53.5813 98.6074 52.4603 98.4768 51.1192 98.4768ZM51.2731 104.132C49.9322 104.132 48.9648 103.849 48.1297 103.218C47.3162 102.609 46.9646 101.696 46.9646 101.065C46.9646 100.891 47.0087 100.412 47.4043 99.9776C47.6459 99.7164 48.1737 99.2164 49.4267 98.3682C49.4705 98.3465 49.4925 98.3248 49.4925 98.281C49.4925 98.2376 49.4484 98.194 49.4046 98.1726C48.3715 97.7811 48.0637 97.1502 47.9756 96.8024V96.7588C47.9539 96.6282 47.9098 96.4979 48.1078 96.3673C48.2616 96.2587 48.4815 96.1281 48.723 95.9761C49.0968 95.7584 49.4925 95.5191 49.7342 95.3233C49.7783 95.2799 49.7783 95.2366 49.7783 95.193C49.7783 95.1494 49.7342 95.1058 49.6902 95.0843C48.1518 94.584 47.3824 93.453 47.3824 91.7567C47.3824 90.6476 47.8879 89.6472 48.789 89.0165C49.4046 88.5381 50.9434 87.9508 51.9546 87.9508H52.0205C53.0537 87.9725 53.6251 88.19 54.4384 88.4728C54.8781 88.6251 55.2959 88.6901 55.8676 88.6901C56.7247 88.6901 57.0984 88.4292 57.4059 88.125C57.4281 88.1683 57.4722 88.2772 57.4941 88.5598C57.516 88.8426 57.4281 89.2557 57.2082 89.5602C57.0324 89.7994 56.6368 89.9736 56.2411 89.9736H56.1311C55.7354 89.93 55.5594 89.8864 55.5594 89.8864L55.4717 89.93C55.4498 89.9736 55.4717 90.0169 55.4936 90.0822L55.5158 90.1258C55.5596 90.3214 55.6475 90.9085 55.6475 91.061C55.6475 92.8443 54.9221 93.6269 54.1527 94.2142C53.4052 94.7579 52.5482 95.1058 51.5808 95.193C51.5589 95.193 51.4712 95.193 51.2731 95.2147C51.1632 95.2147 51.0094 95.2366 50.9872 95.2366H50.9653C50.7895 95.2799 50.35 95.4975 50.35 95.867C50.35 96.1932 50.5477 96.5849 51.4929 96.6501C51.6906 96.6718 51.8883 96.6718 52.1084 96.6937C53.3614 96.7805 54.9222 96.8893 55.6475 97.1285C56.6587 97.4981 57.2961 98.3899 57.2961 99.4556C57.2961 101.065 56.1313 102.566 54.1968 103.501C53.2516 103.914 52.3062 104.132 51.2731 104.132ZM63.8028 88.9731C63.3413 88.9731 62.9235 89.0816 62.6158 89.2991C61.7587 89.8211 61.319 90.8651 61.319 92.3873C61.319 95.2366 62.7696 97.2374 64.8361 97.2374C65.4516 97.2374 65.9352 97.0633 66.3528 96.7154C66.9902 96.1932 67.3201 95.1494 67.3201 93.6922C67.3201 90.8651 65.8911 88.9729 63.803 88.9729L63.8028 88.9731ZM64.1987 98.2812C60.4617 98.2812 59.1208 95.5627 59.1208 93.0182C59.1208 91.2349 59.8461 89.8647 61.2968 88.886C62.3302 88.2553 63.5612 87.9074 64.6603 87.9074C67.5178 87.9074 69.5183 89.93 69.5183 92.8443C69.5183 94.8232 68.727 96.389 67.2101 97.3461C66.4847 97.8245 65.2318 98.2812 64.1984 98.2812H64.1987ZM25.0264 88.9729C24.5648 88.9729 24.1472 89.0816 23.8392 89.2991C22.9821 89.8211 22.5424 90.8651 22.5424 92.3873C22.5424 95.2366 23.9931 97.2374 26.0595 97.2374C26.6751 97.2374 27.1586 97.0633 27.5764 96.7154C28.2136 96.1932 28.5436 95.1494 28.5436 93.6922C28.5436 90.8651 27.1367 88.9729 25.0264 88.9729ZM25.4221 98.2812C21.6851 98.2812 20.3442 95.5627 20.3442 93.0182C20.3442 91.2349 21.0696 89.8647 22.5202 88.886C23.5536 88.2553 24.7846 87.9074 25.8837 87.9074C28.7415 87.9074 30.7417 89.93 30.7417 92.8443C30.7417 94.8232 29.9504 96.389 28.4335 97.3461C27.7301 97.8245 26.4771 98.2812 25.4221 98.2812ZM0.296459 98.0637C0.25239 97.9986 0.208322 97.8028 0.230475 97.5636C0.230475 97.3894 0.274544 97.2808 0.296459 97.2374C0.758104 97.1719 0.999884 97.1066 1.26358 97.0416C1.70331 96.9327 1.87911 96.6937 1.90102 96.15C1.96724 94.8451 1.96724 92.3656 1.94509 90.6476V90.604C1.94509 90.4084 1.94509 90.1689 1.70331 89.995C1.35148 89.7777 0.9339 89.5821 0.384356 89.4294C0.186644 89.3646 0.0546773 89.2557 0.0765924 89.1254C0.0765924 88.9948 0.20856 88.8426 0.494409 88.799C1.21975 88.7337 3.10992 88.2772 3.85742 87.9508C3.90149 87.9942 3.96747 88.125 3.96747 88.2989L3.94556 88.5379C3.9234 88.7773 3.90149 89.0601 3.90149 89.3427C3.90149 89.4296 3.98962 89.4949 4.07728 89.4949C4.12135 89.4949 4.16542 89.4732 4.20925 89.4513C5.6161 88.3639 6.89099 87.9725 7.55035 87.9725C8.62776 87.9725 9.46315 88.4728 10.1006 89.5166C10.1444 89.5821 10.1885 89.6038 10.2545 89.6038C10.2983 89.6038 10.364 89.5821 10.3862 89.5385C11.6832 88.5598 12.9803 87.9725 13.8373 87.9725C15.8816 87.9725 17.0908 89.4732 17.0908 92.0178C17.0908 92.7354 17.0908 93.6705 17.0689 94.519C17.0689 95.2799 17.047 95.9759 17.047 96.4762C17.047 96.5846 17.2006 96.9327 17.4424 96.998C17.7501 97.1502 18.168 97.2155 18.7175 97.3025H18.7394C18.7835 97.4547 18.6956 98.0201 18.6077 98.129C18.4757 98.129 18.2778 98.129 18.0581 98.1073C17.5017 98.0786 16.9446 98.064 16.3874 98.0637C15.0246 98.0637 14.3211 98.0854 13.6394 98.129C13.5958 97.955 13.5737 97.433 13.6394 97.3025C14.0353 97.2374 14.233 97.1719 14.475 97.1069C14.9148 96.9763 15.0246 96.7805 15.0467 96.2151C15.0467 95.802 15.1344 92.2787 15.0024 91.4305C14.8707 90.5606 14.2111 89.5385 12.7602 89.5385C12.2106 89.5385 11.3536 89.756 10.5182 90.3865C10.4743 90.4301 10.43 90.5387 10.43 90.604V90.6259C10.5182 91.0824 10.5182 91.6047 10.5182 92.4092V93.8228C10.5182 94.8015 10.496 95.715 10.5182 96.4107C10.5182 96.8893 10.804 96.998 11.0458 97.0852C11.1778 97.1066 11.2654 97.1285 11.3755 97.1502C11.5732 97.1938 11.7711 97.2374 12.0789 97.3025C12.123 97.3897 12.123 97.6722 12.057 97.9114C12.0348 98.042 11.9908 98.1071 11.9689 98.129C11.2216 98.1073 10.4522 98.0854 9.33118 98.0854C9.0015 98.0854 8.42981 98.1073 7.94625 98.1073C7.55035 98.1073 7.17684 98.129 6.95721 98.129C6.93506 98.0854 6.89099 97.9334 6.89099 97.6939C6.89099 97.4983 6.93506 97.3461 6.97913 97.3025C7.08894 97.2808 7.17684 97.2591 7.28689 97.2591C7.55035 97.2155 7.77045 97.1719 7.99008 97.1285C8.36406 97.0199 8.49579 96.8241 8.51771 96.3456C8.58369 95.2583 8.64967 92.1483 8.49579 91.3652C8.23209 90.1039 7.50675 89.4732 6.34144 89.4732C5.66017 89.4732 4.80262 89.7994 4.09944 90.3217C3.98938 90.4084 3.90149 90.6257 3.90149 90.8215V92.1047C3.90149 93.6705 3.90149 95.628 3.9234 96.4762C3.94556 96.7369 4.03322 97.0416 4.53893 97.1502C4.64898 97.1719 4.82478 97.2155 5.04464 97.2374L5.44007 97.3025C5.48437 97.433 5.46222 97.955 5.37432 98.129C5.15446 98.129 4.89076 98.1073 4.58276 98.1073C4.12135 98.0854 3.52774 98.0637 2.86838 98.0637C2.09897 98.0637 1.54943 98.0854 1.1097 98.1073C0.801935 98.0637 0.560154 98.0637 0.296459 98.0637Z" fill="#00A3FF"/>
<path fill-rule="evenodd" clip-rule="evenodd" d="M50.1596 69.7616C48.1224 68.2792 33.1124 56.675 34.0722 37.2435C35.0498 16.4 47.2986 6.15843 49.666 4.30575C51.2103 2.65886 51.2616 2.04093 51.3648 0.394043C51.401 0.471721 51.4358 0.583149 51.4692 0.726117L51.4673 0.600484C51.4673 0.600484 52.6 3.48212 53.7834 5.129C54.0279 5.65276 54.7197 6.36599 55.6922 7.36868C59.0205 10.8 65.6369 17.6212 68.8625 31.8389C72.1035 50.7802 62.5343 62.3481 57.538 66.9542L57.5406 66.99C57.5406 66.99 57.5057 67.0074 57.4426 67.0418C56.1862 68.1913 55.2331 68.8901 54.87 69.145C54.3735 69.7535 53.9562 70.4806 53.7834 71.3133C53.1655 73.9897 53.5771 79.6509 53.5771 79.6509L51.4673 78.9298C51.4673 78.9298 51.6057 73.1517 50.1596 69.7616Z" fill="#00A3FF"/>
</svg>
