<svg width="125" height="89" viewBox="0 0 125 89" fill="none" xmlns="http://www.w3.org/2000/svg">
<path d="M58.3582 29.8935C58.3582 31.8551 58.3379 33.8167 58.3684 35.7783C58.3802 36.5653 58.0734 37.0855 57.3767 37.4749C53.8492 39.4448 50.3318 41.4313 46.8162 43.4194C46.1974 43.769 45.6041 43.8021 44.9787 43.4509C41.3833 41.4279 37.7846 39.41 34.1858 37.3937C33.6248 37.0789 33.3841 36.62 33.3858 35.9854C33.3976 31.9147 33.3976 27.844 33.3858 23.7733C33.3841 23.1073 33.6722 22.6583 34.2503 22.3352C37.7947 20.3537 41.3392 18.3706 44.8786 16.3775C45.5686 15.9898 46.1856 16.0097 46.8823 16.4056C50.2844 18.3341 53.6983 20.2427 57.1242 22.1282C57.9836 22.602 58.4141 23.1901 58.3785 24.2008C58.3107 26.0961 58.3599 27.9965 58.3599 29.8951L58.3582 29.8935Z" fill="white"/>
<path d="M91.7535 6.47656C91.7636 4.93741 91.2856 4.03613 89.8617 3.35188C88.0039 2.46053 86.1884 1.46812 84.434 0.382935H83.6559C83.2338 0.691095 83.244 1.13677 83.244 1.58741C83.2474 6.73502 83.2474 11.8826 83.2406 17.0319C83.2406 17.3318 83.3745 17.7112 83.0253 17.9017C82.6626 18.1005 82.371 17.8172 82.0761 17.6548C81.398 17.2821 80.72 16.9093 80.0504 16.5199C79.4503 16.1704 78.8774 16.1936 78.2756 16.5332C74.7006 18.5528 71.1222 20.5641 67.5404 22.5705C66.9132 22.9217 66.6319 23.437 66.6336 24.1312C66.6386 28.1406 66.6369 32.1483 66.6336 36.1577C66.6336 36.8569 66.9438 37.344 67.5726 37.6952C71.1019 39.6635 74.6277 41.64 78.14 43.6381C78.8553 44.044 79.4859 44.0506 80.203 43.643C83.6034 41.7096 87.0038 39.7761 90.4381 37.9007C91.3721 37.3904 91.7348 36.7492 91.7331 35.7203C91.7077 25.9735 91.6857 16.225 91.7518 6.47822L91.7535 6.47656ZM83.6271 29.9001C83.6271 30.5976 83.6203 31.2934 83.6305 31.9909C83.6356 32.2709 83.5254 32.4565 83.2779 32.594C82.0252 33.2932 80.7742 33.9989 79.5249 34.7064C79.3045 34.8306 79.0944 34.8422 78.8723 34.718C77.5942 33.9989 76.3161 33.2816 75.0362 32.5658C74.8362 32.4548 74.7515 32.2908 74.7515 32.0655C74.7549 30.6191 74.7549 29.1727 74.7515 27.7264C74.7515 27.4895 74.8532 27.3304 75.0583 27.2144C76.3178 26.5103 77.5772 25.8062 78.835 25.0971C79.0791 24.9596 79.2995 24.9662 79.5469 25.107C80.7556 25.7929 81.9693 26.4705 83.1864 27.1399C83.4915 27.3072 83.644 27.5176 83.6322 27.8771C83.6084 28.5515 83.6254 29.2258 83.6254 29.9001H83.6271Z" fill="white"/>
<path d="M25.0118 31.8218C25.0118 34.5008 25.0152 37.1798 25.0118 39.8588C25.0118 41.0202 24.5694 41.2803 23.5303 40.7071C21.5165 39.5954 19.5179 38.4572 17.5058 37.3455C16.8973 37.0092 16.6176 36.542 16.6227 35.8544C16.6396 33.4918 16.6091 31.1293 16.6396 28.7667C16.6515 27.8886 16.304 27.3336 15.5208 26.878C14.7377 26.4224 14.0834 26.0562 13.3223 25.6569C12.7646 25.3388 12.2323 25.3405 11.6729 25.6718C10.8491 26.1192 10.1744 26.5035 9.36926 26.9674C8.67935 27.3286 8.39796 27.8687 8.40304 28.6176C8.4166 30.9586 8.3827 33.3013 8.42 35.6423C8.43356 36.4773 8.142 37.0274 7.38428 37.4366C5.3976 38.5102 3.44313 39.6368 1.47002 40.7319C0.481767 41.2803 0.0274756 41.0086 0.0274756 39.8837C0.0223902 34.524 0.0308658 29.166 0.0105244 23.808C0.00713416 23.0359 0.330901 22.5505 0.997082 22.1777C4.52462 20.2078 8.04368 18.223 11.5593 16.2315C12.2035 15.867 12.8086 15.8538 13.4545 16.2199C16.9719 18.2081 20.4892 20.1962 24.0185 22.1628C24.7406 22.5654 25.0372 23.1005 25.0287 23.9123C24.9965 26.5483 25.0169 29.1859 25.0169 31.8218H25.0118Z" fill="white"/>
<path d="M99.8563 29.958C99.8563 27.9963 99.8716 26.0347 99.8478 24.0731C99.8394 23.2977 100.126 22.7609 100.829 22.3683C104.379 20.3917 107.917 18.3953 111.451 16.3939C112.075 16.0394 112.648 16.0211 113.278 16.3807C116.865 18.4202 120.459 20.4464 124.052 22.4759C124.566 22.7659 124.824 23.2066 124.829 23.7765C124.839 24.7474 124.832 25.7166 124.83 26.6875C124.83 27.1895 124.624 27.6037 124.181 27.8572C121.962 29.1279 119.742 30.397 117.508 31.6412C116.924 31.966 116.404 31.6296 116.37 30.9205C116.331 30.0988 116.329 29.2754 116.363 28.4536C116.385 27.882 116.201 27.5076 115.663 27.2326C114.746 26.7604 113.856 26.2368 112.966 25.7149C112.512 25.4482 112.105 25.43 111.637 25.71C110.715 26.2617 109.773 26.7769 108.827 27.2889C108.381 27.5308 108.184 27.8572 108.2 28.3641C108.227 29.3764 108.235 30.3904 108.196 31.401C108.174 32.0024 108.395 32.3669 108.937 32.6651C112.343 34.5456 115.733 36.4558 119.126 38.3562C119.257 38.4291 119.391 38.502 119.518 38.5815C120.218 39.0238 120.227 39.5888 119.506 39.9997C118.367 40.6458 117.208 41.2605 116.053 41.8851C115.07 42.4169 114.08 42.9371 113.1 43.4739C112.554 43.7738 112.036 43.7457 111.502 43.4491C107.895 41.4444 104.286 39.4413 100.675 37.4433C100.083 37.1152 99.8529 36.6132 99.8546 35.9721C99.8597 33.9674 99.8563 31.9643 99.8546 29.9596L99.8563 29.958Z" fill="white"/>
<path d="M114.826 29.8984C114.733 30.3822 115.034 30.9803 114.548 31.3315C113.877 31.8169 113.156 32.4681 112.354 32.4647C111.553 32.4614 110.813 31.8335 110.159 31.3332C109.617 30.9173 109.922 30.2231 109.891 29.6532C109.869 29.2489 109.718 28.7469 110.127 28.4653C110.829 27.9832 111.549 27.2923 112.376 27.3022C113.173 27.3122 113.893 27.9666 114.56 28.457C115.036 28.8082 114.734 29.4113 114.826 29.8967V29.8984Z" fill="white"/>
<path d="M58.6049 83.2479C59.291 83.7008 60.104 84.2341 60.6564 84.6369C61.946 85.5099 63.0062 85.5425 64.3917 84.7174C68.1983 82.4512 72.1051 80.3416 75.983 78.1908C76.4975 77.9056 76.6824 77.5442 76.6802 76.9847C76.6668 72.1888 76.6668 67.3928 76.6802 62.5969C76.6802 62.0635 76.493 61.7391 76.0075 61.4692C71.7643 59.1028 67.5278 56.7233 63.3047 54.3221C62.7367 53.9977 62.2935 54.0216 61.7344 54.3395C57.5358 56.7255 53.326 59.0919 49.1051 61.4409C48.5951 61.7239 48.3813 62.0548 48.3835 62.6252C48.3991 67.3928 48.3991 72.1626 48.3835 76.9303C48.3835 77.4898 48.5483 77.8577 49.074 78.1342C50.0986 78.6741 51.0897 79.2727 52.0943 79.8518C52.4395 80.0521 52.8071 80.1893 53.1991 80.2742C54.54 80.5615 55.52 79.8344 55.5245 78.489C55.5401 74.4964 55.5311 70.5059 55.5311 66.5133C55.5311 65.6273 55.5445 64.739 55.5311 63.853C55.52 63.226 55.7984 62.9191 56.4511 62.9539C56.5067 62.9561 56.5647 62.9539 56.6226 62.9539C58.2107 62.9234 58.2641 62.9713 58.2664 64.5017C58.2664 69.0212 58.2664 73.5385 58.2641 78.058C58.2641 78.4455 58.2508 78.8352 58.1951 79.2183C57.7585 82.1965 55.4109 83.6485 52.4485 82.7102C50.4594 82.0811 48.7332 80.9229 46.9914 79.83C46.1539 79.3054 45.8042 78.4433 45.8042 77.4615C45.8042 72.389 45.7975 67.3144 45.8108 62.242C45.8131 61.0098 46.3721 60.0846 47.4947 59.4554C51.954 56.9562 56.3998 54.4331 60.8568 51.9252C61.9527 51.3091 63.0642 51.2982 64.1778 51.923C68.6103 54.4135 73.0428 56.9018 77.4842 59.3792C78.7182 60.0672 79.2795 61.0882 79.2706 62.4575C79.255 64.898 79.2661 67.3362 79.2661 69.7766C79.2661 72.2171 79.2416 74.6553 79.2751 77.0957C79.2951 78.5826 78.6558 79.5971 77.3283 80.3308C73.0005 82.7189 68.695 85.1485 64.3917 87.578C63.1132 88.3008 61.8948 88.3269 60.6252 87.5432C59.3043 86.729 57.9367 85.9866 56.5936 85.2094C56.4043 85.1006 56.1415 85.0135 56.166 84.7457L58.6116 83.2567L58.6049 83.2479Z" fill="white"/>
<path d="M66.5969 77.4636C64.9553 77.5028 63.3627 77.2895 61.8815 76.5493C60.456 75.8374 59.6497 74.6923 59.467 73.1466C59.369 72.3172 59.5784 72.0908 60.4382 72.0886C61.8214 72.0864 62.0753 71.9144 62.3738 73.3208C62.5386 74.0958 63.1734 74.5355 63.9285 74.7141C65.6881 75.1299 67.4656 75.2213 69.2386 74.7728C69.5972 74.6814 69.9424 74.5573 70.232 74.3135C71.2254 73.4775 71.0138 72.1757 69.7821 71.7424C68.2964 71.2178 66.7172 71.1764 65.1736 70.9761C64.2982 70.8629 63.4296 70.7192 62.5943 70.4384C61.2111 69.9747 60.1909 69.1431 59.9793 67.6562C59.7499 66.0322 60.1932 64.6389 61.6387 63.6462C64.0287 62.0069 69.2519 62.1331 71.5194 63.9096C72.5084 64.6846 72.9472 65.7491 73.1098 66.9378C73.1855 67.4886 72.9138 67.7759 72.3391 67.7846C70.7732 67.8108 70.546 67.8587 70.1852 66.6374C69.9602 65.8711 69.3121 65.4161 68.5147 65.2354C67.1114 64.9153 65.7015 64.8653 64.2938 65.2071C64.022 65.2724 63.7503 65.3812 63.5097 65.5206C62.9729 65.8319 62.7212 66.3217 62.7792 66.9204C62.8348 67.4951 63.2603 67.7716 63.7837 67.9261C65.0422 68.2984 66.3496 68.3986 67.6393 68.5945C68.7641 68.7643 69.8912 68.9232 70.9692 69.2846C72.3324 69.7418 73.4261 70.4994 73.6243 72.0211C73.8515 73.7583 73.4661 75.2801 71.8357 76.2946C70.232 77.2916 68.4478 77.5093 66.5991 77.4636H66.5969Z" fill="white"/>
</svg>
