<svg width="139" height="70" viewBox="0 0 139 70" fill="none" xmlns="http://www.w3.org/2000/svg">
<path d="M44.1294 24.7453C43.709 24.6119 43.2736 24.4636 42.8402 24.4433C40.2824 24.3247 37.7209 24.2673 35.165 24.1339C34.3766 24.0931 34.1374 24.4229 34.0048 25.1251C33.3863 28.3897 32.7193 31.6468 32.0691 34.9058C31.7553 36.4844 31.4414 38.0629 31.1125 39.7137C31.4003 39.7582 31.6226 39.8305 31.8412 39.8212C34.2402 39.736 36.6466 39.7267 39.0344 39.5173C41.4931 39.3024 43.6398 38.3557 45.0318 36.1879C46.6049 33.7404 47.1467 31.0465 46.9057 28.1766C46.7581 26.4128 45.8165 25.277 44.1294 24.7434V24.7453Z" fill="white"/>
<path d="M107.177 24.5211C104.244 24.1839 101.278 24.132 98.2554 23.9504C97.2297 29.2419 96.2246 34.4186 95.2063 39.6674C95.6454 39.7212 95.9648 39.8027 96.2806 39.7916C98.6796 39.7063 101.092 39.736 103.472 39.4729C106.467 39.1412 108.657 37.5312 109.886 34.7539C110.643 33.0438 111.033 31.2355 111.11 29.379C111.22 26.6962 109.811 24.8231 107.179 24.5211H107.177Z" fill="white"/>
<path d="M69.537 0.405518C31.6412 0.405518 0.919922 15.7668 0.919922 34.715C0.919922 53.6632 31.6412 69.0245 69.537 69.0245C107.433 69.0245 138.154 53.6632 138.154 34.715C138.154 15.7668 107.433 0.405518 69.537 0.405518ZM48.6414 42.6115C45.9565 44.6254 42.8439 45.411 39.5369 45.5055C36.6933 45.587 33.8459 45.6092 31.0004 45.6241C30.253 45.6278 29.8962 45.8445 29.7561 46.6412C29.2647 49.437 28.678 52.218 28.1418 55.0083C28.0802 55.3325 28.0297 55.5715 27.6037 55.566C25.201 55.5308 22.7983 55.5141 20.3956 55.4863C20.2648 55.4863 20.1341 55.4252 19.8986 55.3659C22.3013 43.0209 24.7003 30.7019 27.0974 18.3866C27.2936 18.3699 27.4075 18.3514 27.5215 18.3532C33.4236 18.394 39.3276 18.3551 45.226 18.5089C48.7852 18.6015 51.8736 19.8984 53.9662 22.9462C55.2647 24.8379 55.629 26.9704 55.5524 29.2197C55.3618 34.7595 53.1142 39.2543 48.6414 42.6115ZM81.9634 45.5648C79.3776 45.5536 76.7918 45.5592 74.0902 45.5592C74.5778 43.0506 75.0617 40.6531 75.5083 38.2482C76.1379 34.8651 76.7601 31.4819 77.3486 28.0914C77.7615 25.7124 76.8722 24.6322 74.4508 24.4711C71.8949 24.3006 69.324 24.3599 66.7588 24.3006C66.3608 24.2913 66.258 24.4618 66.1908 24.8138C65.0866 30.5277 63.9674 36.238 62.8539 41.9482C62.6596 42.945 62.4989 43.951 62.2635 44.9367C62.2131 45.1497 61.9048 45.4573 61.7105 45.461C59.2629 45.4981 56.8135 45.4888 54.366 45.4851C54.2819 45.4851 54.196 45.4295 54.0521 45.3795C54.4389 43.3544 54.8163 41.3405 55.2086 39.3321C57.1461 29.4291 59.0892 19.5279 61.0267 9.62301C61.249 8.48357 61.2359 8.43725 62.4242 8.41501C64.3822 8.37796 66.3421 8.39648 68.302 8.40575C68.6421 8.40575 68.9821 8.47801 69.3689 8.52062C68.7504 11.7611 68.1451 14.9275 67.5229 18.1902C68.1507 18.2402 68.6757 18.3088 69.2026 18.3199C72.0705 18.381 74.9403 18.3996 77.8063 18.4922C79.4972 18.5478 81.1264 18.948 82.6547 19.6928C84.7828 20.7322 85.9598 22.4793 85.9056 24.7842C85.8571 26.8463 85.5338 28.9177 85.1639 30.9557C84.3157 35.6358 83.3647 40.2974 82.4604 44.9663C82.4025 45.2628 82.4174 45.5648 81.9634 45.5629V45.5648ZM119.62 29.8255C119.525 31.0613 119.306 32.3064 118.975 33.5014C117.406 39.1616 113.716 42.9616 108.167 44.8051C106.273 45.4351 104.122 45.361 102.082 45.4832C99.7782 45.6203 97.4651 45.6055 95.1577 45.6741C94.0629 45.7074 94.0199 45.7556 93.8069 46.8209C93.2782 49.4704 92.7569 52.1217 92.23 54.7711C92.1852 54.9935 92.116 55.2121 92.045 55.4882H83.8654C84.2054 53.7503 84.5436 52.0142 84.8855 50.2819C86.922 39.975 88.9548 29.6662 91.0006 19.3611C91.2435 18.1402 91.0249 18.3495 92.2038 18.3569C97.9658 18.3884 103.728 18.3773 109.488 18.5052C112.619 18.5737 115.368 19.7317 117.425 22.1607C119.301 24.3747 119.837 27.0223 119.62 29.8274V29.8255Z" fill="white"/>
</svg>
