<svg width="90" height="89" viewBox="0 0 90 89" fill="none" xmlns="http://www.w3.org/2000/svg">
<path d="M85.3393 26.2851H63.2037V4.15961C50.9203 -0.932035 37.7224 -0.557187 26.3366 4.15961V26.2851H4.2168C-0.874116 38.5692 -0.499263 51.766 4.2168 63.1537H26.3366V85.2811C38.6209 90.372 51.8199 89.9971 63.2037 85.2811V63.1537H85.3393C90.4289 50.8664 90.0554 37.6688 85.3393 26.2851ZM26.3366 52.0939V55.7799H9.44518C7.38448 48.5212 7.38448 40.9099 9.44518 33.6584H44.7698V26.2847H33.7099V9.38951C37.3097 8.36962 41.025 7.85352 44.7921 7.85352C48.5422 7.85352 52.2376 8.36886 55.8297 9.38719V37.3467C55.8297 39.3827 54.1772 41.0328 52.1436 41.0328H37.3976C31.2913 41.0343 26.3361 45.9856 26.3361 52.0949L26.3366 52.0939ZM80.1096 55.7799H44.7712V63.1537H55.8311V80.0518C52.2313 81.0701 48.5191 81.5855 44.7504 81.5855C41.0025 81.5855 37.3049 81.0701 33.7128 80.0518V52.0943C33.7128 50.0545 35.3638 48.4066 37.3989 48.4066L52.1442 48.4074C58.2504 48.4074 63.2041 43.457 63.2041 37.3476V33.6592H80.1104C82.1711 40.9148 82.1711 48.5253 80.1104 55.7807L80.1096 55.7799Z" fill="#00A3FF"/>
<path d="M46.6683 17.1173C46.6683 19.2058 44.9756 20.8984 42.8872 20.8984C40.7987 20.8984 39.106 19.2057 39.106 17.1173C39.106 15.0288 40.7987 13.3361 42.8872 13.3361C44.9756 13.3361 46.6683 15.0288 46.6683 17.1173Z" fill="#00A3FF"/>
<path d="M50.4496 72.3228C50.4496 74.4113 48.7562 76.104 46.668 76.104C44.5797 76.104 42.8872 74.4112 42.8872 72.3228C42.8872 70.2344 44.5798 68.5416 46.668 68.5416C48.7563 68.5416 50.4496 70.2344 50.4496 72.3228Z" fill="#00A3FF"/>
</svg>
