<svg width="90" height="90" viewBox="0 0 90 90" fill="none" xmlns="http://www.w3.org/2000/svg">
<path d="M72.3723 32.3684C71.4835 32.0648 70.5882 31.782 69.6866 31.5201C69.8361 30.9117 69.974 30.2998 70.1004 29.6845C72.1341 19.7937 70.8044 11.8254 66.2657 9.20232C61.92 6.68529 54.7931 9.30836 47.6035 15.5801C46.8966 16.1989 46.2042 16.8363 45.5263 17.4922C45.0743 17.0565 44.6108 16.63 44.1357 16.2128C36.6002 9.50652 29.0474 6.68182 24.5139 9.31357C20.1682 11.8358 18.8767 19.3261 20.7071 28.7006C20.8902 29.6277 21.0959 30.5507 21.3242 31.4697C20.2551 31.7739 19.2226 32.099 18.2353 32.4431C9.41175 35.5286 3.76929 40.3662 3.76929 45.3829C3.76929 50.5665 9.82546 55.7639 19.0262 58.9154C19.7725 59.1692 20.5257 59.405 21.2859 59.6229C21.0391 60.6068 20.8207 61.6017 20.6306 62.6075C18.8923 71.8204 20.2482 79.1334 24.5852 81.64C29.0648 84.2283 36.5793 81.5687 43.9045 75.1544C44.4839 74.6469 45.0633 74.1109 45.6427 73.5465C46.3751 74.2546 47.1284 74.9418 47.9025 75.6081C54.9947 81.7234 61.9982 84.1935 66.3283 81.68C70.8044 79.083 72.2593 71.2259 70.3698 61.6671C70.2249 60.937 70.0581 60.1919 69.8692 59.4317C70.3976 59.2753 70.915 59.1136 71.4215 58.9467C80.982 55.7709 87.2103 50.636 87.2103 45.3881C87.2068 40.3471 81.3835 35.4782 72.3723 32.3684ZM49.9485 18.2744C56.1072 12.9014 61.8644 10.7807 64.4892 12.2965C67.2826 13.9113 68.369 20.4229 66.6134 28.9631C66.4975 29.5194 66.3723 30.0739 66.2379 30.6266C62.5625 29.7906 58.8355 29.2006 55.0816 28.8605C52.9323 25.7645 50.5762 22.8171 48.0294 20.0388C48.6529 19.4338 49.2914 18.8457 49.945 18.2744H49.9485ZM28.4059 49.6695C29.1604 51.1297 29.949 52.5719 30.7717 53.9961C31.6096 55.4493 32.4828 56.8811 33.3913 58.2914C30.8084 58.0106 28.2416 57.5969 25.7012 57.052C26.4382 54.6671 27.3456 52.19 28.4059 49.6695ZM28.4059 41.2684C27.363 38.8018 26.4799 36.3751 25.7551 34.0319C28.1365 33.4983 30.6744 33.062 33.3201 32.7317C32.4335 34.1154 31.5806 35.5193 30.7613 36.9436C29.942 38.3678 29.1551 39.8094 28.4007 41.2684H28.4059ZM30.3007 45.4698C31.3993 43.1788 32.5825 40.9317 33.8502 38.7288C35.1169 36.5269 36.4652 34.3755 37.8952 32.2745C40.3775 32.0868 42.9223 31.9877 45.4933 31.9877C48.0642 31.9877 50.6247 32.0868 53.1052 32.2763C54.5201 34.3726 55.8604 36.5165 57.1258 38.7079C58.3913 40.8993 59.5901 43.1359 60.7223 45.4177C59.6052 47.7168 58.4093 49.9731 57.1345 52.1865C55.8702 54.3884 54.5375 56.5462 53.1365 58.6599C50.6594 58.8337 48.0955 58.9293 45.488 58.9293C42.8806 58.9293 40.3653 58.8476 37.9335 58.6895C36.493 56.5815 35.1337 54.4208 33.8555 52.2074C32.5772 49.994 31.3906 47.7481 30.2955 45.4698H30.3007ZM60.22 53.9718C61.0601 52.5139 61.8667 51.037 62.6397 49.5409C63.6992 51.9433 64.6345 54.3987 65.4418 56.8973C62.8715 57.4761 60.2727 57.9199 57.656 58.2271C58.5391 56.826 59.3937 55.4076 60.22 53.9718ZM62.6049 41.2701C61.8354 39.8042 61.0352 38.3556 60.2043 36.9244C59.3931 35.5129 58.5477 34.1188 57.6682 32.7421C60.3295 33.0794 62.883 33.5278 65.2766 34.0754C64.507 36.5168 63.6153 38.9181 62.6049 41.2701ZM45.528 22.5923C47.2638 24.4889 48.9027 26.4719 50.4387 28.5337C47.1533 28.3773 43.8656 28.3773 40.5757 28.5337C42.1975 26.3887 43.8575 24.3984 45.528 22.5923ZM26.3078 12.4025C29.0995 10.7824 35.2722 13.0978 41.7785 18.8811C42.194 19.2513 42.6129 19.639 43.0301 20.0405C40.4702 22.8185 38.0975 25.7632 35.9275 28.8553C32.1819 29.1928 28.4623 29.7735 24.7921 30.5936C24.58 29.7407 24.3888 28.882 24.2184 28.0175C22.6453 19.9814 23.6865 13.9235 26.3078 12.4025ZM22.2385 56.1811C21.5432 55.9829 20.8566 55.768 20.1787 55.5362C16.1111 54.1456 12.751 52.3308 10.4443 50.3544C8.37921 48.5831 7.33276 46.8153 7.33276 45.3829C7.33276 42.3392 11.8627 38.4559 19.4173 35.8224C20.3664 35.4921 21.3236 35.1902 22.2889 34.9167C23.4109 38.5224 24.7697 42.0501 26.3565 45.4768C24.7508 48.9508 23.3752 52.5266 22.2385 56.1811ZM41.556 72.4636C38.3176 75.3005 35.074 77.3117 32.2145 78.3251C29.6453 79.2342 27.5994 79.2603 26.3635 78.5458C23.7317 77.0248 22.6366 71.1512 24.1298 63.2733C24.3071 62.3462 24.5099 61.4191 24.7382 60.4921C28.4451 61.2906 32.2021 61.8359 35.9831 62.1243C38.1743 65.2325 40.5667 68.1939 43.1448 70.9895C42.6268 71.4988 42.0967 71.989 41.556 72.4636ZM45.6271 68.4273C43.9375 66.6004 42.2514 64.5787 40.6069 62.4059C42.205 62.4685 43.832 62.4998 45.488 62.4998C47.1881 62.4998 48.8707 62.4633 50.5291 62.3885C48.9987 64.4834 47.3626 66.4989 45.6271 68.4273ZM67.2722 73.397C66.775 76.081 65.7755 77.8714 64.5396 78.5876C61.9096 80.1138 56.2862 78.1304 50.2231 72.8999C49.5278 72.3019 48.8325 71.6605 48.125 70.9878C50.653 68.1813 52.9893 65.2079 55.1181 62.0878C58.92 61.7657 62.6953 61.182 66.4169 60.3408C66.5873 61.0292 66.7379 61.7036 66.8689 62.3642C67.705 66.5882 67.825 70.4089 67.2722 73.397ZM70.2968 55.5553C69.8414 55.7066 69.372 55.8526 68.8957 55.9951C67.7287 52.3724 66.3169 48.8332 64.67 45.402C66.2551 42.0166 67.6117 38.5287 68.7306 34.9619C69.5841 35.2105 70.4133 35.4712 71.2111 35.7476C78.9326 38.4107 83.6433 42.3531 83.6433 45.3829C83.6433 48.6161 78.5554 52.8123 70.2968 55.5553Z" fill="white"/>
<path d="M45.488 52.8507C46.9674 52.8555 48.4149 52.4212 49.6473 51.6028C50.8797 50.7844 51.8415 49.6187 52.411 48.2534C52.9804 46.888 53.1319 45.3843 52.8463 43.9328C52.5606 42.4813 51.8507 41.1472 50.8063 40.0994C49.7619 39.0516 48.4301 38.3373 46.9795 38.0469C45.529 37.7565 44.0248 37.9031 42.6576 38.4681C41.2904 39.0331 40.1215 39.9912 39.2991 41.2209C38.4767 42.4506 38.0377 43.8967 38.0377 45.3761C38.0357 46.3562 38.2268 47.3271 38.6002 48.2333C38.9736 49.1395 39.5219 49.9632 40.2138 50.6574C40.9057 51.3516 41.7277 51.9026 42.6326 52.2789C43.5376 52.6552 44.5079 52.8495 45.488 52.8507Z" fill="white"/>
</svg>
