<svg width="77" height="89" viewBox="0 0 77 89" fill="none" xmlns="http://www.w3.org/2000/svg">
<path fill-rule="evenodd" clip-rule="evenodd" d="M66.7071 16.9896C67.0224 17.0167 67.4039 17.2628 67.4638 17.7075H67.4641C67.5232 18.1521 76.9223 83.0451 76.9223 83.0451L50.1473 88.96L0.731689 79.5052C0.731689 79.5052 7.07335 29.4234 7.31286 27.6578C7.6311 25.3256 7.70776 25.2476 10.1314 24.4713C10.5254 24.3449 13.6101 23.3681 17.9522 21.9941C19.626 14.7451 24.9646 0.480103 36.1391 0.480103C37.5988 0.480103 39.2887 1.28054 40.653 3.12294C40.7893 3.11503 40.9256 3.10954 41.058 3.10954C45.855 3.10954 48.5817 7.28168 50.1267 11.8218C51.7045 11.3232 52.6583 11.0225 52.715 11.0055C53.1001 10.8897 54.0921 10.732 54.6 11.2507C55.1077 11.7697 59.7328 16.4587 59.7328 16.4587C59.7328 16.4587 66.3924 16.9628 66.7071 16.9896ZM43.2141 14.0059L47.3955 12.6843C46.3361 9.37932 44.69 6.50744 42.2183 6.19068C42.8336 7.99166 43.2171 10.2635 43.2171 13.0852C43.2171 13.4035 43.2157 13.695 43.2142 13.9907L43.2141 14.0059ZM40.2861 14.4372C40.2861 11.032 39.8393 8.50853 39.1521 6.75019C36.4272 7.94414 33.3103 11.1093 31.6475 17.6627C33.2775 17.147 34.9055 16.6323 36.4933 16.1302C37.7903 15.7202 39.0605 15.3185 40.2831 14.9318L40.2832 14.9258C40.2847 14.7667 40.2861 14.6092 40.2861 14.4372ZM37.2653 4.03486C36.8003 3.70804 36.3144 3.54083 35.8321 3.54083H35.8318C27.8056 3.54083 23.2971 14.3023 21.3983 20.904L28.2244 18.7452C29.8454 10.0899 33.6841 5.75573 37.2653 4.03486ZM37.7565 42.1259L41.058 32.0973C41.058 32.0973 38.8264 30.776 34.3092 30.776C22.5857 30.776 16.7779 38.7721 16.7779 47.0351C16.7779 52.5502 19.805 55.0513 22.4581 57.2434C24.5278 58.9534 26.37 60.4755 26.37 63.0938C26.37 64.5381 25.3699 66.5148 22.9114 66.5148C19.1488 66.5148 14.6897 62.6055 14.6897 62.6055L12.4185 70.2688C12.4185 70.2688 16.7564 75.6599 25.239 75.6599C32.3078 75.6599 37.5504 70.2246 37.5504 61.7838C37.5504 55.295 33.2735 52.0888 29.8931 49.5546C27.6844 47.8989 25.8585 46.53 25.8585 44.72C25.8585 43.8806 26.1201 40.5494 31.3182 40.5494C34.8639 40.5494 37.7565 42.1259 37.7565 42.1259Z" fill="#00A3FF"/>
</svg>
