<svg width="90" height="89" viewBox="0 0 90 89" fill="none" xmlns="http://www.w3.org/2000/svg">
<path d="M45.7874 47.7357L39.3094 66.6365H39.2897L34.2732 81.0737C34.6287 81.1724 34.9644 81.2514 35.3199 81.3502H35.3792C38.5684 82.2006 41.8548 82.6322 45.1554 82.6339C46.8015 82.6462 48.446 82.5273 50.0732 82.2784C52.2507 82.0055 54.399 81.5361 56.4919 80.8762C57.0054 80.7182 57.5189 80.5404 58.0324 80.3627C57.4794 79.1777 56.2944 76.5509 56.2352 76.4324L45.7874 47.7357Z" fill="white"/>
<path d="M10.5929 29.8029C8.6179 34.2664 7.2749 39.7568 7.2749 44.7141C7.2749 45.9583 7.33415 47.2026 7.45265 48.4271C8.8154 62.4891 17.9004 74.2996 30.3824 79.6123C30.8959 79.8296 31.4291 80.0468 31.9624 80.2443L13.5949 29.8226C12.0149 29.7634 11.7186 29.8621 10.5929 29.8029Z" fill="white"/>
<path d="M79.5994 28.7956C78.7496 26.9663 77.7522 25.2094 76.6171 23.5421C76.3011 23.0681 75.9456 22.5941 75.6099 22.1201C71.3304 16.3763 65.5191 11.9545 58.8421 9.36161C54.4872 7.65815 49.8513 6.78724 45.1751 6.79411C39.5104 6.79423 33.918 8.06677 28.8109 10.5178C23.7039 12.9687 19.2126 16.5356 15.6686 20.9548C14.3848 22.5463 13.2291 24.2369 12.2124 26.0108C15.0169 26.0306 18.4929 26.0306 18.8879 26.0306C22.4626 26.0306 27.9729 25.5961 27.9729 25.5961C29.8294 25.4776 30.0269 28.1833 28.1901 28.4006C28.1901 28.4006 26.3336 28.6178 24.2796 28.7166L36.7024 65.6491L44.1679 43.2723L38.8749 28.7363C37.0184 28.6376 35.3001 28.4203 35.3001 28.4203C33.4436 28.3216 33.6806 25.4973 35.4976 25.6158C35.4976 25.6158 41.1264 26.0503 44.4839 26.0503C48.0586 26.0503 53.5689 25.6158 53.5689 25.6158C55.4056 25.4973 55.6426 28.2031 53.7861 28.4203C53.7861 28.4203 51.9494 28.6376 49.8954 28.7363L62.1996 65.3923L65.6164 54.0163C67.3346 49.5923 68.2036 45.9386 68.2036 43.0156C68.2036 38.8088 66.6829 35.8858 65.3794 33.6146C63.6611 30.7903 62.0416 28.4203 62.0416 25.6356C62.0416 22.4953 64.4116 19.5723 67.7691 19.5723H68.2036C73.3781 19.4341 75.0766 24.5691 75.2939 28.0648V28.1833C75.3729 29.6053 75.3136 30.6521 75.3136 31.8963C75.3136 35.3328 74.6619 39.2236 72.7264 44.1018L65.0239 66.3798L60.6196 79.3555C60.9751 79.1975 61.3109 79.0395 61.6664 78.8618C72.8646 73.4503 81.0214 62.6668 82.7396 49.8886C82.9944 48.1889 83.1198 46.4723 83.1149 44.7536C83.1223 39.2414 81.9224 33.7944 79.5994 28.7956Z" fill="white"/>
<path d="M45.1949 3.63412C54.6726 3.63901 63.8572 6.91996 71.1929 12.9212C78.5285 18.9224 83.5642 27.2749 85.4467 36.5637C87.3293 45.8525 85.9431 55.5066 81.5229 63.8904C77.1027 72.2742 69.9203 78.8723 61.1924 82.5669C51.1532 86.8097 39.8398 86.8907 29.7409 82.792C19.642 78.6933 11.5849 70.7508 7.3421 60.7116C3.0993 50.6724 3.01833 39.3589 7.117 29.26C11.2157 19.1611 19.1582 11.1041 29.1974 6.86127C34.2584 4.71977 39.6996 3.62213 45.1949 3.63412ZM45.1949 0.474121C20.7622 0.474121 0.954956 20.2814 0.954956 44.7141C0.954956 69.1468 20.7622 88.954 45.1949 88.954C69.6276 88.954 89.4349 69.1468 89.4349 44.7141C89.4349 20.2814 69.6276 0.474121 45.1949 0.474121Z" fill="white"/>
</svg>
